<?xml version="1.0" encoding="UTF-8" standalone="no"?>
<!-- Created with Inkscape (http://www.inkscape.org/) -->

<svg
   xmlns:dc="http://purl.org/dc/elements/1.1/"
   xmlns:cc="http://creativecommons.org/ns#"
   xmlns:rdf="http://www.w3.org/1999/02/22-rdf-syntax-ns#"
   xmlns:svg="http://www.w3.org/2000/svg"
   xmlns="http://www.w3.org/2000/svg"
   xmlns:sodipodi="http://sodipodi.sourceforge.net/DTD/sodipodi-0.dtd"
   xmlns:inkscape="http://www.inkscape.org/namespaces/inkscape"
   width="260"
   height="260"
   viewBox="0 0 68.791669 68.79167"
   version="1.1"
   id="svg860"
   inkscape:version="0.92.3 (2405546, 2018-03-11)"
   sodipodi:docname="icon-leberceau.svg">
  <defs
     id="defs854" />
  <sodipodi:namedview
     id="base"
     pagecolor="#ffffff"
     bordercolor="#666666"
     borderopacity="1.0"
     inkscape:pageopacity="0.0"
     inkscape:pageshadow="2"
     inkscape:zoom="2.1145984"
     inkscape:cx="236.18264"
     inkscape:cy="103.52899"
     inkscape:document-units="mm"
     inkscape:current-layer="layer1"
     showgrid="false"
     showborder="true"
     inkscape:window-width="1920"
     inkscape:window-height="1027"
     inkscape:window-x="-8"
     inkscape:window-y="-8"
     inkscape:window-maximized="1"
     units="px" />
  <metadata
     id="metadata857">
    <rdf:RDF>
      <cc:Work
         rdf:about="">
        <dc:format>image/svg+xml</dc:format>
        <dc:type
           rdf:resource="http://purl.org/dc/dcmitype/StillImage" />
        <dc:title></dc:title>
      </cc:Work>
    </rdf:RDF>
  </metadata>
  <g
     inkscape:label="Layer 1"
     inkscape:groupmode="layer"
     id="layer1"
     transform="translate(-27.619747,-77.375521)">
    <g
       id="g852"
       transform="matrix(0.27389014,0,0,0.27389014,45.030126,79.213999)">
      <path
         sodipodi:nodetypes="czc"
         inkscape:connector-curvature="0"
         id="1"
         d="m 180.5015,129.77023 c -39.49531,-0.0344 -78.99059,5.50217 -118.485899,5.5022 -39.495334,0 -78.990642,-5.53663 -118.485951,-5.5022"
         style="fill:none;stroke:#333333;stroke-width:13.99398613;stroke-linecap:round;stroke-linejoin:round;stroke-miterlimit:4;stroke-dasharray:none;stroke-opacity:1"
         inkscape:label="1">
        <title
           id="title828">1</title>
      </path>
      <path
         style="fill:none;stroke:#333333;stroke-width:13.99398613;stroke-linecap:round;stroke-linejoin:round;stroke-miterlimit:4;stroke-dasharray:none;stroke-opacity:1"
         d="M 19.972226,26.295864 62.015601,135.27243"
         id="2"
         inkscape:connector-curvature="0"
         sodipodi:nodetypes="cc"
         inkscape:label="2">
        <title
           id="title830">2</title>
      </path>
      <path
         style="fill:none;stroke:#333333;stroke-width:11.99484444;stroke-linecap:round;stroke-linejoin:round;stroke-miterlimit:4;stroke-dasharray:none;stroke-opacity:1"
         d="M 62.015601,135.27243 C 34.652226,108.24242 7.6749532,78.74154 -22.391053,54.817893"
         id="3"
         inkscape:connector-curvature="0"
         sodipodi:nodetypes="cc"
         inkscape:label="3">
        <title
           id="title832">3</title>
      </path>
      <path
         inkscape:connector-curvature="0"
         id="4"
         d="M 62.015601,135.27243 C 25.978552,120.80136 -9.2865208,102.30633 -47.25405,92.494923"
         style="fill:none;stroke:#333333;stroke-width:11.99484444;stroke-linecap:round;stroke-linejoin:round;stroke-miterlimit:4;stroke-dasharray:none;stroke-opacity:1"
         sodipodi:nodetypes="cc"
         inkscape:label="4">
        <title
           id="title834">4</title>
      </path>
      <path
         style="fill:none;stroke:#333333;stroke-width:11.99484444;stroke-linecap:round;stroke-linejoin:round;stroke-miterlimit:4;stroke-dasharray:none;stroke-opacity:1"
         d="m 19.972226,26.295864 c 0,0 -22.2700297,20.388293 -42.363279,28.522029 -6.860695,15.425508 -13.179567,24.811516 -24.862997,37.67703 -0.486725,17.136887 -9.2163,37.923987 -9.2163,37.923987"
         id="5"
         inkscape:connector-curvature="0"
         sodipodi:nodetypes="cccc"
         inkscape:label="5">
        <title
           id="title1027">5</title>
      </path>
      <path
         sodipodi:nodetypes="czzzccssccc"
         inkscape:connector-curvature="0"
         id="6"
         d="m 176.69498,146.98233 c 0,0 -76.44252,5.55385 -114.663785,5.55385 -38.221237,0 -114.663764,-5.55385 -114.663764,-5.55385 0,0 1.826666,16.03402 6.871845,31.97253 3.573776,11.29014 8.762522,17.24295 16.060923,22.70424 8.800818,6.58554 50.265932,9.87831 91.731022,9.87831 41.465089,0 82.930179,-3.29277 91.731019,-9.87831 7.2984,-5.46129 12.48712,-11.41412 16.06093,-22.70429 5.04515,-15.93851 6.87181,-31.97258 6.87181,-31.97258 v 1e-4 0"
         style="fill:none;fill-opacity:1;stroke:#333333;stroke-width:13.99398613;stroke-linecap:round;stroke-linejoin:round;stroke-miterlimit:4;stroke-dasharray:none;stroke-opacity:1"
         inkscape:label="6">
        <title
           id="title836">6</title>
      </path>
      <path
         style="opacity:1;vector-effect:none;fill:none;fill-opacity:1;stroke:#333333;stroke-width:13.99398613;stroke-linecap:round;stroke-linejoin:round;stroke-miterlimit:4;stroke-dasharray:none;stroke-dashoffset:0;stroke-opacity:1"
         d="m -44.054773,153.90861 20.304619,44.80432 -5.423243,-45.63003 16.830739,48.80919 -2.73018,-47.436 15.63376387,48.74506 -2.13743007,-45.97739 16.3500662,45.60336 -2.094564,-44.06983 15.372144,44.81785 -1.776316,-46.8082 15.443966,50.07013 -0.766703,-48.6382 15.024817,48.82524 -0.347353,-48.34962 14.861838,48.34962 -0.550386,-52.81915 14.811111,53.30537 0.149669,-50.31324 14.34091,48.00503 0.410434,-46.92407 14.517551,47.01763 -1.5262,-50.61532 14.13223,45.26147 -1.43615,-42.01211 14.01498,42.47701 -1.85761,-44.12902 15.57706,40.4797 -2.72026,-46.1056 12.16622,32.7718 3.35547,-28.28362"
         id="7"
         inkscape:connector-curvature="0"
         sodipodi:nodetypes="ccccccccccccccccccccccccccccccc"
         inkscape:label="7">
        <title
           id="title826">7</title>
      </path>
    </g>
  </g>
</svg>
