<?xml version="1.0" standalone="no"?>
<!DOCTYPE svg PUBLIC "-//W3C//DTD SVG 20010904//EN"
 "http://www.w3.org/TR/2001/REC-SVG-20010904/DTD/svg10.dtd">
<svg version="1.0" xmlns="http://www.w3.org/2000/svg"
 width="700.000000pt" height="700.000000pt" viewBox="0 0 700.000000 700.000000"
 preserveAspectRatio="xMidYMid meet">
<metadata>
Created by potrace 1.11, written by Peter Selinger 2001-2013
</metadata>
<g transform="translate(0.000000,700.000000) scale(0.100000,-0.100000)"
fill="#000000" stroke="none">
<path d="M2245 6254 c-41 -21 -69 -49 -91 -90 -20 -37 -199 -185 -409 -338
-208 -152 -504 -327 -638 -376 -72 -27 -93 -53 -161 -202 -135 -294 -286 -523
-533 -808 -55 -64 -105 -125 -110 -135 -6 -11 -14 -63 -18 -115 -19 -267 -146
-764 -214 -843 -56 -63 -76 -125 -62 -187 12 -56 48 -104 96 -132 39 -22 51
-23 355 -29 173 -4 369 -10 435 -14 280 -15 637 -37 1040 -65 852 -59 979 -64
1555 -64 612 -1 676 2 1935 89 412 28 795 47 1110 53 308 7 321 8 360 30 134
76 131 267 -4 339 -41 21 -56 23 -195 23 -287 0 -823 -25 -1391 -65 -806 -56
-1092 -73 -1426 -82 l-246 -6 -21 54 c-29 77 -1066 2763 -1092 2828 -29 74
-55 108 -100 131 -48 24 -133 26 -175 4z m375 -1469 c210 -544 384 -994 387
-1000 4 -5 -173 168 -393 385 -496 491 -829 802 -1109 1036 l-48 41 99 58
c188 110 452 293 623 432 29 24 55 42 56 41 2 -2 175 -448 385 -993z m-1321
161 c139 -118 360 -317 545 -491 214 -200 927 -907 922 -913 -3 -2 -170 68
-373 156 -435 189 -685 292 -960 396 -200 75 -614 216 -636 216 -7 0 -18 4
-26 9 -10 7 5 32 66 112 113 146 214 300 294 448 38 69 69 129 69 133 0 16 13
7 99 -66z m-585 -957 c282 -85 676 -229 1056 -386 312 -129 761 -325 756 -331
-3 -2 -112 4 -243 13 -131 9 -364 25 -518 35 -443 31 -759 49 -1045 60 -146 5
-266 10 -266 10 -1 0 9 35 23 78 33 106 99 381 114 475 6 42 14 77 17 77 3 0
50 -14 106 -31z"/>
<path d="M225 2891 c-50 -22 -91 -69 -106 -121 -15 -48 3 -190 57 -459 92
-463 182 -726 318 -931 103 -154 288 -327 421 -393 136 -68 409 -130 755 -172
1110 -133 3032 -116 3910 36 393 68 510 113 693 268 188 157 322 364 410 631
72 217 156 589 193 857 20 140 14 180 -37 238 -54 61 -95 70 -282 56 -505 -36
-1174 -76 -1917 -113 -626 -32 -1654 -32 -2280 0 -741 37 -1485 82 -1895 112
-174 13 -193 13 -240 -9z"/>
</g>
</svg>
