<svg xmlns="http://www.w3.org/2000/svg" viewBox="0 0 1006.519 33.435" height="126.368" width="3804.168"><path d="M1002.356 32.773c-.48-.378-.84-.883-.8-1.122.04-.239-.017-.575-.125-.747-.108-.171-.075-.387.073-.478.148-.092.27-.487.273-.878.005-.94.21-1.18 1.338-1.574 1.347-.47 1.92-.412 2.718.275.793.681.874 1.393.372 3.27-.268 1-.492 1.303-1.182 1.59-1.206.505-1.675.445-2.667-.336zm-997.97.112c-1.747-1.062-2.143-1.408-2.679-2.338-.323-.562-.588-1.274-.588-1.581 0-.307-.12-.485-.265-.395-.15.093-.264-.135-.264-.53 0-.46.103-.628.31-.5.202.125.255.05.152-.217-.235-.612.319-1.002 1.421-1.002 1.603 0 3.22 1.183 2.35 1.72-.806.498.317 1.538 1.422 1.317 1.266-.255 3.076-1.148 3.073-1.517-.004-.46-1.46-1.783-3.086-2.805-.753-.473-1.51-1.031-1.683-1.24-.174-.209-.429-.31-.568-.224-.138.086-.317-.094-.397-.4-.08-.305-.317-.555-.525-.555-.209 0-.542-.387-.74-.86-.198-.473-.668-1.149-1.045-1.501-.376-.353-.685-.889-.686-1.191-.001-.302-.171-.875-.379-1.272-.207-.398-.271-.789-.142-.869.13-.08.172-.308.096-.507-.076-.198-.01-.441.148-.539.158-.097.217-.29.131-.43-.19-.307.45-1.827.77-1.827.125 0 .157-.185.07-.41-.086-.226-.05-.345.082-.264.131.082.48-.241.773-.717 1.126-1.82 2.552-2.694 4.847-2.966 1.228-.146 1.6-.07 2.866.594 2.244 1.175 3.715 3.846 2.928 5.317-.228.427-.192.593.179.829.332.21.37.333.134.433a.6.6 0 00-.33.513c0 .207-.105.375-.233.375s-.388.375-.578.834c-.19.458-.744 1.232-1.231 1.72-.81.809-1.025.886-2.481.886-1.843 0-1.845.243-.011 1.172 1.551.787 3.885 2.858 4.45 3.95.233.45.423 1.434.423 2.185 0 1.275-.087 1.46-1.294 2.729-.712.748-1.652 1.545-2.088 1.77-1.085.559-4.588.765-5.331.313zm1.437-14.279c-.057-.169.5-.622 1.235-1.006.735-.384 1.337-.87 1.337-1.081 0-.211.119-.47.264-.578.162-.119.13-.196-.081-.198-.191-.002-.276-.118-.19-.257.086-.14.33-.186.544-.104.214.082.389.017.389-.144 0-.161-.12-.293-.265-.293-.145 0-.264-.164-.264-.364 0-.2-.384-.55-.854-.777-.799-.387-.916-.378-1.833.137-.554.311-1.048.826-1.138 1.185-.095.377-.28.56-.455.452-.2-.123-.252.044-.161.518.073.385-.012.9-.19 1.144-.267.365-.226.549.235 1.042.584.626 1.605.858 1.427.324zM41.07 32.521a14.968 14.968 0 00-1.662-.5c-.404-.086-1-.467-1.323-.846a29.43 29.43 0 00-.918-1.033c-.182-.188-.33-.571-.33-.85 0-.28-.268-.637-.596-.795-.374-.18-.448-.295-.198-.309.258-.014.295-.09.107-.216-.445-.299-.746-1.74-.316-1.517.187.098.077-.041-.245-.308-.495-.412-.552-.63-.372-1.416.117-.512.133-2.036.035-3.387-.097-1.352-.163-2.868-.147-3.37.02-.583-.092-.912-.31-.912-.187 0-.34-.186-.34-.413 0-.227.111-.344.246-.26.136.084.322.031.413-.117.091-.148-.02-.269-.246-.269-.227 0-.413-.119-.413-.264 0-.146.149-.267.33-.269.221-.003.2-.09-.065-.26-.57-.368-3.076-.324-3.774.066-.326.182-.612.33-.636.331-.025 0-.132.345-.237.767-.116.46-.093.705.055.613.15-.092.224.79.187 2.21-.034 1.3.03 2.363.143 2.363.113 0 .179.833.145 1.852-.048 1.47.019 1.852.324 1.852.212 0 .325.096.253.213-.129.207.094 1.446.47 2.619.142.441-.006.785-.606 1.413-.437.457-.92.753-1.072.658-.154-.094-.28-.048-.28.103 0 .18-.246.169-.727-.035-1.122-.477-1.213-.628-1.184-1.985.018-.83-.042-1.09-.175-.757-.194.49-.21.49-.39.022-.102-.268-.064-.61.087-.76.15-.151.271-.459.269-.684-.004-.362-.036-.364-.273-.013-.202.298-.229.225-.109-.293.103-.446.016-.833-.247-1.096-.248-.249-.348-.648-.256-1.03.083-.343.134-.862.114-1.153-.02-.291-.033-1.274-.029-2.183.006-1.147-.093-1.655-.321-1.658-.22-.003-.198-.088.065-.253.556-.352.016-.824-.722-.632-.32.084-.653.378-.74.653-.266.836-2.77.413-2.77-.468 0-.195-.102-.354-.227-.354-.566 0 .369-2.792 1.013-3.026.223-.081.815-.45 1.317-.818.501-.37 1.057-.615 1.235-.547.179.069.61-.136.96-.454.35-.319.866-.62 1.146-.672.28-.05.57-.17.642-.264.073-.095.31-.217.529-.271.218-.054.814-.217 1.323-.36 2.225-.63 4.818-.674 7.243-.125 2.072.47 2.587.497 4.366.226 2.47-.376 3.917-.39 4.134-.04.09.146.376.265.636.265.72 0 1.448.927 1.148 1.463-.271.485-3.767 2.093-5.15 2.37-.477.095-1.473.34-2.212.546l-1.345.373.252 1.566c.234 1.453.31 1.578 1.047 1.726 1.864.372 3.447-.135 3.724-1.194.145-.555.179-.561.818-.142.366.24.894.436 1.172.436.353 0 .554.247.669.82.234 1.169-.055 2.09-.656 2.09-.318 0-.5.187-.5.51 0 .606-1.964 1.576-4.312 2.13-1.702.401-1.914.573-1.548 1.258.138.257.316.883.396 1.39.08.507.264.96.408 1.01.145.047.21.228.143.4-.22.576 1.42 1.054 3.098.902.863-.079 1.714-.253 1.89-.387.177-.135.696-.393 1.154-.574.742-.294.935-.263 1.78.286.722.47.91.742.79 1.145-.228.772-1.173 1.72-1.713 1.72-.257 0-.541.12-.631.265-.09.145-.365.265-.611.266-.246 0-.751.16-1.122.354-1.02.532-3.162.678-4.22.287zm121.706-.67c-1.798-.393-3.702-1.88-3.702-2.89 0-.251-.179-.606-.397-.787-.218-.181-.4-.523-.405-.76-.005-.237-.183-.662-.397-.944-.214-.283-.393-.878-.398-1.323-.005-.445-.182-1.524-.393-2.397-.21-.873-.385-2.153-.387-2.844-.002-.691-.123-1.257-.269-1.257-.145 0-.264-.35-.264-.776 0-.428-.127-1.11-.282-1.516-.199-.524-.198-.767.002-.834.156-.052.216-.203.134-.336-.083-.133-.01-.242.161-.242.181 0 .253-.222.173-.53-.076-.29-.03-.462.101-.38.132.08.24-.098.24-.397 0-.3.113-.545.25-.545.138 0 .287-.566.33-1.257l.082-1.257 1.508-.519 1.507-.52 1.02.574c.97.545 2.426.81 4.63.846.917.015.992.075.992.791 0 .426.178.953.397 1.172.525.525.501.94-.066 1.156-.255.096-.62.33-.813.52-.192.19-.691.346-1.109.346-.418 0-.833.119-.923.265-.09.145-.917.264-1.84.264-1.885 0-2.02.132-1.762 1.719.235 1.45.934 1.774 3.546 1.644 1.133-.056 2.199-.24 2.368-.41.496-.495 1.92-.365 2.453.225.426.47.44.61.116 1.215-.202.376-.37.94-.374 1.254-.012.822-2.637 2.088-4.601 2.219-2.525.168-2.713.247-2.54 1.07.085.397.218 1.138.297 1.647.08.51.252.967.385 1.016.133.05.43.278.66.507.893.894 4.237.08 5.981-1.455.25-.22.918-.485 1.483-.588.888-.163 1.113-.098 1.661.48.349.368.47.57.269.45-.237-.142-.329-.109-.261.093.12.363-2.063 2.756-2.747 3.012-.255.095-.463.293-.463.44 0 .396-3.14 1.776-4.366 1.919-.582.068-1.476.032-1.987-.08zm728.598-.707c-.545-.247-.992-.57-.992-.72 0-.149-.225-.411-.501-.584-.343-.214-.532-.694-.597-1.518-.053-.664-.006-1.206.104-1.206s.2-.282.2-.626c0-.344.239-.929.53-1.299.29-.37.529-.788.529-.929 0-.141.19-.415.424-.609.234-.193.531-.632.661-.974.13-.342.356-.548.502-.458.146.09.265-.022.265-.249s.119-.412.265-.412c.145 0 .264-.18.264-.397 0-.219.12-.397.265-.397.145 0 .264-.186.264-.413 0-.227.12-.339.265-.249.15.093.264-.13.264-.513 0-.426.148-.677.397-.677.22 0 .397-.235.397-.53 0-.29.237-.766.527-1.055.563-.563.883-2.609.504-3.223-.152-.247-1.052-.379-3.012-.442l-2.794-.09-.399-.954c-.22-.525-.343-1.1-.274-1.278.068-.179.685-.653 1.37-1.055 1.114-.653 1.501-.73 3.654-.729 2.147.001 2.529.078 3.512.7.607.384 1.166.911 1.243 1.171.259.875.273 3.287.02 3.468-.137.1-.283.802-.324 1.562-.059 1.102-.232 1.555-.86 2.241-.432.474-.785 1.056-.785 1.295 0 .24-.222.719-.492 1.066-.27.347-.704 1.048-.963 1.557-.26.51-.573.992-.697 1.073-.125.08-.586.85-1.025 1.709l-.799 1.561.599.333c1.153.64 4.661.378 6.35-.475.252-.128.692-.232.976-.232.285 0 .59-.12.68-.265.09-.145.385-.265.656-.265.27 0 .538-.14.595-.312.059-.175.302-.236.554-.14.248.096.525.166.616.158.344-.032.513.583.409 1.482-.06.51-.256.93-.436.93s-.647.275-1.04.611c-.65.56-3.165 1.527-5.851 2.252-2.019.545-4.933.596-6.02.106zm-821.048-.262c-1.028-.24-1.79-1.914-1.77-3.886.003-.285-.127-.677-.288-.871-.207-.25-.211-.438-.014-.635.168-.168.198-.565.076-.991-.112-.392-.168-1.243-.123-1.892.12-1.763-.31-2.9-1.096-2.9-.394 0-.641-.153-.641-.396 0-.219-.12-.397-.265-.397-.145 0-.264-.251-.264-.558 0-.306-.286-.782-.635-1.056-.35-.275-.757-.85-.907-1.278-.222-.636-.181-.88.222-1.346.271-.312.432-.725.358-.918-.158-.412 1.702-1.76 3.328-2.41 2.228-.891 7.754 0 8.56 1.382.117.2.385.363.596.363.211 0 .384.119.384.264 0 .146.176.265.391.265.216 0 .752.625 1.191 1.39.647 1.123.779 1.616.692 2.579-.185 2.065-.477 3.212-.852 3.357-.2.076-.364.383-.364.68 0 .299-.461.982-1.026 1.519-.791.752-.97 1.076-.78 1.414.135.24.484.438.777.438.292 0 .463.111.379.247-.084.136.19.237.607.226.418-.012.927.083 1.13.212.633.402 5.074.122 5.528-.348.218-.226.248-.328.065-.226-.247.139-.3-.06-.206-.789.069-.536-.013-1.227-.182-1.537-.304-.559-.358-.824-.504-2.481-.041-.473-.162-.86-.267-.86-.106 0-.184-.566-.174-1.257.01-.691-.013-2.238-.051-3.437-.064-2.01-.02-2.223.559-2.72.536-.462.84-.515 2.083-.362 1.76.217 1.754.217 5.556-.09 1.673-.134 3.285-.159 3.581-.054.321.114.736.046 1.029-.168.312-.228.645-.275.917-.13.234.125.542.21.684.188.142-.022.373.287.514.687.346.983-.475 1.747-2.077 1.935-.652.077-2.05.434-3.11.794-1.058.36-2.552.729-3.32.819-.776.091-1.649.383-1.964.657-.313.27-.431.492-.263.492.167 0 .305.179.305.397 0 .218-.116.397-.257.397-.534 0 .066.76.86 1.089 1.1.456 3.141.36 3.432-.16.157-.279.65-.4 1.634-.4 1.893 0 2.335.569 1.548 1.995-.164.297-.277.76-.252 1.026.065.687-3.025 2.249-4.474 2.261-.594.005-1.136.066-1.204.134-.069.068-.078.52-.022 1.002.073.626.346 1.045.95 1.459 1.315.901 2.34.997 3.932.37.767-.303 1.81-.585 2.32-.628.844-.072.933-.012 1.012.681.064.56-.124.978-.715 1.588-.441.455-.78.947-.752 1.092.028.146-.603.605-1.401 1.02-2.319 1.208-5.395.975-6.62-.5-.658-.794-1.511-.937-3.382-.566-2.574.51-7.436.407-9.725-.206-2.043-.548-2.76-.45-2.76.376 0 .296-.098.538-.22.538-.12 0-.365.272-.544.606-.324.606-.77.738-1.73.514zm2.964-8.116c-.04-.12.199-.32.531-.444.333-.123.81-.594 1.059-1.048.25-.454.678-1.12.953-1.483.589-.774.792-2.487.271-2.287-.232.089-.293-.06-.2-.488.11-.491.08-.535-.147-.219-.237.332-.284.305-.287-.166-.005-.629-.783-1.022-2.557-1.292-.771-.117-1.164-.063-1.323.183-.305.472-.287 3.215.022 3.438.153.11.143.637-.026 1.376-.362 1.58.176 2.865 1.144 2.735.348-.047.6-.184.56-.305zm71.629 7.917c-.873-.19-1.625-.31-1.67-.265-.045.044-.818-.294-1.72-.751-1.2-.61-1.761-1.08-2.1-1.757-.254-.51-.373-.956-.264-.992.109-.037.176-.723.149-1.526-.028-.85.055-1.397.198-1.308.136.084.247-.004.247-.196s.25-.505.556-.696c.355-.222.508-.527.424-.848-.073-.276-.055-.477.04-.447.094.03.436-.132.76-.36.66-.465.638-1.124-.071-2.207-.246-.374-.374-.68-.286-.68.089 0-.097-.298-.413-.661-.453-.521-.594-1.078-.67-2.646-.057-1.176.009-1.986.161-1.986.142 0 .329-.224.416-.5.295-.93 2.017-1.756 4.686-2.25 2.365-.437 2.67-.442 3.992-.057 1.877.545 3.773 2.182 4.013 3.465.096.511.29.93.431.93.392 0 .198 2.873-.205 3.028-.187.072-.34.359-.34.637 0 .578-1.05 1.362-1.824 1.362-.988 0-1.35-.708-1.35-2.634 0-1.673-.053-1.837-.725-2.278-.455-.298-1.218-.474-2.05-.472-1.956.003-2.455.141-2.737.76-.34.748-.083 1.978.413 1.978.27 0 .352.174.255.545-.123.47-.086.497.28.198.368-.302.402-.27.268.25-.084.327-.063.595.048.595.304 0 1.601 1.26 1.601 1.557 0 .142.241.336.536.43.295.093.95.595 1.455 1.116.506.52.92.869.92.774 0-.178.604.304 1.69 1.348.34.328.747.596.904.596.157 0 .341.09.41.202.226.366-.338 2.725-.75 3.137-.221.221-.402.573-.402.78a.389.389 0 01-.397.378c-.218 0-.397.1-.397.223 0 .34-1.31.86-2.778 1.104-.728.12-1.502.275-1.72.345-.218.069-1.111-.03-1.984-.22zm3.635-3.957c.415-.286.35-.4-.661-1.14a27.584 27.584 0 01-2.107-1.742c-.91-.85-1.046-.898-1.786-.619-.44.167-.801.407-.801.535 0 .128-.192.637-.426 1.13-.803 1.693-.03 2.219 3.204 2.18 1.174-.015 2.322-.168 2.577-.344zM19.453 30.451c-1.298-.448-1.436-.725-1.445-2.904-.004-1.11-.12-2.089-.257-2.174-.137-.084-.177-.382-.089-.66.09-.284.037-.508-.121-.508-.162 0-.283-.556-.283-1.304 0-.832-.15-1.454-.415-1.72-.23-.228-.289-.415-.133-.415.156 0 .282-.209.28-.463-.003-.397-.042-.406-.265-.066-.183.28-.209.13-.087-.503.132-.684.064-.98-.28-1.231-.29-.212-.352-.395-.174-.506.154-.095.279-.434.277-.753-.003-.47-.052-.505-.261-.182-.22.339-.257.33-.26-.067-.003-.254.12-.463.273-.463.168 0 .19-.155.059-.391-.12-.215-.174-.869-.118-1.452.092-.968.186-1.084 1.066-1.318 1.572-.418 2.594.018 2.234.955-.074.195-.002.354.163.354.185 0 .26.354.198.926-.057.51.008.926.141.926.134 0 .167.125.073.277-.094.152-.048.423.1.603.26.313.346 1.135.316 3.04-.008.481.098.807.234.722.137-.084.243.176.237.58a4.464 4.464 0 00.263 1.426c.157.398.175.793.042.926-.134.133-.11.683.055 1.29.157.582.34 1.802.406 2.71.113 1.564.085 1.665-.537 1.901-.36.137-.698.36-.75.493-.055.143-.445.122-.942-.049zm96.363.174c-.75-.19-2.039-1.328-1.724-1.523.157-.096.035-.471-.299-.923-.31-.418-.496-.933-.415-1.144.081-.211.058-.488-.05-.615-.11-.126-.355-.766-.546-1.42-.548-1.882-.908-2.647-1.242-2.647-.17 0-.35.12-.4.268-.049.147-1.279.342-2.734.433-1.454.091-2.823.257-3.041.368-.433.22-.492 1.658-.15 3.628.156.895.118 1.124-.187 1.124-.21 0-.607.298-.88.662-.352.468-.748.661-1.36.661-.475 0-.863-.111-.863-.247 0-.135-.243-.324-.54-.418-.377-.12-.494-.319-.386-.659.133-.418-.093-2.368-.55-4.761-.099-.51-.066-.57.141-.265.205.303.28.147.314-.661.025-.583.023-1.237-.006-1.456-.132-1.01-.04-1.947.208-2.1.15-.093.34-.879.423-1.746.083-.868.284-2.198.446-2.955.246-1.151.429-1.44 1.114-1.76.935-.433 3.285-.805 4.657-.736.997.05 2.381.52 2.381.807 0 .097.593.807 1.317 1.579 1.866 1.987 3.446 4.442 3.446 5.354 0 .42.119.764.264.764.146 0 .265.353.265.784 0 .517.183.882.537 1.072.295.158.466.4.38.538-.084.138-.038.251.105.251.142 0 .336.352.43.781.095.43.637 1.26 1.206 1.846l1.035 1.066-.1-1.034c-.055-.569-.161-1.135-.237-1.257-.075-.122-.217-.755-.314-1.405-.097-.651-.299-1.26-.448-1.352-.174-.107-.152-.208.06-.279.264-.088.26-.245-.02-.76-.423-.778-.463-1.04-.618-4.059-.073-1.43-.245-2.43-.44-2.55-.24-.147-.2-.397.157-1.002.393-.665.7-.836 1.77-.983 1.08-.15 1.355-.098 1.665.312.683.902 1.792 5.673 1.703 7.328-.025.459-.015.954.022 1.1.037.145.085.383.108.529.362 2.314.473 2.768.65 2.659.116-.072.157.145.093.482-.066.345.066.795.303 1.031.23.231.42.588.42.793 0 .42 1.075.988 1.868.988.591 0 1.429-.427 2.299-1.17.327-.28.595-.425.595-.322 0 .103.253.052.561-.113.309-.165.949-.3 1.422-.3.837 0 .855-.023.662-.88-.114-.502-.089-.988.058-1.135.166-.166.14-.475-.073-.873-.182-.339-.315-1.006-.297-1.482.018-.476-.227-1.306-.545-1.844-.317-.537-.432-.888-.256-.78.176.11.32.08.32-.066a.557.557 0 00-.248-.418c-.136-.084-.258-.359-.27-.61a49.598 49.598 0 00-.175-1.841c-.171-1.57.134-2.066 1.518-2.463.58-.166 1.09-.126 1.72.138.764.319.895.503.895 1.26 0 .488.1 1 .222 1.138.334.379.836 3.546.84 5.309.003 1.103.079 1.441.26 1.16.298-.46.296-.473.361 2.065.028 1.062.177 2.015.333 2.116.378.248.69 1.905.358 1.905-.141 0-.258.297-.258.661 0 .364-.132.661-.295.661-.165 0-.234.234-.157.53.153.585-.317.702-1.11.277-.848-.453-2.142-1.804-2.142-2.236 0-.7-1.38-.532-1.958.239-.274.364-.618.661-.766.661-.148 0-.653.293-1.122.651-2.046 1.561-4.158 1.821-6.35.783-1.528-.724-2.21-1.408-2.397-2.404-.177-.942-.219-.967-1.033-.617-.29.125-.38.236-.198.246.464.026.433 1.606-.032 1.606-.2 0-.646.416-.992.924-.636.933-.731.975-1.688.733zm-6.238-11.868c.083-.083-.029-.29-.249-.46-.22-.17-.61-.637-.865-1.037-.256-.4-.664-.728-.906-.728-.56 0-2.19 1.098-2.192 1.477-.005.827 3.51 1.451 4.212.748zm176.894 11.61c-.728-.219-1.511-.563-1.74-.766-.23-.203-.558-.369-.729-.369-.17 0-.865-.714-1.543-1.587-.678-.873-1.332-1.588-1.455-1.588-.122 0-.222-.178-.222-.396 0-.64-.318-.47-1.72.917-1.313 1.3-1.335 1.31-3.073 1.32-1.673.011-1.811-.038-3.133-1.113-1.547-1.259-2.055-2.23-2.298-4.403-.092-.816-.268-1.614-.392-1.772-.124-.159-.174-.962-.11-1.786.072-.943.011-1.498-.164-1.498-.175 0-.22-.416-.122-1.124.086-.619.221-1.78.301-2.58.191-1.92 1.069-4.089 1.798-4.44 1.18-.57 2.184-.584 2.65-.04.583.681.58 2.701-.005 3.594-.79 1.205-.387 9.454.518 10.61.584.745 1.698.371 2.795-.938l1.062-1.27-.017-3.294c-.02-3.607.547-6.783 1.33-7.47.434-.382 1.78-.539 7.063-.825 1.164-.064 2.95-.286 3.969-.495 1.556-.32 1.918-.323 2.27-.022.229.196.548.357.71.357.395 0 .673.961.489 1.695-.133.528-.537.684-3.397 1.315-4.669 1.03-7.878 2.834-7.878 4.43 0 .476.103.527.728.358.4-.108 1.62-.222 2.712-.253 1.465-.042 2.313-.22 3.24-.678 1.008-.499 1.397-.57 1.984-.36.62.222.717.389.646 1.11-.051.526.037.85.23.85.227 0 .216.118-.038.425-.194.233-.486.68-.65.992-.162.312-.451.532-.641.489-.19-.043-.597.14-.905.408a6.143 6.143 0 01-1.22.792c-1.024.47-3.736.673-4.602.344-.42-.16-.814-.24-.877-.177-.235.235.735 2.919 1.343 3.716.349.457 1.054 1.057 1.568 1.334.856.46 1.06.473 2.43.144 1.189-.285 1.574-.512 1.882-1.106.212-.41.476-.747.587-.747.11 0 .417-.366.68-.813.44-.744.565-.798 1.488-.642.975.165 1.012.142 1.184-.709.313-1.552.411-1.75 1.086-2.192 1.359-.89 2.491.082 2.491 2.14 0 1.404.03 1.461.918 1.833 1.595.666 3.643.373 5.772-.825l1-.564-1.563-.702c-.86-.385-1.644-.701-1.744-.701-.1 0-.698-.387-1.33-.86-1.084-.811-2.108-1.472-3.502-2.263-.335-.19-.61-.503-.61-.696 0-.192-.194-.511-.432-.709-.683-.566-1.42-2.55-1.42-3.821 0-3.824 4.437-6.1 9.436-4.842 1.356.342 3.53 2.187 3.53 2.997 0 .272.208.725.462 1.007.35.386.455.927.428 2.198-.03 1.442-.146 1.819-.794 2.59-.417.496-1.023 1.053-1.346 1.236l-.589.335.544.472c.3.26.873.544 1.274.632.954.21 2.468 1.484 2.538 2.137.03.282.143.719.25.97.221.52-1.864 3.623-2.443 3.636-.185.004-.783.304-1.329.665-2.297 1.52-7.212 1.618-9.76.195-.318-.177-.756-.323-.974-.323-.218 0-.469-.227-.557-.505-.088-.278-.462-.703-.83-.944-.804-.527-1.427-.17-1.427.82 0 1.267-2.94 3.742-4.92 4.141-.423.086-.947.21-1.165.278-.218.068-.992-.056-1.72-.274zm19.505-12.578c-.302-.368-.29-1.745.018-2.233.11-.173.122-.8.027-1.393-.178-1.113-.203-1.134-2.52-2.071-.486-.197-1.021-.2-1.779-.007-.94.238-1.105.392-1.25 1.158-.124.665-.025 1.08.403 1.68.583.819.845 1 3.081 2.138.715.364 1.34.75 1.388.86.049.11.272.199.496.199.294 0 .332-.092.136-.331zm32.919 12.073c-2.58-.525-4.415-2.879-3.973-5.092.091-.455.046-.977-.1-1.16-.302-.375-.29-6.771.014-7.258.432-.693-.46-.663-1.015.034-.575.72-.595.725-1.292.268-1.972-1.292-1.915-4.935.102-6.424.457-.337.963-.903 1.124-1.256.162-.354.49-.644.73-.644s.943-.244 1.56-.542c1.277-.617 3.441-.755 5.46-.348 1.774.358 2.375.774 3.453 2.39 1.033 1.55 1.174 2.906.488 4.718-.22.582-.508 1.402-.641 1.822-.133.42-.437.98-.675 1.243-.47.519-.664.378 3.12 2.265.541.27.988.614.992.765.005.15.365.484.8.741 1.757 1.037 1.754 2.876-.009 5.556-.627.955-1.245 1.672-1.372 1.593-.127-.078-.973.227-1.881.678-1.91.95-4.304 1.176-6.885.65zm4.858-4.05c.815-.33 1.27-.702 1.442-1.182.386-1.076-.41-1.709-2.373-1.886l-1.582-.142-.86 1.095c-.882 1.122-1.117 2.213-.53 2.45.73.294 2.78.118 3.903-.335zm-2.927-9.76c.766-.774 1.045-1.31 1.191-2.282.105-.698.083-1.378-.05-1.51-.13-.132-.842-.311-1.58-.398-1.58-.187-1.544-.247-1.813 3.017l-.18 2.183h.716c.479 0 1.047-.335 1.716-1.01zm-6.417-1.421c-.085-.211-.147-.149-.16.16-.011.279.051.435.139.347.088-.088.097-.316.02-.507zm117.559 15.485c-2.574-1.03-3.195-1.491-4.386-3.267-1.097-1.635-1.274-1.79-1.729-1.506-.278.174-.566.505-.64.737-.183.58-2.405 1.537-3.738 1.612-.92.052-1.31-.102-2.381-.935-1.485-1.156-2.717-2.86-2.782-3.848-.09-1.36-.109-1.486-.272-1.75-.554-.896-.832-5.206-.382-5.904.125-.194.257-.79.294-1.323.036-.534.157-1.713.269-2.619.182-1.473.292-1.699 1.04-2.141 1.427-.842 2.196-.864 2.71-.08.743 1.135.91 2.688.373 3.465-.818 1.185-1.167 3.04-.96 5.11.104 1.05.186 2.145.18 2.434-.01.634 1.094 2.577 1.883 3.312 1.04.969 2.197.07 3.634-2.82.801-1.612.808-1.664.702-5.074-.106-3.358-.092-3.46.525-4.04.348-.327.633-.693.633-.814 0-.29.996-1.276 1.29-1.276.128 0 .37-.166.538-.368.306-.37 1.997-.76 3.728-.862.51-.03 1.502-.165 2.206-.3 1.08-.207 1.304-.18 1.434.179.085.234.437.715.784 1.07.441.451.606.884.55 1.45-.078.797-.107.812-2.328 1.17-1.237.2-2.416.499-2.62.665-.204.166-.74.421-1.19.567-.784.253-.82.33-.82 1.698 0 1.339.043 1.437.661 1.486.935.074 1.852-.32 1.852-.796 0-.447.933-.556 1.19-.139.09.146.678.265 1.307.265.743 0 1.27.154 1.506.44.289.35.294.463.024.554-.222.074-.289.4-.195.949.135.786.067.872-1.165 1.465-.72.347-1.496.56-1.724.472-.258-.1-.414-.015-.414.224 0 .211-.298.459-.661.55-.364.091-.662.28-.662.417 0 .139-.11.184-.245.1-.392-.242-1.607.43-1.607.89 0 .723.896 2.814 1.588 3.71.606.784.788.856 2.176.869.99.009 1.749-.14 2.19-.43.372-.243.778-.38.903-.302.125.077.375-.038.556-.257.182-.218.85-.627 1.486-.908.79-.35 1.155-.673 1.155-1.023 0-.685.675-2.264 1.127-2.64.2-.166.773-.336 1.273-.376l.908-.074-.024 1.583c-.013.87.106 1.712.264 1.87.488.485 2.027.913 3.288.913 1.577 0 4.277-.765 4.277-1.212 0-.35-1.579-1.699-1.989-1.699-.12 0-.406-.165-.636-.366-.23-.202-1.108-.732-1.951-1.177-.843-.446-1.894-1.114-2.335-1.486-.442-.37-.908-.675-1.037-.675-.129 0-.717-.71-1.306-1.577-.847-1.248-1.102-1.897-1.218-3.109-.139-1.434-.086-1.628.83-3.046 1.26-1.95 2.45-2.553 5.453-2.765 2.119-.15 2.286-.12 3.914.703 3.177 1.603 4.263 2.857 4.764 5.503.204 1.077.144 1.456-.435 2.753-.543 1.215-.855 1.577-1.624 1.884-1.021.408-2.34.212-2.745-.407-.541-.829-.535-1.564.018-2.153 1.424-1.516-.051-3.916-2.626-4.27-1.682-.231-2.662.234-3.003 1.425-.278.974-.565.622 3.363 4.13.41.366.936.665 1.17.665.234 0 .645.198.913.441.269.243 1.111.84 1.873 1.324.762.485 1.69 1.08 2.064 1.322.374.241.937.801 1.252 1.244.559.787.56.818.079 1.346-.607.666-1.349 2.102-1.349 2.613 0 .593-1.611 1.664-2.778 1.845-2.526.393-6.026.51-6.961.234a24.308 24.308 0 00-1.643-.424c-.367-.075-1.07-.527-1.563-1.005-.517-.503-.94-.741-1-.565-.222.647-1.758 2.009-2.683 2.378a27.79 27.79 0 00-2.16 1.017c-1.209.637-3.501 1.047-4.23.755zm132.734-.52c-.316-.383-.85-.992-1.187-1.353-.337-.36-.562-.792-.5-.958.062-.166.025-.54-.082-.83-.108-.292-.074-.682.075-.868.186-.233.176-.547-.033-1.005-.167-.366-.303-1.014-.303-1.438 0-.986-.728-3.184-1.225-3.701-.326-.339-.416-.342-.612-.024-.127.205-.57.403-.983.44-1.043.093-5.472 1.693-5.706 2.06-.106.166-.175.767-.154 1.335.062 1.652-1.563 2.758-2.956 2.013-.752-.403-1.452-2.454-1.077-3.155.166-.31.235-.671.154-.803-.14-.225.097-1.77 1.179-7.687.484-2.65 1.174-4.752 1.893-5.772.238-.337.374-.837.302-1.111-.203-.777 1.083-1.777 2.723-2.117 2.025-.42 2.984-.017 4.37 1.84 1.08 1.446 3.41 5.924 3.413 6.557 0 .177.243.784.537 1.35.398.762.474 1.19.296 1.66-.168.448-.118.87.169 1.43.417.813.869 2.334.904 3.042.011.218.107.516.214.662.106.145.344.92.528 1.72.185.8.481 1.752.66 2.116.433.883.745 3.704.41 3.704-.142 0-.624.357-1.07.794-.994.971-1.208.982-1.939.098zm-6.528-13.513c.8-.09 1.793-.305 2.205-.478.684-.286.713-.35.33-.732-.23-.23-.418-.543-.418-.695 0-.969-2.235-4.525-2.843-4.525-.443 0-2.714 5.493-2.714 6.564 0 .3.22.345.993.208a48.119 48.119 0 012.447-.342zm-332.142 12.88c-1.286-.43-3.25-1.275-4.366-1.878-5.595-3.026-6.533-3.344-6.208-2.102.078.3.247.545.376.545.315 0 .299.987-.02 1.184-.138.086-.185.33-.103.545.132.345-.174.513-.768.42-.109-.018-.198.144-.198.36 0 .668-1.218.777-2.05.184-.79-.562-1.654-2.73-1.654-4.15 0-.413-.161-.938-.358-1.168-.196-.23-.507-1.64-.691-3.132-.184-1.494-.445-2.784-.58-2.867-.242-.15-.079-3.403.191-3.84.076-.122.627-.353 1.225-.514 1.02-.275 2.036-1.115 2.056-1.7.015-.43 2.173-2.268 3.138-2.671 1.107-.462 4.454-.482 5.266-.031 1.125.625 2.653 2.287 3.26 3.546.6 1.243.882 3.39.515 3.912-.102.146-.405.92-.673 1.72-.307.916-.91 1.9-1.627 2.655-.626.66-1.139 1.286-1.139 1.392 0 .6 4.633 2.861 6.615 3.23 1.62.3 1.852.42 1.852.959 0 .29.102.464.226.387.125-.077.17.154.101.513-.068.36-.23.654-.358.654-.129 0-.234.297-.234.661 0 .45.148.664.463.67.368.007.311.142-.28.661-.928.817-1.115.81-3.977-.146zm-7.45-10.453c1.519-.875 2.887-2.368 2.676-2.92-.095-.246-.044-.602.112-.79.191-.23.199-.501.024-.827a6.494 6.494 0 01-.405-.95c-.2-.646-1.365-1.034-2.475-.826-.858.16-2.71 1.722-2.71 2.285 0 .12-.227.542-.503.937-.591.843-.943 3.16-.551 3.633.401.484 2.585.175 3.831-.542zm742.42 10.827c-.58-.145-4.11-1.61-5.149-2.137-.544-.276-.727-.261-1.118.093-.619.56-2.176.35-3.545-.477-1.072-.648-1.752-.748-2.57-.378-.288.13-1.07.04-1.984-.232-.83-.245-1.63-.472-1.78-.502-.5-.105-2.242-1.628-2.242-1.962 0-.182-.132-.33-.294-.33-.181 0-.23-.255-.125-.668.117-.467.046-.713-.236-.822-.222-.085-.406-.41-.408-.721-.003-.469-.05-.498-.272-.17-.201.296-.228.22-.106-.306.13-.56.05-.739-.39-.878-.302-.096-.55-.282-.55-.414 0-.13.178-.17.396-.086.44.169.551-.307.132-.566-.145-.09-.264-.401-.264-.692 0-.291.111-.46.247-.376.137.084.318-.415.404-1.11.086-.693.273-1.627.414-2.074.142-.447.258-.986.258-1.198 0-.501.795-1.173 1.64-1.385.486-.122.866.002 1.394.456.726.624.726.624.271 1.583-.25.528-.546.96-.658.96-.227 0-.145 3.12.089 3.353.082.082-.024.322-.235.534-.504.504-.517 1.05-.015.634.283-.235.365-.227.355.034-.043 1.043.121 1.482.598 1.607.317.083.53.36.53.692 0 .366.169.554.496.554.274 0 .645.179.826.397.472.568 1.518.493 1.853-.132.155-.291.18-.53.055-.53-.126 0-.176-.355-.112-.79.067-.462.23-.72.392-.621.179.11.193.04.04-.201-.319-.505-.393-2.885-.09-2.885.134 0 .244-.334.244-.741 0-.408.14-.881.312-1.053.24-.24.23-.467-.045-.979-.196-.366-.277-.746-.18-.843.098-.097.177.029.177.28s.12.383.266.293c.174-.108.165-.35-.028-.711-.215-.403-.213-.596.008-.733.166-.102.23-.37.144-.596-.224-.585 1.085-1.532 2.118-1.532 1.29 0 1.831.754 1.609 2.239-.13.865-.09 1.2.141 1.2.204 0 .151.19-.143.514-.255.282-.5.967-.542 1.521a70.892 70.892 0 01-.32 2.86c-.305 2.33-.265 3.25.182 4.168.422.867 1.249.954 2.042.215.702-.654 1.582-.465 2.46.529.84.948 4.136 1.702 6.288 1.438 1.54-.189 1.583-.495.152-1.093-.497-.208-.841-.48-.764-.605.078-.125-.256-.302-.74-.393-.485-.091-1.15-.451-1.479-.8-.498-.531-1.373-.956-2.174-1.056-.266-.033-1.413-1.328-1.431-1.617-.009-.141-.3-.852-.648-1.58-.69-1.444-.915-2.97-.51-3.458.142-.171.176-.524.076-.784-.109-.283-.078-.41.077-.314.142.088.548-.19.902-.618.353-.428.852-.778 1.109-.778.256 0 .466-.118.466-.262 0-.984 2.231-2.229 4.684-2.614 2.425-.38 3.538.22 4.774 2.571.462.879.413 3.485-.093 4.976-.455 1.34-1.875 3.254-2.42 3.261-.72.01-.261.57 1.096 1.335.785.443 1.494 1.01 1.576 1.259.082.25.322.829.534 1.287.335.727.335.927.003 1.57-.21.405-.32.9-.244 1.099.077.199.029.294-.106.21-.135-.083-.342.006-.46.2-.118.192-.635.665-1.148 1.05-.8.6-1.269.717-3.307.83-1.306.073-2.613.073-2.904 0zm2.767-11.518c1.697-.9 2.069-2.427.816-3.353-1.095-.81-2.113-.728-3.62.29-1.426.964-1.588 1.676-.617 2.71.287.306.522.69.522.853 0 .412 1.746.11 2.899-.5zM201.596 28.454c-.616-.692-.73-1.057-.733-2.336-.002-1.583-.112-3.18-.249-3.632a4.337 4.337 0 01-.118-.53c-.021-.145-.186-.532-.366-.86-.18-.327-.25-.595-.156-.595.095 0-.002-.268-.214-.595-.444-.685-.338-1.257.233-1.257.29 0 .34-.156.194-.595-.109-.328-.202-.804-.207-1.059-.005-.254-.117-.463-.25-.463-.134 0-.175-.416-.093-.926.148-.908.133-.926-.762-.926-1.533 0-1.901-.398-1.682-1.82.104-.672.124-1.33.044-1.462-.079-.131-.03-.168.11-.082.14.087.467-.124.725-.467.4-.534 1.988-1.44 3.998-2.28 1.282-.535 3.332-.692 4.747-.364.788.183 1.59.46 1.782.615 1.486 1.194 2.107 1.815 2.158 2.156.032.218.154.55.27.736.341.546.312 3.198-.04 3.549-.175.175-.318.593-.318.927 0 .43-.154.609-.523.609-.358 0-.684.355-1.036 1.128-.535 1.174-2.21 2.915-3.09 3.212-.936.316-1.474.898-1.607 1.74-.072.458-.015.974.127 1.147.142.172.342.878.445 1.568.103.69.282 1.195.4 1.122.547-.338-.225 1.218-.846 1.705-1.23.963-2.107.974-2.943.035zm4.216-11.699c.888-.97 1.68-2.414 1.68-3.067.002-.64-.653-1.43-1.474-1.776-.626-.265-2.198-.177-2.824.158-.502.269-.626 1.155-.198 1.42.145.09.264.394.264.677 0 .282.12.513.265.513.145 0 .265.186.265.413 0 .227-.12.339-.265.249-.334-.206-.331-.144.038.953.582 1.726 1.01 1.814 2.25.46zm19.698 11.8c-1.271-.722-1.92-1.309-1.694-1.534.086-.086.015-.328-.158-.537-.234-.282-.237-.427-.014-.566.41-.253.066-1.995-.472-2.389-.244-.178-.349-.487-.251-.74.221-.578-.3-.56-1.578.051-.56.268-1.9.777-2.98 1.132-1.65.542-2.032.78-2.382 1.486-.735 1.481-2.712 1.41-3.855-.14-.444-.601-.525-1.118-.512-3.23.02-3.193.322-6.697.651-7.564.14-.37.256-1.003.256-1.409 0-.405.13-1.112.29-1.57.23-.657.442-.833 1.006-.833.393 0 .829-.115.968-.254.14-.14 1-.445 1.91-.678 1.643-.42 1.67-.419 3.072.245.778.368 1.79 1.12 2.25 1.67a35.73 35.73 0 001.359 1.54c.287.296.522.802.522 1.124 0 .322.09.587.198.588.262.003.86 1.305.86 1.87 0 .56 1.305 1.114 2.7 1.146.98.023 1.095.105 1.473 1.052.491 1.232.232 1.82-.89 2.017-.881.156-1.142.876-.557 1.54.215.243.476.86.58 1.369.105.51.401 1.164.658 1.455.947 1.073.807 2.355-.259 2.374-.218.004-.396.166-.397.36 0 .195-.373.51-.828.702-.745.313-.936.286-1.926-.277zm-5.867-9.5c1.195-.304 2.057-1.153 1.41-1.388-.181-.066-.33-.226-.33-.355 0-.13-.38-.774-.845-1.433-.635-.901-1.016-1.199-1.537-1.199-1.275 0-1.667.626-2.033 3.243-.261 1.868.042 1.971 3.335 1.132zm137.007 9.813c-.547-.203-1.202-.525-1.455-.716-1.144-.862-2.18-1.967-2.18-2.324 0-.215-.167-.578-.37-.808-.887-1.004-1.285-3.024-1.368-6.945-.046-2.135-.218-4.386-.384-5.002-.264-.977-.239-1.205.195-1.786.274-.367.67-.754.881-.86.529-.265 5.293-.865 7.438-.936.969-.032 2.003-.187 2.297-.345.295-.157.893-.286 1.33-.286.437 0 1.093-.114 1.459-.253.625-.238.658-.208.566.521a9.143 9.143 0 01-.269 1.314c-.183.576-1.4 1.328-2.149 1.328-.562 0-4.427 1.519-5.593 2.198-.86.501-.967.733-1.226 2.658l-.137 1.02.98-.15c.539-.083 2.248-.221 3.799-.307l2.818-.157.01 1.353c.013 1.557-.7 2.645-1.735 2.645-.342 0-.693.186-.78.412-.093.245-.327.347-.575.253-.229-.088-1.106.046-1.95.3-1.264.378-1.533.56-1.533 1.04 0 1.148.848 1.789 2.497 1.885 1.398.081 1.573.026 2.26-.71.411-.44.859-.798.996-.798.138 0 .466-.239.729-.53.733-.809 1.077-.644 1.514.726.49 1.533.305 2.014-1.208 3.163-2.82 2.14-4.969 2.798-6.857 2.097zm519.512-.143c-.473-.299-.86-.67-.86-.823 0-.154-.446-.762-.992-1.35-.546-.589-1.091-1.245-1.213-1.46-.247-.436-.522-2.031-.507-2.937.006-.328-.067-.595-.162-.595-.094 0-.205-.685-.246-1.522-.056-1.154-.207-1.633-.623-1.984-.514-.434-.518-.465-.057-.495.271-.017.577-.018.68-.004.103.016.163-.327.133-.761-.03-.435-.16-.79-.287-.79-.126 0-.12-.15.015-.332.135-.182.234-.65.22-1.04-.016-.39.086-.64.224-.554.149.091.185-.101.09-.467-.09-.343-.027-.787.14-.988.21-.253.216-.42.022-.543-.325-.207-.137-1.898.212-1.898.129 0 .234-.158.234-.352 0-.194.268-.482.596-.64 1.117-.54 4.991-1.654 5.754-1.654.418 0 1.095-.133 1.505-.296 1.426-.568 1.997-.543 4.28.187.283.09.293.197.043.498-.174.21-.247.494-.162.632.085.137-.441.392-1.168.567-.727.174-1.323.411-1.323.526 0 .115-.442.292-.983.393-1.284.241-4.457 1.89-5.22 2.712-.468.505-.608.993-.646 2.251-.026.884-.106 1.7-.176 1.813-.486.787 3.395.28 5.188-.678 1.249-.668 2.367-.655 2.367.025 0 .201.123.366.274.366.188 0 .188.159 0 .512-.151.281-.274.732-.274 1.001 0 .493-1.233 1.4-1.893 1.393-.196-.002-1.46.493-2.809 1.1-2.173.977-2.432 1.166-2.277 1.657a2.5 2.5 0 00.629.952c.249.218.538.665.641.992.231.732.829 1.067 2.464 1.38 1.061.204 1.448.154 2.45-.32.656-.308 1.251-.628 1.324-.711.073-.083.37-.284.661-.447a.829.829 0 00.44-.896c-.048-.33.07-.701.265-.825.559-.354 1.544-.27 1.544.133 0 .2.167.503.371.672.537.445-.104 1.61-1.814 3.301-1.934 1.912-3.412 2.576-6.056 2.723-1.85.102-2.28.042-3.018-.424zM17.565 28.44c0-.364.06-.513.133-.331.073.182.073.48 0 .661-.073.182-.133.034-.133-.33zm376.087.304c-.098-.16-.68-.422-1.292-.583-1.045-.276-3.362-2.145-3.362-2.712 0-.13-.222-.55-.493-.937-.27-.386-.574-1.149-.673-1.695-.1-.545-.28-.992-.401-.992s-.17-.506-.108-1.124c.061-.619-.058-1.899-.265-2.845-.217-.992-.278-1.826-.144-1.97.127-.139.232-.607.232-1.04 0-.434.258-1.553.573-2.487.661-1.956 1.21-2.357 2.78-2.032 1.605.332 4.558.199 5.221-.235.47-.309.988-.341 2.556-.16 1.082.126 2.177.233 2.435.24.373.009.434.158.3.739-.298 1.284-.73 1.67-2.62 2.339-4.73 1.672-5.594 1.947-6.12 1.954-.737.009-1.186.578-1.213 1.538-.034 1.198.22 1.379 1.93 1.379 1.441 0 1.601-.058 1.83-.662.205-.537.432-.661 1.21-.661.704 0 .99-.128 1.083-.483.114-.435.245-.454 1.286-.19.637.162 1.232.368 1.321.457.3.3-.407 2.3-1.105 3.128-.789.938-3.19 2.221-4.654 2.488-.546.099-.992.29-.992.425 0 .134-.179.175-.397.092-.496-.19-.495-.108.012.908.225.451.612.876.86.944 2.83.776 3.272.815 4.07.357.434-.249 1.047-.454 1.363-.455.57-.002.956-.172 2.916-1.29.792-.452 1.1-.513 1.389-.274.784.651.267 2.19-1.034 3.08-1.226.837-3.952 2.183-4.43 2.187-.226.002-.525.118-.665.258-.398.397-3.188.655-3.399.314zm382.198-.399c-.175-.21-.819-.438-1.431-.505-.613-.067-2.84-.487-4.95-.933-2.11-.446-4.626-.887-5.59-.98-2.122-.204-3.47-.827-3.669-1.695-.08-.35-.08-1.328 0-2.174.08-.847.054-1.79-.059-2.096-.113-.307-.098-.759.033-1.005.16-.297.116-.615-.129-.95-.21-.288-.273-.627-.147-.79.265-.343.237-2.157-.037-2.43-.106-.107-.193-.472-.193-.811 0-.71-.079-.738-.793-.292-.784.49-1.288-.184-1.603-2.14-.228-1.418-.2-1.761.205-2.446.5-.846 2.435-2.219 3.687-2.615.414-.131 1.229-.419 1.811-.639 1.229-.464 3.55-.537 4.928-.154 1.194.332 3.03 1.76 3.586 2.79.485.898.58 4.427.15 5.6-.147.403-.42 1.24-.606 1.858-.185.619-.424 1.125-.53 1.125-.107 0-.263.27-.346.602-.083.331-.572 1.094-1.087 1.696-.514.601-.936 1.217-.936 1.369 0 .151-.199.387-.442.523-.393.22-.359.326.303.94.41.38.944.69 1.187.69.242 0 1.497.358 2.789.794 2.334.79 4.366 1.035 4.366.53 0-.146-.132-.265-.293-.265-.161 0-.225-.179-.14-.397.083-.218.029-.397-.12-.397-.15 0-.199-.119-.109-.265.09-.145.038-.264-.117-.264-.164 0-.281-.63-.284-1.521-.003-.837-.096-1.666-.208-1.843-.165-.26.243-5.152.47-5.632.035-.073.053-.966.04-1.984-.022-1.8.003-1.869.832-2.436 1.19-.813 3.931-1.393 7.166-1.516 2.902-.11 3.929.14 4.093.997.13.672-1.055 1.665-2.246 1.881-1.91.347-5.344 1.521-5.73 1.96-.21.24-.444.853-.518 1.363-.075.509-.221 1.194-.326 1.521-.17.532-.102.595.645.595.459 0 1.6-.247 2.536-.55.935-.301 1.942-.472 2.237-.378 1.446.458.5 3.535-1.097 3.566-.244.005-.601.164-.793.354-.193.19-.913.503-1.602.695-.688.191-1.356.482-1.483.646-.45.58-.525 1.498-.152 1.87.206.206.374.482.374.614s.486.676 1.08 1.21c.933.838 1.255.97 2.38.97.74 0 1.302-.122 1.302-.281 0-.154.097-.22.215-.147.118.073.565-.098.992-.38 1.473-.971 1.974-.568 1.907 1.535-.02.65-.146.86-.516.86a2.4 2.4 0 00-.948.245c-.253.135-.668.31-.922.388a.707.707 0 00-.463.637c0 .56-.011.563-2.462.753-1.38.107-2.026.033-2.766-.318-.964-.458-1.05-.45-2.734.258-.238.1-.558.011-.738-.206zm-11.009-8.967c.507-.328.99-.805 1.073-1.061.084-.256.617-.839 1.184-1.295.568-.456.97-.93.894-1.053-.122-.197.311-1.407.94-2.624.504-.978-.275-2.92-1.494-3.723-.86-.567-1.87-.616-4.231-.205-1.948.339-2.213.866-.648 1.287 1.214.327 1.32.614 1.086 2.919-.166 1.633-.036 6.35.176 6.35.054 0 .513-.268 1.02-.595zM413.408 27.99c-.402-.206-1.003-.665-1.336-1.021-.333-.356-.718-.647-.854-.647-.357 0-3.17-3.472-3.17-3.913 0-.204-.241-.71-.536-1.123-.532-.748-1.513-3.39-2.625-7.068-.557-1.842-.549-2.69.034-3.42.36-.45 2.207-.701 2.806-.38.486.259.573.545 1.034 3.406.077.475.007 1.024-.156 1.22-.227.273-.142.47.37.854.367.275.867 1.036 1.113 1.692.707 1.89 1.663 3.488 2.77 4.631.847.875 1.068.99 1.278.661.315-.491.973-2.705 1.355-4.558 1.079-5.228 1.48-6.81 1.837-7.24.237-.285.742-.374 1.802-.318 1.224.065 1.523.18 1.77.678.486.978.576.97 1.623-.151 2.193-2.347 3.947-2.928 6.624-2.193.885.243 1.34.602 2.14 1.688 1.395 1.892 1.632 2.392 1.632 3.446 0 .5.173 1.325.384 1.831.308.736.336 1.393.142 3.27-.133 1.293-.353 2.387-.488 2.432-.136.046-.187.312-.113.592.329 1.26-3.419 5.595-4.613 5.336-.208-.045-.53.044-.717.198-.44.366-1.895-.106-2.797-.907-.364-.322-.864-.657-1.112-.744-.544-.191-3.064-3.923-3.508-5.197-.555-1.59-1.103-1.267-1.358.798-.064.52-.353 1.408-.641 1.974-.289.566-.525 1.18-.525 1.364 0 .183-.35.514-.776.735-.457.236-.91.773-1.103 1.307-.384 1.061-1.188 1.33-2.286.767zm14.868-4.62c.37-.17.674-.408.674-.53 0-.122.186-.222.412-.222.227 0 .346-.109.264-.242-.083-.133.041-1.056.275-2.05.82-3.5-.004-6.589-1.916-7.176-.654-.2-1.096-.218-1.264-.05-.142.141-.472.257-.734.257s-.477.171-.477.38c0 .208-.226.45-.503.538-.833.265-1.351 1.73-1.256 3.555.047.898.224 1.77.393 1.94.17.17.308.584.308.922 0 .754 1.993 2.984 2.667 2.984.266 0 .786-.138 1.157-.307zm245.696 4.804c-.013-.218-.437-.664-.942-.991-.504-.327-.966-.863-1.026-1.19-.94-5.188-1.213-7.408-1.267-10.326-.027-1.476-.272-2.078-.617-1.52-.091.148-.433.269-.759.269s-.726.133-.888.295c-.162.162-.573.434-.913.605-.423.212-.627.556-.65 1.093-.045 1.116-.32 1.637-.947 1.802-.43.112-.506.272-.36.753.102.336.224.968.272 1.405.116 1.055.939 3.543 1.232 3.724.405.25.276 1.964-.149 1.964-.561 0-.77.496-.397.944.178.216.278.428.22.471-.263.202-2.744.637-3.022.53-.183-.07-.38-.998-.477-2.255-.09-1.174-.27-2.27-.401-2.434-.13-.164-.37-1.064-.53-2-.162-.936-.404-1.813-.54-1.948-.152-.152-.635-.044-1.261.283-.559.291-1.522.681-2.142.867-.623.186-1.589.79-2.162 1.352-1.305 1.28-2.1 1.324-2.803.156-.902-1.501-1.192-2.603-.85-3.222.168-.302.273-.706.234-.9-.04-.192.042-.49.181-.66.14-.172.31-.728.38-1.238.176-1.306 2.408-5.826 3.295-6.677 1.06-1.014 2.726-1.553 3.848-1.244 1.278.353 2.063 1.271 3.552 4.151.533 1.031.85 1.07 1.662.206.338-.36 1.043-.79 1.567-.959.525-.167 1.192-.513 1.483-.768.76-.665 3.406-1.582 4.068-1.409.349.092.562.024.562-.179 0-.199.212-.27.544-.184.299.078 1.08-.04 1.735-.264 1.383-.471 5.881-.372 6.981.155 1.842.88 2.776 1.646 3.34 2.737.206.4.36.757.342.794-.018.038.11.605.287 1.26s.362 3.072.412 5.372c.05 2.3.162 4.408.25 4.684.204.642-.563 1.826-1.385 2.138-.477.182-.872.1-1.63-.336l-1-.575-.078-3.988c-.044-2.193-.06-4.521-.037-5.173.058-1.634-.335-2.426-1.622-3.26-1.282-.831-2.84-.941-4.14-.293-.464.232-1.015.356-1.223.276-.65-.249-1.843.554-1.899 1.278-.028.363.058.727.19.809.134.082.18.65.105 1.262-.076.612-.012 1.947.142 2.965.155 1.02.32 2.15.368 2.514.183 1.383.515 2.508.989 3.351.593 1.057.446 1.552-.568 1.906-.476.166-.91.597-1.148 1.143-.21.482-.394.697-.408.48zm-13.057-12.273c.204-.203-.526-2.803-.866-3.085-.498-.413-1.176-.13-1.176.493 0 .273-.238.771-.53 1.107-.29.335-.528.906-.528 1.267 0 .644.03.654 1.507.48.83-.097 1.546-.215 1.593-.262zm4.308-.808c0-.064-.12-.19-.265-.28-.145-.09-.264-.038-.264.116s.119.28.264.28c.146 0 .265-.052.265-.116zm28.814 13.099c-.984-.192-1.271-.38-2.7-1.76-1.18-1.14-1.769-2.269-1.88-3.601a98.947 98.947 0 00-.292-2.782c-.153-1.282-.096-1.893.259-2.778.25-.625.425-1.135.39-1.135-.196 0 .4-1.313.769-1.693.24-.247.857-.92 1.37-1.495 1.292-1.446 2.146-1.948 3.856-2.264 1.213-.224 1.579-.2 2.1.143.348.227.786.417.973.42.558.013 2.187 1.685 2.722 2.795 1.533 3.182 1.923 5.851 1.215 8.311-.527 1.835-1.036 2.68-2.37 3.93-2.16 2.025-3.61 2.456-6.412 1.909zm3.01-3.436c1.842-.7 3.32-3.19 2.96-4.984a29.675 29.675 0 01-.27-1.54c-.309-2.364-2.414-4.075-4.181-3.397a.423.423 0 00-.25.547c.09.235-.226.787-.782 1.368-.513.535-1.124 1.354-1.358 1.82-.524 1.04-.553 2.716-.059 3.39.202.277.312.648.244.825-.208.543.426 1.41 1.318 1.8 1.032.451 1.545.488 2.379.171zm-316.404 2.56c-1.79-1.177-4.819-4.34-5.39-5.628-.258-.584-.666-1.225-.906-1.423-.24-.2-.68-.793-.98-1.32-.593-1.042-1.76-2.043-2.048-1.756-.238.237-.233 5.326.006 6.393.16.715.06.962-.709 1.753-.717.739-1.039.893-1.626.781-1.037-.198-2.009-1.462-2.126-2.765-.054-.596-.196-1.213-.316-1.372-.12-.158-.202-2.014-.184-4.124.037-4.183.43-6.306 1.32-7.11.61-.553 2.793-.995 2.793-.566 0 .148.211.268.47.268.486 0 3.815 3.254 4.71 4.604l.964 1.455c.25.378.654 1.045.898 1.482.577 1.032 2.528 3.565 3.238 4.202.548.492.558.489.837-.244.62-1.63.063-8.98-.757-10.005-.134-.167-.294-.757-.356-1.312-.088-.79.022-1.154.508-1.678.455-.491.71-.595.955-.391.184.152.582.213.885.133.416-.108.644.04.93.607.208.412.507.988.664 1.28.534.989.954 4.487 1.001 8.334.052 4.201-.183 5.754-.95 6.292-.277.194-.503.524-.503.734 0 .21-.132.382-.293.382-.161 0-.224.18-.139.402.188.49-.585 1.45-1.17 1.45-.233 0-1.01-.386-1.726-.857zm411.678.372c-2.122-.734-2.669-1.197-2.879-2.44-.116-.687-.076-1.202.108-1.386.16-.16.292-.491.292-.735 0-.245.178-.593.397-.774.218-.18.396-.535.396-.786 0-.63 1.88-1.349 2.842-1.088.57.154.71.331.641.807-.048.335-.316.853-.595 1.153-.278.299-.506.63-.506.736 0 .106-.073.382-.161.612-.136.354.097.418 1.523.418 2.208 0 3.313-.34 4.343-1.339.761-.738.823-.912.629-1.773-.118-.525-.118-1.14.003-1.368.226-.43-.485-5.182-.864-5.772-.116-.182-.144-.44-.062-.573.082-.134.03-.56-.118-.947-.223-.586-.411-.693-1.126-.638-2.24.17-3.416-.805-2.947-2.441.256-.891.637-1.081 3.676-1.837 3.699-.92 4.21-.618 4.26 2.51.019 1.214.117 2.341.218 2.505.1.163.102.296.003.296-.1 0-.039.171.135.38.176.213.364 1.524.427 2.977.062 1.428.21 3.333.328 4.234.24 1.819-.083 2.832-.996 3.122-.34.108-.584.504-.703 1.142-.221 1.182-1.33 2.433-2.157 2.433-.331 0-1.28.238-2.108.529-1.84.647-3.216.658-4.998.043zm53.175-.528c-.56-.485-.983-1.052-.94-1.259.125-.603-.97-.847-3.891-.868-2.418-.017-2.859-.095-3.865-.684-1.09-.639-2.773-2.454-2.773-2.99 0-.142-.234-.555-.52-.919-.287-.364-.445-.737-.353-.83.092-.092.048-.167-.097-.167-.36 0-.345-1.672.018-1.911.16-.106.29-.582.29-1.059 0-.508.126-.843.304-.81.166.032.38-.36.477-.87.1-.537.502-1.22.953-1.622.43-.382.78-.874.78-1.092 0-.218.073-.324.162-.236.089.09.452-.183.806-.604.355-.421 1.324-1.148 2.153-1.615 1.363-.768 1.72-.85 3.684-.844 2.057.006 2.24.055 3.37.903 1.131.85 1.934 2.34 1.574 2.922-.076.123-.012.223.142.223s.278.209.276.463c-.003.352-.058.38-.226.113-.146-.23-.28.074-.392.888-.093.68-.114 1.327-.045 1.437.068.11 1.168.27 2.446.354 1.277.085 2.582.232 2.9.328.63.19.713-.05 1.007-2.899.074-.715.164-1.326.2-1.357.514-.438 3.012-1.443 3.586-1.443.756 0 .8.068.908 1.389.026.327.317.887.645 1.244.33.357.671.982.76 1.389.09.407.26.74.378.74s.283.271.366.603c.178.71 1.328 2.01 2.344 2.649.99.623 2.355.577 3.085-.102.556-.518.583-.696.416-2.712-.1-1.187-.285-2.27-.413-2.409-.129-.138-.234-.532-.234-.876 0-.404-.108-.557-.305-.435-.194.12-.234.072-.11-.128.108-.175.067-.473-.092-.664-.495-.596-.04-2.752.703-3.337.584-.46.725-.474 1.371-.14 1.152.595 1.361 1.035 1.475 3.095.06 1.068.24 2.419.4 3 .162.583.343 1.357.404 1.72.125.753.156 4.56.045 5.557-.102.917-.777 2.646-1.034 2.646-.116 0-.211.166-.211.368 0 1.08-2.888.942-5.414-.257-1.097-.52-1.994-1.046-1.994-1.169 0-.122-.417-.48-.926-.794-.51-.315-.927-.744-.927-.954 0-.423-1.231-.99-1.732-.798-.388.15-.642 1.653-.331 1.963.123.123.043.657-.178 1.186-1.121 2.683-3.58 2.759-3.58.11 0-.666-.119-1.285-.265-1.375-.153-.095-.193-.61-.096-1.222.26-1.622-.247-2.35-1.637-2.35-.614 0-1.457.178-1.874.395-.417.218-.948.396-1.181.397-.793.003-2.09.582-2.09.932 0 .192-.135.394-.3.449-.197.065-.151.249.132.532.238.238.432.5.432.582 0 .73 1.03 2.261 1.807 2.687 1.338.734 1.537 1.18 1.108 2.48l-.36 1.092-1.252-.076c-.975-.059-1.476-.27-2.27-.959zm-3.939-5.597c.378-.143.844-.407 1.036-.587.5-.467.21-1.268-.46-1.27-.311-.001-.923-.239-1.36-.528-.436-.289-.642-.526-.457-.527.231-.001.28-.221.159-.707-.146-.582-.101-.676.256-.539.265.102.409.043.37-.153-.04-.21.48-.369 1.505-.46.894-.08 1.615-.281 1.677-.467.06-.179.208-.263.33-.187.278.171.491-.494.572-1.786.075-1.188-.454-1.683-2.06-1.933-1.444-.225-3.978.563-4.566 1.419-.237.345-.628.843-.868 1.106-.24.263-.515.758-.612 1.1a8.482 8.482 0 01-.446 1.177c-.47.96.714 3.112 2.157 3.922 1.316.739 1.755.805 2.767.42zM35.117 27.38c-.09-.145-.037-.264.117-.264s.28.119.28.264c0 .146-.052.265-.116.265s-.19-.12-.28-.265zm692.302-.134c-.844-.215-1.242-.478-1.421-.942-.137-.354-.373-.91-.525-1.235-.32-.686.107-2.458.713-2.961.204-.17.989-.406 1.744-.525 1.354-.214 1.385-.204 2.388.81.911.92 1 1.128.862 2.014-.188 1.212-.84 2.178-1.837 2.724-.62.341-.957.361-1.924.115zm-204.941-.099c-.438-.09-1.134-.402-1.546-.693-1.845-1.302-2.314-1.874-2.715-3.307-.733-2.617-.988-3.82-1.037-4.895-.027-.582-.14-1.273-.252-1.536-.112-.263-.134-.988-.049-1.611.086-.626.037-1.252-.108-1.398-.163-.163-.194-1.102-.08-2.465.204-2.447.633-3.17 1.886-3.185.4-.005.942-.17 1.203-.369.262-.198.709-.299.994-.225.285.075.685-.003.888-.17.28-.234.395-.233.474.003.077.232.493.244 1.622.05 1.968-.34 2.788-.175 2.981.596.088.35.423.675.791.767.688.173.923 1.208.274 1.208-.2 0-.513.179-.694.397-.187.226-.764.397-1.34.397-.555 0-1.075.106-1.154.234-.08.129-.712.317-1.405.418-.693.1-1.514.346-1.825.546-.727.466-.981 2.174-.373 2.5.531.284 2.45-.062 3.25-.585.616-.404 2.62-.305 2.594.128-.006.11-.011.73-.011 1.38 0 1.665-.595 2.175-3.89 3.331-1.612.566-1.638.591-1.483 1.406.203 1.07 1.097 2.852 1.641 3.27 1.081.833 5.4-.72 5.93-2.132.148-.39.348-.448 1.043-.3.473.102.945.235 1.05.297.245.144-.063 1.686-.434 2.169-.896 1.167-2.555 2.477-3.593 2.836-.654.227-1.527.583-1.94.792-.776.393-1.34.424-2.692.146zm182.085-.365l-.744-.595.136-3.703c.074-2.036.315-4.417.536-5.29.22-.873.405-2.04.41-2.593.014-1.533.66-2.524 2.026-3.11 1.084-.464 1.262-.475 1.956-.116.42.217.956.395 1.191.395.436 0 3.832 3.266 3.832 3.685 0 .385 1.863 2.121 3.525 3.285.863.605 1.786 1.26 2.052 1.454.265.195.605.279.755.186.323-.2.35-5.17.029-5.17-.12 0-.298-.447-.398-.993-.1-.545-.48-1.507-.847-2.137-1.054-1.817-.579-2.69 1.498-2.75.437-.012.795-.123.795-.246 0-.124.119-.225.264-.225.146 0 .265.172.265.382 0 .21.228.542.507.738.468.327.892 1.891 1.24 4.569.056.437.215 1.39.354 2.117.468 2.46.51 4.064.117 4.39-.201.168-.366.669-.366 1.113 0 1.068-.536 2.512-.997 2.69-1.014.388-3.333-.232-5.31-1.422-2.075-1.25-2.495-1.58-5.683-4.469-1.01-.916-2.021-1.63-2.245-1.587-.684.132-1.42 3.992-1.377 7.222.024 1.81.006 1.863-.802 2.315-1.103.618-1.823.582-2.719-.135zm120.005.204c-.739-.321-.866-.515-.901-1.379a26.616 26.616 0 00-.14-1.799c-.055-.436-.127-1.529-.16-2.428-.034-.899-.145-1.718-.248-1.82-.102-.103-.057-.428.101-.723s.315-1.267.35-2.16c.033-.893.197-1.876.362-2.185.23-.43.224-.599-.027-.716-.261-.122-.26-.186.003-.308.182-.085.4-.593.486-1.128.224-1.401.707-1.917 1.95-2.084 2.112-.283 2.987 1.657 1.614 3.575-.282.394-.543 1.134-.58 1.643-.037.51-.127 1.042-.2 1.183-.074.142-.1.724-.059 1.293.047.646-.058 1.122-.279 1.265-.256.165-.27.282-.051.426.19.125.275.882.231 2.05-.039 1.02.045 1.998.187 2.176.437.547.393 2.968-.059 3.254-.56.355-1.575.302-2.58-.135zm115.33-1.338c-.634-.35-1.646-1.068-2.249-1.597-.603-.529-1.542-1.155-2.088-1.392-.546-.237-.992-.522-.992-.633 0-.111-.244-.202-.541-.202-.306 0-.507.149-.463.342.118.52-1.272 1.775-1.96 1.77-.891-.005-1.312-.36-1.121-.942.136-.417.114-.437-.12-.112-.157.219-.296.338-.31.265a204.57 204.57 0 00-.118-.635c-.052-.276-.234-.589-.405-.695-.224-.138-.229-.242-.018-.372.162-.1.293-.3.293-.446 0-.145-.106-.199-.235-.119-.324.2-.615-1.424-.706-3.937-.085-2.322.238-3.286 1.344-4.01.36-.237.656-.595.656-.797 0-.64 1.681-.45 2.355.267.377.403.492.698.312.809-.175.108-.032.406.377.785.363.337.66.736.66.888 0 .316 1.761 2.612 3.159 4.117 1.42 1.53 3.563 2.875 4.42 2.775.645-.076.727-.2.762-1.144.021-.582-.056-1.25-.172-1.483-.115-.234-.232-.89-.26-1.456-.027-.566-.27-1.423-.54-1.904-.27-.482-.49-1.043-.49-1.248 0-.205-.238-.5-.53-.655-.645-.346-.712-1.631-.115-2.228.228-.228.35-.517.273-.642-.077-.126.148-.5.501-.832.618-.58.676-.587 1.543-.175 1.218.578 1.624 1.129 1.668 2.261.037.972.864 3.177.883 2.356.006-.247.163-.545.35-.661.473-.294 2.306-2.593 2.306-2.892 0-.545 1.005-1.046 2.25-1.123.724-.045 1.389-.125 1.476-.179.087-.053.794.106 1.572.355 1.39.445 3.433 2.022 3.433 2.65 0 .174.12.316.265.316.146 0 .265.245.265.545 0 .342.112.475.303.357.21-.13.253.01.142.456-.118.468-.02.731.358.968.286.178.52.537.52.798 0 .26.135.61.301.776.362.361.526 3.456.195 3.66-.127.08-.232.365-.232.635s-.149.552-.33.625c-.265.107-.265.138 0 .155.455.029.433 1.608-.023 1.608-.194 0-.78.427-1.3.948-1.131 1.131-2.318 1.37-4.523.913-.995-.207-1.796-.576-2.355-1.087-.466-.426-1-.774-1.185-.774-.186 0-.338-.115-.338-.255s-.343-.647-.762-1.125c-.42-.478-.808-1.107-.864-1.398-.157-.821-1.16-.703-1.12.132.017.364-.132.757-.331.873-.2.117-.365.474-.367.794-.006.818-.629 2.516-1.144 3.118-.65.758-3.116.669-4.635-.167zm16.607-5.45c.04-1.847-.039-2.195-.818-3.636-.553-1.023-.934-1.479-1.064-1.274-.141.222-.204.187-.206-.114-.006-.595-.995-1.19-2.215-1.333-.826-.097-.938-.06-.595.19.588.43.53 1.322-.144 2.233-.491.664-.546.988-.4 2.378.254 2.432 1.711 3.749 4.043 3.655l1.356-.055zm45.2 5.534c-.401-.137-.659-.363-.572-.503.086-.139.018-.42-.15-.622-.169-.204-.375-1.27-.458-2.37-.083-1.1-.253-2-.376-2-.25 0-.165-.945.108-1.219.096-.096.064-.38-.072-.634-.135-.252-.201-.505-.147-.56.054-.056.177-1.649.274-3.54.297-5.798.572-8.07.977-8.07.138 0 .18-.113.095-.252-.46-.746 2.261-1.08 3.236-.398.497.348.565.591.46 1.636-.07.675-.22 1.295-.336 1.377-.266.19-.262 1.605.005 1.605.11 0 .199.12.199.265 0 .146-.195.265-.432.265-.343 0-.402.184-.285.902.08.496.08.969 0 1.05-.17.17-.423 2.04-.433 3.207-.027 3.062.426 6.732 1 8.1.136.322-.012.465-.601.583-.513.103-.768.307-.742.595.052.588-.85.889-1.75.583zm-190.697-.32a89.276 89.276 0 00-1.455-.8c-.436-.233-.977-.57-1.2-.746-.615-.487-1.583-1.948-1.407-2.124.085-.086-.141-.43-.503-.764-.43-.399-.767-1.135-.975-2.13-.175-.837-.413-1.522-.527-1.522-.115 0-.152-.298-.083-.661.074-.386.003-.662-.169-.662-.162 0-.295-.178-.295-.397 0-.218.108-.397.24-.397.131 0 .177-.238.1-.529-.096-.372-.007-.529.302-.529.242 0 .405-.149.364-.33-.042-.182.252-1 .652-1.818.632-1.29.889-1.548 1.956-1.955 1.819-.695 5.143-.652 6.786.086 1.15.517 3.093 2.212 3.093 2.699 0 .107.243.359.539.558.55.372 1.569 3.814 1.575 5.328.003.757-.052.909-1.01 2.76-.316.612-.574 1.285-.574 1.496 0 .434-2.65 2.289-3.27 2.289-.222 0-.477.119-.567.264-.244.396-2.813.312-3.572-.117zm4.277-3.676c.714-.316 1.017-.641 1.146-1.231.097-.441.256-.754.354-.695.097.059.192-.535.211-1.32.019-.786-.078-1.428-.215-1.428s-.212-.22-.167-.49c.192-1.135-1.983-3.322-3.608-3.626-1.076-.202-2.554.665-3.215 1.886-.38.703-.4 1.05-.14 2.542.476 2.733 1.307 3.932 3.248 4.69.743.29 1.105.24 2.386-.328zm-262.254 2.96c-1.875-2.019-2.712-4.878-2.662-9.09.012-1.018.025-2.209.027-2.645.003-.437.247-1.31.542-1.94.295-.63.47-1.352.39-1.605-.248-.784.951-1.665 2.135-1.566.912.075 1.03.171 1.192.968.1.49.016 1.67-.189 2.646-.202.968-.368 2.142-.368 2.608 0 .467-.142 1.16-.316 1.542-.234.513-.24.815-.022 1.164.162.259.381 1.051.487 1.762.257 1.712.824 3.02 1.31 3.02.216 0 .393.119.393.264 0 .34 1.09.34 1.987 0 .736-.28 1.453-.883 1.453-1.221 0-.56 1.248-1.95 1.753-1.952 1.722-.006 1.311 2.063-.893 4.499-.789.871-1.593 1.585-1.787 1.585a.515.515 0 00-.46.323c-.068.204-.851.36-2.128.425-2.004.101-2.026.095-2.844-.786zm94.068.161c-.437-.2-.684-.369-.55-.375.135-.007-.008-.282-.317-.611-.31-.33-.749-1.044-.976-1.588-.438-1.047-.923-1.243-1.464-.591-.182.218-.475.397-.654.397-.178 0-.729.204-1.224.454-.69.348-1.582.453-3.81.45-2.62-.003-3.075-.078-4.544-.745-.898-.408-1.91-1.04-2.249-1.405-.339-.364-.861-.757-1.16-.873-.317-.122-.695-.665-.903-1.295-.488-1.478-1.067-1.43-1.067.087 0 1.18-.485 2.004-1.178 2.004-.191 0-.41.238-.486.529-.1.382-.36.53-.941.53-.442 0-.877.118-.967.264-.09.145-.901.264-1.803.264-1.9 0-3.627-.764-5.303-2.344-1.3-1.227-1.908-2.631-2.3-5.318l-.314-2.141 1.036-1.515c.707-1.032 1.243-1.542 1.685-1.603.357-.05.91-.331 1.228-.626 1.89-1.752 7.477.253 8.671 3.112.418 1 .789 1.16 1.035.447.936-2.718 3.867-4.808 7.046-5.023 2.914-.197 4.745 1.039 5.43 3.667.425 1.626.362 4.104-.102 4.002-.166-.036-.301.121-.301.35 0 .241-.179.38-.424.33-.495-.1-1.693-2.118-1.693-2.852 0-.83-1.364-1.6-2.819-1.59-1.379.01-1.687.177-2.805 1.533-1.123 1.362-.837 3.765.597 5.007 2.207 1.912 7.134 2.671 8.996 1.386.364-.251.93-.54 1.256-.641.457-.142.596-.385.596-1.04 0-.47-.138-.994-.306-1.162-.232-.232-.216-.415.066-.755.241-.291.382-1.155.4-2.459.04-3.036.4-3.609 2.353-3.752 1.038-.075 1.223.034 1.606.951.325.779.34 1.365.088 3.638-.433 3.922-.327 5.55.47 7.236.372.785.769 1.427.882 1.427.474 0 .518.963.082 1.774-.378.701-.626.867-1.27.85-.44-.012-1.157-.185-1.593-.385zm-22.686-6.46c.816-.68 1.073-2.596.508-3.787-.57-1.2-1.193-1.714-2.589-2.134-1.107-.333-1.242-.317-2.163.267-1.1.696-1.193 1.146-.654 3.164.255.95.558 1.384 1.32 1.888.802.532 1.913.953 2.848 1.083.073.01.401-.206.73-.48zm-18.324 5.267c-1.608-.175-2.54-.653-4.102-2.103l-1.19-1.105-.974 1.094c-.687.772-1.255 1.14-1.925 1.25-.523.084-1.014.257-1.092.383-.078.126-1.424.229-2.992.229h-2.851l-1.102-1.018c-1.144-1.056-1.319-1.659-.806-2.784.315-.69.922-.952 2.217-.956.606 0 .9.186 1.244.79.38.668.614.793 1.482.793 1.027 0 2.629-.42 3.053-.802.388-.348-.325-1.276-1.351-1.759-1.069-.503-2.6-1.451-3.238-2.005-.218-.19-.744-.52-1.169-.734-.424-.214-1.229-.984-1.788-1.712-.558-.727-1.127-1.459-1.262-1.625-.136-.167-.185-.365-.109-.44.076-.076.017-.365-.131-.641-.365-.682.1-2.682.797-3.424.728-.775 2.878-1.67 4.463-1.858 1.073-.127 1.553-.028 2.775.57 1.83.895 2.633 1.72 3.457 3.548.748 1.66.8 2.752.219 4.53l-.421 1.288.826.746c.722.652.846.97.988 2.532.09.982.2 1.786.244 1.786.044 0 .401-.298.794-.662.706-.654 1.96-.908 1.96-.397 0 .146.227.265.506.265.28 0 .55.127.601.281.237.71 4.713.432 4.713-.292 0-.295-1.503-1.52-2.48-2.02-.455-.233-.887-.504-.96-.6-.072-.098-.539-.342-1.036-.544-1.301-.526-2.65-2.08-3.226-3.72-.642-1.822-.63-2.46.073-3.71.505-.898 2.3-2.624 2.73-2.624.087 0 .503-.255.925-.567 1.288-.953 4.823-.648 6.191.534.274.236.71.922.97 1.525.26.602.602 1.175.76 1.272.308.19.38 2.015.12 2.99-.116.43-.354.593-.857.587-.865-.01-1.421-.422-1.954-1.447-.67-1.29-1.697-2.09-2.684-2.09-1.045 0-2.189.683-2.579 1.54-.381.836.784 2.696 2.01 3.208.484.202 1.242.73 1.683 1.17.441.442 1.01.803 1.265.803.254 0 .65.158.88.35.23.194.924.496 1.542.673 1.104.315 1.125.342 1.125 1.485 0 .64-.126 1.242-.279 1.337-.153.095-.554.796-.892 1.559-.568 1.284-.709 1.413-1.904 1.737-.71.192-1.41.436-1.555.543-.393.287-2.2.405-3.704.241zm-9.905-11.562c.133-.998.062-1.202-.674-1.915-.702-.68-1.027-.798-2.2-.798-1.033 0-1.377.096-1.377.387 0 .352 1.477 2.279 1.894 2.47.096.045.446.317.78.606.903.783 1.403.545 1.577-.75zm311.794 9.802c-.436-.233-.89-.588-1.008-.787-.118-.2-.313-.302-.434-.227-.12.074-.177-.43-.127-1.12.05-.689.096-1.402.102-1.584.016-.432 2.74-.448 3.535-.02.318.17 1.563.339 2.766.374 1.88.055 2.28.15 2.84.682.84.797.826 1.111-.067 1.534-2.834 1.343-6.272 1.861-7.607 1.148zm-402.828-.08c0-.145-.225-.264-.5-.264-.846 0-1.752-2.9-1.12-3.586.127-.138.298-1.848.379-3.8l.148-3.548-.666.666c-.518.518-.698 1.028-.814 2.299-.081.899-.241 1.691-.355 1.762-.114.07-.515-.012-.89-.183-.812-.37-1.322-1.856-1.285-3.743.034-1.755.865-2.893 3.057-4.186 1.74-1.026 1.877-1.06 4.763-1.19 2.339-.106 3.183-.046 3.964.282.545.23.992.534.992.678 0 .144.238.261.529.261.347 0 .53.176.53.514 0 .282.11.582.247.666.493.305 1.692 3.213 1.804 4.376.12 1.237-.636 3.649-1.373 4.386-.202.202-.407.459-.457.57-.277.628-2.743 2.42-3.534 2.568-.507.095-.921.287-.921.426s-.213.252-.473.252-.94.239-1.511.53c-1.099.56-2.514.708-2.514.264zm6.284-6.657c1.023-1.277 1.13-2.554.324-3.876-.916-1.502-3.451-2.11-3.795-.91-.151.531-.271 2.958-.21 4.249.025.513.153.807.31.71.147-.09.58.081.962.382.981.772 1.429.669 2.409-.555zM84.219 21.141c.012-.309.075-.371.16-.16.076.19.067.419-.021.507-.088.088-.15-.068-.14-.347zm16.24-.128c-.096-.155-.118-.34-.048-.408.069-.07.196.057.282.282.18.466.027.548-.234.126zm-74.153-1.438c.005-.436.064-.583.131-.325.068.257.063.614-.01.793-.072.18-.127-.031-.122-.468zm-10.614-5.314c.012-.308.075-.37.16-.16.076.192.067.42-.021.508-.088.088-.15-.069-.14-.348zm543.61.243c-.098-.097-.177-.38-.177-.629s-.179-.6-.397-.782c-.477-.396-.548-3.084-.106-4.052.359-.788 1.961-1.603 2.528-1.286.294.165.425.763.48 2.187.043 1.078.164 2.17.27 2.427.257.616-.296 1.253-1.088 1.253-.452 0-.629.148-.629.53 0 .51-.517.716-.882.352zM91.405 7.141c-1.062-1.061-1.171-1.281-1.018-2.05.095-.474.289-.902.432-.95.143-.05.181-.228.084-.397-.097-.17-.083-.224.032-.12.114.103.53.021.922-.182.542-.28.963-.305 1.752-.105.571.145 1.598.25 2.282.235 1.304-.03 3.208.735 3.46 1.39.236.616-.102 1.716-.695 2.267-.612.568-2.978 1.101-4.885 1.101-1.042 0-1.314-.136-2.366-1.189zm300.851-.383c-.896-.407-1.16-.694-1.387-1.515-.387-1.395-.355-2.081.116-2.472.344-.285 3.25-.73 5.063-.776.313-.008 1.188-.431 1.945-.94 1.56-1.05 2-1.138 2.183-.435.071.27.502.657.957.858.913.404 1.044.7.418.941-.292.112-.365.365-.253.876.2.91-.174 1.213-1.778 1.445-.688.1-1.313.283-1.39.408-.186.3-2.197 1.253-3.114 1.476-.4.097-.727.282-.727.412 0 .378-.84.264-2.033-.278zm-232.039-.37c-1.331-.904-2.1-2.96-1.216-3.251.259-.085.884-.34 1.39-.564.768-.342 1.162-.36 2.403-.103 1.478.306 2.518.161 3.78-.525.352-.191.736-.148 1.378.157 1.198.568 1.369.935.693 1.482-.313.253-.687.772-.832 1.155-.146.382-.475.762-.731.844a12.3 12.3 0 00-.997.383c-2.624 1.158-4.575 1.298-5.868.421zm196.349-.818c-1.035-.359-1.563-.891-1.793-1.806-.288-1.147.062-2.011.982-2.425.707-.319 4.164-.857 4.715-.734.1.022.605-.137 1.124-.354 1.017-.424 2.87-.289 3.284.241.41.526.575 2.044.281 2.593-.188.353-.46.487-.806.396-.286-.074-1.14.137-1.895.47-.756.334-1.791.696-2.3.806-.51.109-1.343.4-1.853.647-.737.356-1.092.39-1.74.166z"/></svg>