<svg xmlns="http://www.w3.org/2000/svg" width="1914.369" height="845.717" viewBox="0 0 506.51 223.763"><path d="M264.643.003c-2.334-.039-23.92.27-26.25.376-4.783.217-10.824.248-11.661.059-.495-.112-.96-.09-1.237.056-.244.13-.94.22-1.548.198-.607-.02-1.194-.03-1.305-.018-.11.012-2.293.073-4.849.135-2.556.062-6.076.164-7.824.228-1.747.063-5.208.156-7.69.206-2.483.05-6.245.19-8.36.312-2.115.121-5.802.275-8.193.34-2.39.066-4.819.213-5.395.325-.576.113-1.554.187-2.174.164-.619-.023-1.727.123-2.463.325-.736.201-2.616.451-4.18.555-1.563.104-4.271.336-6.019.516-4.57.47-7.966.766-9.728.848-.845.039-1.688.13-1.874.204-.185.073-1.45.244-2.81.378-1.361.135-2.56.33-2.662.436-.102.104-1.306.287-2.674.405-1.369.119-3.693.364-5.164.545-1.471.18-3.127.376-3.678.433-.552.057-1.38.161-1.84.231-.46.07-1.255.162-1.767.205-.513.042-1.228.179-1.589.302-.36.125-.656.175-.656.114 0-.061-.758.08-1.685.314-.926.234-1.98.425-2.34.425-.361 0-.657.085-.657.19 0 .185-1.015.455-2.006.533-1.446.114-3.01.418-3.01.586 0 .104-.346.19-.769.19-.423 0-.915.094-1.094.208-.178.114-.622.243-.986.286-.364.043-1.038.187-1.498.32-.46.133-1.46.343-2.222.466-.763.123-1.474.37-1.582.548-.135.225-.448.283-1.027.19-.534-.086-1.014-.018-1.336.188-.277.177-1.26.389-2.184.47-.924.081-1.68.235-1.68.342 0 .107-.429.194-.953.194-.523 0-1.298.193-1.722.429-.425.235-.974.428-1.222.428s-.45.085-.45.19c0 .103-.264.247-.586.318-.322.07-1.037.307-1.588.526-.552.218-1.154.415-1.338.437-.183.022-.898.098-1.588.168-.69.071-1.254.205-1.254.299 0 .093-.75.329-1.667.524s-2.309.587-3.093.87c-.784.284-1.727.604-2.095.712-.368.108-1.239.447-1.936.753-.697.306-2.37.886-3.717 1.29s-2.54.886-2.651 1.071c-.111.186-.508.338-.881.338-.374 0-.68.101-.68.226s-.173.159-.385.075c-.212-.084-.553-.017-.759.148-.496.399-1.732.836-2.362.836-.278 0-.506.096-.506.214s-.218.214-.483.214c-.589 0-2.805.82-3.61 1.336-.324.207-.744.377-.934.377-.536 0-2.37 1.285-2.153 1.51.105.109-.026.145-.292.08-.758-.187-6.32 1.727-7.177 2.47-.414.358-.983.652-1.265.652-.28 0-.429.086-.326.192.243.252-.765.494-1.263.303-.213-.082-.18.014.072.213.396.313.384.363-.084.363-.298 0-.542.08-.542.18 0 .098-.385.292-.855.429s-.776.332-.678.432c.168.174-.23.454-2.685 1.885-.573.334-1.14.809-1.26 1.055-.12.246-.604.58-1.077.742-.472.162-1.075.563-1.34.89-.265.329-.605.597-.756.597-.151 0-.622.193-1.046.428-.424.236-.974.429-1.222.429s-.45.09-.45.2c0 .11-.753.694-1.672 1.299-.92.605-1.673 1.15-1.673 1.212 0 .062-.827.698-1.839 1.414-1.011.716-1.839 1.382-1.839 1.48 0 .097-.19.177-.424.177-.234 0-1.024.49-1.756 1.087-1.717 1.402-3.102 2.34-3.456 2.34-.154 0-1.168.64-2.254 1.422-1.086.783-2.315 1.639-2.732 1.902-.435.275-.673.618-.56.807.127.213-.33.639-1.299 1.211-.822.485-1.923 1.433-2.448 2.107-.525.673-1.295 1.4-1.71 1.616-.416.216-.68.47-.589.565.216.224-.654.69-.943.505-.121-.078-.22.046-.22.274 0 .229-.452.766-1.005 1.196-.638.495-.857.811-.602.866.449.095-.882 1.45-1.425 1.45-.172 0-.312.187-.312.417 0 .627-.715 1.51-1.224 1.51a.44.44 0 00-.448.428c0 .236-.113.43-.25.43-.23.003-.466.302-1.774 2.247-.238.353-.403.756-.366.894.037.138-.238.313-.61.39-.418.084-.679.323-.679.62 0 .267-.375.71-.835.987-.46.277-.836.733-.836 1.014 0 .286-.148.453-.335.378-.188-.074-.334.096-.334.39 0 .541-.737 1.834-1.222 2.143-.153.097-.434.58-.625 1.07-.191.492-.509.875-.706.851-.222-.026-.36.426-.358 1.186 0 1.262-.555 2.287-1.119 2.063-.174-.069-.317-.018-.317.114 0 .13-.445.812-.988 1.514-.543.701-1.064 1.731-1.157 2.29-.234 1.405-.338 1.678-.762 2.01-.204.16-.478 1.037-.61 1.95-.152 1.051-.386 1.66-.637 1.66-.257 0-.379.345-.346.97.028.534-.07 1.02-.218 1.078-.147.059-.184.249-.08.423.105.175.027.444-.173.598-.44.34-.4 1.856.048 1.856.177 0 .24.193.145.428-.097.236-.022.428.164.428.206 0 .244.232.097.59-.133.323-.216 1.2-.185 1.947.034.803-.07 1.308-.256 1.234-.401-.159-.092 4.168.321 4.5.186.149.107.34-.208.508-.65.346-.638.624.048 1.11.305.215.405.391.224.391-.18 0-.279.362-.22.803.06.442.115 1.016.115 1.275.003.259.15.527.323.596.204.079.202.327 0 .667-.393.66-.422 1.585-.05 1.585.148 0 .299.833.333 1.85.038 1.128.255 2.1.555 2.485.728.934 1.054 2.197.513 1.983-.328-.13-.375 0-.208.558.12.4.31 1.184.423 1.744.112.56.35 1.017.53 1.017.182 0 .242.145.136.322-.106.177-.038.779.15 1.338.19.56.34 1.209.34 1.443-.003.234.344.812.771 1.285.901.998 1.442 2.01 1.717 3.215.3 1.309.804 2.43 1.156 2.57.594.235 1.415 1.607 1.264 2.113-.102.34.06.589.495.763.356.142.57.309.473.37-.223.143 1.503 2.282 2.204 2.73.292.188.688.342.88.342.191 0 .256.15.146.335-.122.204.078.459.513.654.391.176.712.459.712.629 0 .17.188.312.418.315.23.004.945.456 1.589 1.004 1.447 1.232 3.533 2.738 4.807 3.47.53.304 1.507.868 2.174 1.254.666.385 1.559.758 1.984.83.439.072.701.245.61.4-.156.259 4.157 3.101 4.706 3.101.146 0 .896.362 1.668.804 1.248.714 2.22 1.22 5.76 2.998.527.265 1.133.482 1.347.482.213 0 .868.288 1.456.641.588.353 1.261.642 1.497.643.236 0 .513.14.615.312.24.4 2.317 1.188 3.133 1.188.345 0 .726.2.848.444.121.245.301.393.398.33.098-.062.662.124 1.255.413.592.29 1.33.526 1.641.526.31 0 .65.145.757.322.105.176.404.32.663.32.54 0 1.663.378 2.635.885.367.192 1.232.477 1.922.632.69.156 1.254.34 1.254.41 0 .07.865.311 1.922.536 1.058.226 2.45.592 3.094.815l2.506.866c.735.254 1.628.63 1.986.836.358.206.734.382.838.391.902.079 1.62.246 3.516.82 1.205.364 2.416.663 2.691.663.276 0 .5.088.5.197 0 .108.454.26 1.007.339.553.077.919.232.811.343-.107.11-.07.181.081.156.675-.113 2.39.31 3.193.786.597.355.933.439 1.045.26.116-.181.251-.191.443-.032.38.315 4.137 1.591 4.683 1.591.243 0 .447.12.447.268.004.211.06.212.268.003.284-.286.36-.275 4.576.664l3.344.744c2.313.513 3.797.722 4.144.584.203-.08.37-.055.37.056 0 .166.553.33 1.512.448.087.01.935.208 1.883.439.949.23 1.834.376 1.968.323.134-.053.939.038 1.788.201 1.12.216 1.548.23 1.548.051.004-.176.076-.18.251-.012.135.13.472.248.747.263.276.014 1.254.13 2.174.258.92.126 3.704.316 6.187.421 2.482.105 6.018.287 7.857.403 3.592.227 10.09.126 12.54-.195 2.24-.294 9.554-.868 12.038-.946 1.196-.038 3.528.065 5.183.229 1.656.163 3.461.283 4.013.265 2.38-.075 2.601-.016 2.328.62-.417.968-.865 5.548-.941 9.616-.027 1.432-.133 2.57-.237 2.529-.183-.073-.258 1.53-.285 6.14-.011 1.837-.113 2.302-.523 2.403-.28.069-.504.25-.504.4.004.194.107.18.353-.047.378-.35.35-.083-.385 3.748-.47 2.445-.554 7.228-.19 10.761.178 1.727.142 2.41-.126 2.41-.205 0-.117.164.195.364.48.307.534.625.347 2.057-.14 1.076-.093 1.793.13 1.965.243.187.247 1.019.014 2.707-.185 1.34-.34 2.708-.34 3.039-.002.421-.127.554-.42.444-.23-.086-.174.029.125.255.298.227.645.776.769 1.221.124.445.37.753.544.684.175-.07.317.024.317.208 0 .183.291.52.646.747h-.006c.46.294.997.393 1.864.341 1.511-.09 1.612-.155 1.575-1.014-.027-.592.327-.916 2.397-2.198 1.336-.827 3.093-1.794 3.905-2.147 1.536-.67 2.99-1.556 2.99-1.825 0-.086.524-.523 1.165-.971.641-.448 1.1-.857 1.021-.907-.079-.051.292-.328.825-.615.533-.287 1.155-.85 1.38-1.25.226-.4.505-.69.62-.644.114.045.496-.273.848-.708.352-.434.983-1.062 1.403-1.395.42-.333.762-.816.762-1.074 0-.257.376-.648.834-.869.459-.22 1.25-.821 1.756-1.335.507-.514 1.034-.935 1.172-.935.139 0 .251-.093.251-.205 0-.312 1.379-1.514 2.856-2.491 1.248-.825 2.424-1.81 2.588-2.166.075-.164 1.888-1.459 4.588-3.28a40.81 40.81 0 003.01-2.296c.827-.706 2.069-1.555 2.758-1.889.69-.333 1.254-.772 1.254-.975 0-.203.132-.401.292-.44.3-.074 3.721-2.909 3.721-3.084 0-.054 1.392-1.016 3.093-2.138 1.702-1.122 3.244-2.301 3.428-2.62.388-.675 1.2-1.345 1.49-1.23.11.043.722-.403 1.361-.99.639-.59 1.387-1.233 1.663-1.432.276-.2.689-.602.917-.895.568-.728 1.12-1.244 2.009-1.878.414-.296.752-.658.752-.806 0-.148.491-.591 1.09-.986.6-.395 1.616-1.174 2.258-1.731.642-.558 1.58-1.136 2.087-1.284.506-.149 1.142-.56 1.413-.914.49-.64 2.374-2.108 2.577-2.008.058.029.5-.113.984-.316a11.258 11.258 0 011.922-.56c1.383-.254 11.878-.072 12.025.209.062.118.245.161.408.097.162-.064 4.852-.164 10.42-.222 5.57-.057 10.954-.153 11.965-.213 1.012-.06 4.699-.147 8.193-.195 3.495-.048 8.911-.188 12.038-.312 3.127-.123 7.566-.271 9.865-.33 6.357-.16 11.285-.446 12.874-.749.552-.105 1.831-.257 2.843-.338 1.011-.08 2.098-.233 2.415-.34.317-.107 2.437-.285 4.712-.396 2.275-.111 4.51-.293 4.967-.405.456-.11 2.775-.265 5.152-.342 2.377-.078 5.074-.175 5.993-.217 4.244-.193 8.352-.34 12.039-.433 2.207-.056 5.584-.21 7.505-.34 1.92-.133 4.104-.187 4.852-.121.747.065 1.96.034 2.694-.07.734-.103 2.606-.242 4.161-.307 1.555-.066 3.286-.209 3.846-.318.56-.109 2.147-.25 3.526-.315 2.417-.113 11.279-.984 14.379-1.414.827-.115 2.859-.273 4.514-.353 1.656-.08 3.311-.267 3.679-.418.367-.15 1.769-.37 3.113-.487 1.344-.118 2.623-.309 2.842-.424.219-.116 1-.281 1.736-.367 1.609-.187 5.892-1.136 6.337-1.404.174-.106.776-.192 1.337-.192.923 0 4.057-.576 6.203-1.14.46-.121.949-.203 1.087-.183.138.021.25-.058.25-.176s.274-.214.607-.214c.333 0 1.386-.241 2.339-.536.953-.294 1.861-.535 2.018-.535.157 0 .631-.193 1.056-.428.424-.236 1.124-.429 1.556-.429.431 0 .784-.089.784-.197 0-.109.452-.26 1.004-.338.551-.078 1.003-.207 1.003-.286 0-.08.49-.281 1.087-.448.598-.166 1.161-.363 1.253-.437.394-.316 3.275-1.265 3.467-1.142.117.075.212-.031.212-.234s.127-.32.283-.258c.156.062.71-.173 1.233-.522.522-.35 1.082-.635 1.244-.635.31 0 2.983-1.333 5.714-2.85.89-.493 1.982-1.04 2.424-1.215.443-.175.806-.392.806-.482 0-.09.12-.164.266-.164.442 0 4.855-2.654 11.935-7.175 3.688-2.356 8.471-5.372 10.628-6.703 2.157-1.331 3.922-2.505 3.922-2.609 0-.103.312-.219.693-.257.38-.037.945-.34 1.253-.674.31-.333 1.653-1.307 2.986-2.164 1.334-.857 2.425-1.63 2.425-1.717 0-.087.878-1 1.952-2.028 1.073-1.028 2.164-2.175 2.422-2.55.259-.374.584-.68.723-.68.14 0 .253-.144.253-.32 0-.178.132-.322.294-.322.162 0 .891-.747 1.62-1.66a79.414 79.414 0 012.047-2.47c.396-.445.72-1.032.72-1.305 0-.272.283-.659.628-.859.345-.2.883-.884 1.195-1.52.312-.635.782-1.269 1.044-1.408.263-.14.477-.404.477-.587 0-.398.747-1.818 1.037-1.97.19-.1 1.293-2.382 1.966-4.069 1.344-3.371 1.821-4.863 1.721-5.375-.037-.188.154-.459.423-.602.329-.175.43-.492.31-.968-.112-.44.035-.998.389-1.475.312-.422.474-.865.36-.984-.115-.118-.072-.389.095-.6.91-1.144 2.585-6.988 2.192-7.643-.101-.17-.022-.503.176-.74.37-.443 1.002-5.564 1.272-10.31.151-2.662-.4-6.21-.966-6.21-.154 0-.28-.26-.28-.575 0-.316-.14-.87-.31-1.231-.325-.688-1.279-3.756-1.57-5.048-.092-.412-.293-.942-.446-1.178-1.077-1.66-1.687-2.79-1.687-3.121 0-.213-.15-.447-.335-.52-.183-.073-.334-.367-.334-.655 0-.287-.125-.523-.278-.523-.286 0-.456-.197-1.758-2.034-.417-.59-1.09-1.36-1.496-1.713-.405-.354-.848-.884-.982-1.179-.135-.294-.578-.824-.985-1.177a11.74 11.74 0 01-1.248-1.285c-1.133-1.431-1.818-2.144-2.56-2.665-.429-.301-1.505-1.222-2.392-2.047-2.348-2.183-12.183-8.4-15.22-9.622-.551-.222-1.604-.766-2.34-1.21-1.562-.942-5.494-2.681-7.185-3.178-1.414-.416-2.726-.952-4.519-1.848-.735-.367-1.864-.8-2.508-.96-.644-.162-1.923-.592-2.842-.956-.92-.364-2.048-.777-2.508-.919a22.921 22.921 0 01-1.505-.526l-3.343-1.352c-2.603-1.053-3.064-1.212-5.519-1.906-.643-.182-1.922-.623-2.842-.98-.92-.356-2.048-.74-2.508-.853a16.894 16.894 0 01-1.672-.524c-.46-.177-2.566-.864-4.681-1.526a598.829 598.829 0 01-5.35-1.7c-.828-.271-2.784-.759-4.348-1.083-1.563-.323-2.997-.663-3.188-.755-.19-.092-1.92-.517-3.845-.944-1.925-.428-3.81-.873-4.187-.99-.378-.117-.83-.19-1.003-.16-.384.062-3.008-.38-4.162-.7-.901-.251-3.284-.614-7.524-1.146-4.985-.624-6.012-.74-10.533-1.19a331.122 331.122 0 01-8.36-.949c-2.115-.276-7.006-.708-10.868-.959s-7.244-.506-7.515-.565c-.272-.06-1.626-.157-3.01-.216-1.384-.06-2.892-.165-3.352-.233-.46-.068-1.394-.113-2.075-.1-.682.014-1.33-.068-1.442-.183-.11-.115-1.133-.213-2.271-.216-1.139-.003-3.876-.154-6.083-.334-2.207-.18-4.238-.333-4.514-.337-.276-.005-2.608-.137-5.183-.293-2.575-.156-7.315-.339-10.533-.406-3.219-.067-6.53-.16-7.357-.208-.828-.047-3.236-.15-5.35-.23-2.116-.078-4.222-.228-4.682-.334-.46-.105-1.831-.229-3.048-.275-1.216-.046-2.369-.146-2.56-.222-.524-.208-4.306-.58-6.764-.667-1.196-.042-4.506-.241-7.357-.443-2.85-.201-8.043-.411-11.537-.466l-7.022-.111zM252.93 1.987c.489-.007.851.047.851.163 0 .094 2.445.187 5.434.207 2.989.02 7.127.097 9.196.17 2.518.09 3.762.06 3.762-.09 0-.26 3.596-.115 5.239.211.583.116 1.975.223 3.093.237 1.119.015 2.034.083 2.034.15 0 .173 3.474.122 3.928-.058.205-.08.456-.062.556.042.184.191 3.28.569 4.21.513.276-.016 1.33.101 2.34.261 1.012.16 2.943.347 4.29.415 1.349.068 2.57.17 2.713.227.143.057 1.674.16 3.4.228 1.728.069 3.693.204 4.369.3.704.102 1.359.094 1.534-.019.185-.118.665-.108 1.212.025.89.217 4.7.377 10.823.455 1.745.022 3.093.13 3.093.248 0 .115.207.158.46.096.61-.15 9.621.228 11.745.493.92.115 4.305.315 7.524.445 3.218.13 6.027.33 6.242.444.215.114 1.838.245 3.607.29 1.77.047 3.524.147 3.898.223.375.076 1.61.17 2.747.208 1.135.039 3.269.181 4.74.318 2.801.26 6.058.467 7.59.483.496.006.987.15 1.09.323.129.214.45.27 1.026.178.46-.075 1.714.01 2.784.188 1.071.177 2.46.37 3.088.43.628.058 2.496.258 4.151.445 1.655.187 3.423.337 3.93.334.505-.003.919.092.919.212s.124.17.275.11c.433-.172 4.567.257 6.675.692 4.09.843 4.863.976 5.511.945.37-.018 1.391.201 2.272.487.88.286 2.102.54 2.714.562.611.024 1.808.262 2.659.53a26.3 26.3 0 003.177.743c.896.14 1.832.357 2.08.482.249.125.888.206 1.422.18.533-.026.97.05.97.17 0 .12.263.22.584.22.934.006 3.226.573 3.361.832.068.13.307.237.532.237.225 0 .918.24 1.541.535.623.294 1.54.535 2.036.535.497 0 .981.132 1.078.294.097.161.591.36 1.098.442.507.081 1.701.479 2.653.884.953.405 1.97.736 2.263.736.292 0 .624.096.737.214.114.118.48.215.815.215.334 0 .804.151 1.045.337.45.347 5.025 1.813 5.921 1.898.277.026.672.184.876.351.205.167 1.049.521 1.876.785.828.265 1.731.572 2.007.684.276.111.931.26 1.456.332.56.076 1.026.303 1.127.55.094.231.718.585 1.386.786.668.201 1.506.538 1.862.748.357.21.988.381 1.402.381.415 0 .951.179 1.191.396.24.218.983.51 1.65.65.668.141 1.496.455 1.84.699.344.244 1.361.698 2.26 1.01 2.69.93 2.98 1.054 3.288 1.406.162.185.512.337.778.337.534 0 3.342 1.24 4.798 2.118 2.408 1.452 3.712 2.176 5.72 3.178 1.195.597 2.727 1.48 3.403 1.964.676.483 1.39.878 1.588.878.197 0 .36.075.36.167 0 .091.827.718 1.838 1.392 1.012.674 1.845 1.298 1.845 1.386.002.088.604.594 1.336 1.124.733.53 1.52 1.229 1.75 1.553.228.324.527.589.664.589.136 0 .467.336.736.747.268.411.935 1.11 1.481 1.553.97.786 2.473 2.405 3.629 3.91.316.413.816.991 1.111 1.285.502.5 1.616 2.254 1.807 2.843.046.145.258.534.47.866.213.331.386.702.386.823s.208.476.462.79c1.212 1.49 3.175 8.027 3.214 10.699.004.295.15.437.365.352.425-.169.236 4.332-.357 8.47-.211 1.472-.45 3.255-.533 3.962a357.11 357.11 0 01-.27 2.248c-.065.53-.352 1.687-.638 2.57-.835 2.583-1.588 5.153-1.906 6.502-.436 1.846-1.426 4.726-1.668 4.849-.26.133-.97 1.908-1.308 3.271-.139.562-.43 1.136-.646 1.274-.217.139-.405.546-.405.905-.007.36-.227.894-.49 1.189-.263.294-.49.745-.49 1.002-.006.256-.237.611-.513.788-.276.177-.502.47-.502.651 0 .182-.3.673-.668 1.092-.368.42-.67.953-.67 1.185 0 .232-.147.422-.327.422-.18 0-.427.265-.547.589-.12.324-.403.734-.628.91-.225.177-.57.63-.768 1.008-.198.377-.971 1.263-1.72 1.969-.748.705-1.36 1.343-1.36 1.416 0 .074-.436.54-.969 1.036a29.912 29.912 0 00-1.885 1.967c-.503.585-1.196 1.236-1.539 1.447-.342.21-.622.489-.622.618 0 .13-.565.638-1.254 1.13-.69.492-1.48 1.12-1.756 1.397-.276.276-1.682 1.282-3.125 2.235-1.443.952-2.749 1.938-2.903 2.19-.154.251-.734.585-1.29.743-.554.157-1.192.506-1.416.774-.224.268-.608.488-.853.488s-.445.088-.445.196c0 .108-1.079.854-2.397 1.66-2.364 1.443-6.658 4.109-7.635 4.74a376.06 376.06 0 00-4.005 2.753c-1.927 1.336-3.588 2.43-3.691 2.43-.104 0-.857.387-1.673.86-.817.473-1.882.973-2.367 1.11-.484.138-1.165.522-1.511.853-.346.331-.782.602-.967.602-.186 0-.744.242-1.24.537-.496.294-1.21.535-1.585.535-.376 0-.683.1-.683.223s-.264.403-.586.624c-.739.505-3.979 1.937-4.384 1.937-.167 0-.55.24-.852.535-.335.328-.862.536-1.359.536-.446 0-.932.12-1.08.267-.311.313-1.604.803-2.114.803-.194 0-.799.193-1.343.429-.544.235-1.406.608-1.916.827-.509.219-1.299.467-1.755.552-.456.085-1.467.34-2.247.565-.78.227-1.584.412-1.787.412-.204 0-.77.178-1.258.395-.488.218-1.49.503-2.225.634-.736.132-2.692.541-4.347.91-1.656.368-3.356.701-3.779.74-.794.072-3.37.59-5.417 1.088-.644.157-2.374.39-3.845.518-2.988.26-6.789.687-11.537 1.295-1.747.224-5.171.556-7.609.738-2.437.183-4.77.414-5.183.514-1.378.334-2.616.401-18.14.995-1.655.064-5.342.217-8.192.34-2.851.125-6.011.25-7.023.279-6.07.173-14.81.582-16.385.768-2.127.251-16.653 1.511-18.391 1.595-.644.032-1.998.121-3.01.2-3.643.283-4.265.31-10.199.438-3.31.071-7.75.223-9.864.336-2.115.113-7.609.25-12.208.302-4.6.052-8.587.148-8.861.211-1.067.248-16.782.263-19.806.02-1.704-.137-5.807-.27-9.117-.294-6.884-.051-8.067.14-8.706 1.406-.205.406-.923.954-1.756 1.34-.775.36-1.41.765-1.41.9s-.413.591-.919 1.013c-1.037.864-1.286 1.113-2.321 2.318-.404.469-1.234 1.278-1.845 1.796-.61.518-1.398 1.358-1.75 1.865-.353.508-.915 1.017-1.25 1.132-.334.115-.608.351-.608.525 0 .173-.301.48-.669.682-.368.202-.67.466-.67.587 0 .12-.453.528-1.004.905-.55.376-1.001.786-1.001.91s-.14.226-.312.226-.41.2-.532.443c-.234.472-3.07 2.34-3.552 2.34-.157 0-.286.16-.286.353 0 .194-.64.805-1.42 1.358-1.71 1.208-4.599 3.543-4.599 3.717 0 .068-.667.564-1.482 1.101s-1.784 1.287-2.153 1.668c-.37.38-1.885 1.405-3.367 2.277-1.482.871-2.695 1.696-2.695 1.833 0 .136-.464.552-1.031.923s-.94.768-.83.882c.109.113-.105.268-.475.343-.37.076-.674.219-.674.32 0 .1-.564.57-1.254 1.045-2.075 1.43-2.555 1.816-3.191 2.567-.335.395-.896.916-1.247 1.157-.35.241-.566.513-.478.605.088.091-.11.221-.44.288-.331.068-.886.436-1.233.819-.348.383-.831.773-1.075.868-.245.094-.445.31-.445.481 0 .171-.125.31-.277.31-.153 0-.462.22-.686.489-.224.268-.829.607-1.343.752-.66.188-1.064.532-1.377 1.172-.244.5-.62 1.004-.838 1.121-.216.118-.395.296-.408.396-.007.1-.707.695-1.555 1.324-.848.629-1.541 1.222-1.541 1.32 0 .097-.976.778-2.169 1.513h-.008c-1.193.735-2.397 1.337-2.676 1.337-.465 0-.66-.43-.583-1.283.016-.175-.102-.761-.263-1.302-.513-1.734-.708-3.769-.327-3.412.365.342.171-1.622-.243-2.463-.308-.632-.301-2.462.012-2.462.15 0 .15-.12 0-.268-.247-.245-.351-.931-.539-3.536-.045-.63-.195-.881-.483-.81-.23.056-.418-.044-.418-.224s.15-.268.334-.195c.184.073.334-.058.334-.291 0-.233.178-.46.394-.507.253-.054.287-.194.093-.393-.38-.393-.463-3.612-.094-3.758.152-.06.277-.577.277-1.15 0-.58.166-1.075.376-1.12.271-.058.284-.359.047-1.071-.207-.624-.216-1.453-.025-2.237.207-.846.192-1.269-.047-1.32-.193-.04-.34-.332-.327-.646.021-.521.051-.533.34-.143.25.337.28.28.144-.267l-.347-1.392c-.14-.561-.11-.613.157-.268.26.338.31.238.233-.48-.053-.498-.186-.964-.296-1.034-.11-.07.104-.457.475-.86.37-.402.52-.731.33-.731-.499 0-.649-.69-.244-1.125.25-.27.227-.499-.082-.816-.445-.457-.258-1.272.292-1.272.36 0 .422-.714.08-.933-.379-.243-.453-.963-.113-1.097.173-.07.23-.268.125-.442-.105-.175-.01-.457.212-.628.304-.234.312-.486.03-1.035-.387-.749-.213-1.333.543-1.823.33-.213.347-.39.07-.721-.267-.32-.267-.4 0-.294.237.094.367-.094.367-.53 0-.372.323-.966.717-1.32.445-.4.586-.696.372-.783-.213-.086-.25-.524-.096-1.166.195-.82.153-1.005-.207-.917-.248.061-.45.012-.45-.109 0-.12-.148-.162-.328-.09-.18.071-.608.033-.952-.085-.343-.117-.76-.135-.926-.039-.167.096-1.108.272-2.094.392-1.377.167-2.22.146-3.647-.093-3.327-.556-10.686-.401-17.635.371-3.86.43-16.255.563-17.78.192-.506-.124-.743-.123-.623 0 .117.121-1.45.185-3.961.16-2.664-.026-4.084-.117-3.956-.254.11-.118-.038-.092-.328.059-.435.225-.562.213-.73-.068-.113-.187-.469-.312-.792-.278-.323.034-.78-.016-1.016-.11-.236-.095-1.59-.221-3.01-.28-1.42-.06-2.806-.163-3.082-.23-.276-.068-.802-.104-1.17-.08-.567.036-.592.005-.167-.2.411-.2.366-.223-.252-.137-.414.058-.678.028-.586-.067.23-.237-1.69-.644-3.038-.644-.606 0-1.202-.104-1.324-.231-.123-.128-.574-.176-1.003-.107-.428.07-.872.029-.986-.09-.114-.117-.559-.214-.988-.214-.43 0-.867-.145-.973-.322-.106-.176-.406-.32-.666-.32-.424 0-3.263-.504-4.563-.81a9.433 9.433 0 00-.67-.137c-.65-.075-3.208-.667-3.343-.774-.092-.073-.844-.222-1.672-.332-.974-.128-1.505-.311-1.506-.518 0-.315-.16-.35-1.838-.407-.668-.022-.735-.07-.334-.235.41-.17.372-.21-.21-.211-.942-.004-3.134-.599-3.134-.85 0-.109-.414-.18-.92-.157-.568.025-.89-.06-.84-.22.05-.16-.132-.208-.476-.123-.396.097-.502.046-.368-.178.132-.219-.067-.327-.66-.358-.467-.025-1.015-.127-1.217-.226-.202-.1-1.083-.305-1.957-.456-.873-.151-1.588-.351-1.588-.444 0-.093-.438-.231-.975-.307-.536-.075-1.062-.282-1.168-.459a.45.45 0 00-.528-.189c-.185.073-.737-.137-1.227-.468-.491-.331-.784-.48-.651-.333.133.147.092.267-.09.267s-.425-.189-.54-.42c-.167-.336-.407-.395-1.198-.294-.789.101-1.157.012-1.805-.436-.448-.31-.903-.563-1.012-.563-.108 0-.52-.193-.914-.429-.395-.235-.878-.408-1.073-.384-.195.025-1.149-.192-2.118-.481-1.555-.464-1.674-.543-1.004-.666.595-.109.493-.143-.474-.16-.679-.012-1.329-.12-1.444-.24a.49.49 0 00-.49-.106c-.155.061-.633.02-1.064-.09-.431-.11-.595-.209-.366-.215.23-.007.419-.107.419-.22 0-.115-.226-.152-.502-.084-.318.078-.501-.004-.501-.222 0-.189-.189-.355-.419-.369a10.41 10.41 0 01-.752-.074 12.986 12.986 0 00-.92-.082c-.322-.018-.585-.177-.585-.354a.363.363 0 00-.334-.348l-.696-.054c-.199-.015-.575-.213-.836-.442-.26-.229-.475-.338-.475-.242 0 .096-.225.055-.501-.092-.404-.215-.509-.21-.535.027-.018.162-.154.053-.301-.241-.173-.345-.28-.405-.3-.168-.022.228-.217.324-.515.25-.265-.065-.398-.254-.299-.421.11-.184-.028-.304-.349-.304-.292 0-.625-.24-.74-.533-.115-.294-.344-.481-.508-.416-.409.162-2.267-.567-2.474-.971-.189-.368-2.267-1.291-2.92-1.296-.288-.002-.263-.069.079-.21.407-.17.413-.21.03-.211-.258-.003-.963-.244-1.565-.539-.603-.294-1.24-.535-1.414-.535-.175 0-.41-.217-.524-.482-.172-.402-.26-.429-.536-.16-.262.256-.334.26-.334.024-.003-.163-.344-.515-.757-.783-.974-.63-1.609-1.132-1.596-1.272.024-.372-.033-.402-.284-.149-.228.23-.38.22-.807-.053-.289-.186-.651-.338-.805-.338-.153 0-.561-.24-.907-.535-.345-.295-.832-.535-1.082-.535-.25 0-.455-.097-.455-.214 0-.118-.263-.222-.585-.231-.353-.01-.419-.06-.165-.126.642-.166.141-.5-.515-.344-.5.12-.516.092-.115-.223.343-.27.355-.362.048-.362-.225 0-.344-.12-.265-.267.196-.362-.976-1.083-1.197-.736-.12.187-.17.184-.188-.014-.015-.147-.261-.267-.548-.267-.287 0-.427-.098-.312-.218.116-.12.35-.162.522-.094.171.067.311-.012.311-.176 0-.164-.226-.298-.501-.298-.276 0-.502.086-.502.191 0 .105-.153.131-.34.057-.187-.074-.253-.224-.147-.334.106-.11.032-.199-.162-.199-.195 0-.354-.141-.354-.314 0-.349-1.13-.819-1.461-.607-.117.074-.21-.082-.21-.349 0-.304-.25-.525-.67-.596-.368-.061-.669-.24-.669-.397 0-.158-.195-.363-.435-.457-.24-.094-.954-.605-1.588-1.135-1.313-1.097-1.614-1.266-2.126-1.193-.202.028-.285.019-.19-.022.295-.124-.057-1.783-.377-1.783-.165 0-.3-.174-.3-.386 0-.212-.157-.486-.35-.61-.193-.123-.39-.504-.44-.846-.059-.412-.25-.597-.569-.55-.263.04-.368 0-.232-.087.136-.088.088-.282-.107-.433-.25-.193-.245-.404.019-.72.29-.347.267-.516-.104-.754-.263-.168-.557-.255-.653-.193-.096.061-.294-.208-.439-.6l-.324-.871a3.257 3.257 0 01-.103-.602c-.022-.243-.192-.381-.375-.309-.53.21-.39-.255.19-.626.289-.186.365-.337.168-.337-.198 0-.328-.072-.29-.16.038-.089-.182-.463-.488-.83-.305-.368-.462-.73-.347-.804.115-.073.034-.134-.181-.134s-.39-.282-.39-.627c0-.345-.233-.776-.518-.958-.365-.234-.426-.444-.208-.712.477-.585.084-2.798-.644-3.63-.36-.409-.499-.683-.31-.608.205.081.342-.127.342-.52 0-.36-.114-.655-.254-.655s-.243-.674-.229-1.499c.014-.824-.098-1.499-.247-1.499-.15 0-.273-.666-.273-1.48 0-.853-.15-1.514-.354-1.558-.212-.045-.398-1.024-.464-2.427-.06-1.293-.273-2.617-.474-2.94-.297-.482-.273-.59.13-.59.565 0 .635-.742.187-1.979-.165-.469-.162-.753.013-.684.4.16.375-.056-.07-.589-.232-.278-.24-.39-.022-.303.19.075.44.038.554-.082.116-.12.042-.218-.164-.218-.205 0-.28-.096-.167-.214.114-.117.052-.214-.137-.214-.188 0-.251-.153-.14-.34.135-.225.28-.258.433-.1.126.131.248-.078.27-.464.023-.386.098-1.588.167-2.672s.002-1.921-.15-1.861c-.367.145-.348.013.099-.706.206-.331.396-1.085.421-1.674.025-.589.132-1.167.236-1.284.104-.118.228-.648.276-1.179.048-.53.224-.995.392-1.035.43-.1.383-1.106-.052-1.106-.197 0-.122-.151.167-.336.289-.186.525-.523.525-.75 0-.227.188-.417.418-.42.236-.004.135-.144-.23-.321-.566-.275-.577-.314-.084-.314.343 0 .565-.17.565-.429 0-.235.167-.428.37-.428.205 0 .285-.145.179-.322-.106-.176-.01-.325.215-.328.224-.005.031-.151-.429-.326-.46-.175-.61-.304-.335-.288 1.088.064 1.288-.052 1.506-.879.124-.471.341-.812.482-.756.14.056.428-.141.64-.438.464-.653.48-.796.07-.635-.17.068-.405.026-.52-.094-.118-.122.11-.217.517-.217.57 0 .689-.096.548-.442-.13-.316.024-.494.546-.628.4-.104.521-.196.271-.202-.287-.008-.163-.178.334-.458.435-.244.612-.387.395-.318-.217.07-.49.03-.605-.09-.115-.12.062-.226.395-.235.374-.01.44-.06.173-.128-.337-.086-.344-.178-.033-.418.22-.17.385-.594.37-.944-.022-.514.11-.636.702-.638.528-.002.607-.053.284-.184-.36-.146-.343-.206.084-.311.291-.072.53-.363.53-.647 0-.284.225-.636.5-.782.277-.147.502-.534.502-.86 0-.34.223-.648.523-.722.287-.07.439-.216.335-.323-.186-.193 2.09-2.779 3.094-3.512.632-.463.865-1.222.374-1.222-.194 0-.268-.088-.164-.195.204-.212.81-.199 1.379.03.234.093.307-.081.208-.51-.16-.7 1.05-2.538 1.672-2.538.218 0 .194.123-.064.322-.298.23-.307.321-.033.321.479 0 1.078-.966.843-1.358-.098-.163.209-.453.695-.657.637-.267.812-.479.656-.795-.153-.307-.076-.41.267-.363.264.037.872-.23 1.352-.595.686-.52.786-.72.469-.93-.32-.213-.264-.253.266-.191.442.052.81-.094 1.086-.432.527-.643.53-.625-.167-.742-.447-.075-.41-.104.156-.123.515-.017.684-.123.55-.346-.106-.176-.026-.321.177-.321.204 0 .371-.123.371-.274 0-.15.301-.439.669-.64.368-.202.668-.56.668-.797s.16-.43.354-.43c.195 0 .273-.086.171-.19-.1-.105.118-.24.486-.302.367-.062.886-.434 1.153-.828.267-.394.486-.595.498-.448.019.384.682.332.682-.053a.33.33 0 01.335-.322c.184 0 .334-.16.334-.356 0-.197.093-.297.207-.225.277.178.878-.247 1.381-.975.226-.326.758-.678 1.183-.782.426-.104 1.206-.607 1.735-1.12.528-.512 1.574-1.337 2.324-1.833a42.45 42.45 0 002.366-1.693c1.655-1.306 5.645-3.835 5.951-3.772.156.033.195-.126.082-.352-.151-.306-.05-.403.393-.38.398.02.564-.095.497-.347-.055-.208.026-.353.179-.322.46.094 2.843-1.506 2.607-1.75-.12-.125-.06-.239.136-.254l.772-.058c.23-.017.378-.187.328-.377-.097-.377.78-.692 1.327-.476.212.085.256-.034.115-.32-.133-.268-.08-.455.127-.455.575 0 1.68-.702 1.462-.928-.11-.115-.045-.148.147-.072.191.076.54-.01.774-.19.296-.23.497-.256.658-.09.136.141.467-.08.81-.543.319-.43.662-.73.763-.664.1.064.859-.264 1.684-.73.826-.464 1.626-.796 1.778-.736.152.06.44-.085.639-.323.23-.275.85-.483 1.703-.57 1.03-.106 1.458-.282 1.843-.759.275-.34.645-.563.82-.494.177.07.339-.095.36-.367.028-.354.081-.39.19-.125.166.405.496.293 1.838-.62.375-.256 1.041-.522 1.48-.593.44-.07.8-.223.8-.338 0-.116.368-.21.817-.21.449 0 .908-.096 1.02-.213.117-.121-.017-.157-.315-.083-.285.07-.519.02-.519-.11 0-.209.69-.336 1.421-.262.139.014.251-.07.251-.187 0-.116.6-.273 1.332-.348.732-.075 1.25-.22 1.15-.324-.099-.103.026-.187.278-.187s.75-.168 1.106-.374c.357-.207.8-.376.983-.376.647-.003 3.174-1.074 3.174-1.347.003-.153.191-.25.422-.216.23.034.887-.151 1.459-.412.572-.261 1.126-.42 1.23-.352.106.067.54-.09.966-.35 1.267-.773 2.304-1.151 3.238-1.18 1.173-.037 2.092-.305 2.803-.818.322-.233.585-.312.585-.176 0 .365.452.301 1.254-.177.39-.233 1.175-.446 1.743-.474.606-.03.971-.15.887-.292-.091-.154.15-.206.66-.144.618.076.812.006.812-.3.003-.301.075-.33.288-.115.23.233.318.226.475-.036.117-.195.528-.298 1.042-.262.587.041.91-.063 1.047-.338.117-.238.51-.399.972-.399.517 0 .844-.16.986-.482.193-.44.25-.45.642-.123.37.307.475.313.747.048.325-.32.685-.393 3.827-.78 1.012-.126 1.65-.27 1.42-.32-.232-.051-.335-.181-.231-.29.111-.115.474-.098.879.04.455.156.614.16.471.012-.278-.288.842-.674 1.954-.674.472 0 .858-.097.858-.215 0-.117.385-.214.855-.214.561 0 .774-.084.617-.247-.14-.145-.093-.19.117-.107.195.078.707.05 1.138-.06.463-.119.578-.213.282-.23-.346-.02-.294-.083.167-.207a4.12 4.12 0 011.384-.075c.394.058.817 0 .94-.127a.89.89 0 01.558-.231c.184 0 .242.096.128.214-.345.356.15.24.913-.214.395-.236 1.028-.43 1.407-.432 1.205-.005 2.153-.245 1.997-.505-.083-.138.305-.361.861-.496.69-.167.942-.172.79-.015-.147.153.048.18.584.083.442-.08 1.515-.205 2.384-.277.869-.072 1.5-.214 1.402-.315-.099-.102.118-.185.482-.185.363 0 .737-.12.83-.268.094-.152.179-.095.194.13.018.27.194.357.555.268a5.19 5.19 0 011.023-.13c.27 0 .408-.09.302-.2-.106-.11-.04-.26.148-.334.186-.074.34-.024.34.11 0 .15.354.201.92.133.505-.06 1.631-.17 2.503-.244.871-.073 1.777-.257 2.014-.408.249-.16 1.678-.33 3.386-.405 3.088-.134 3.692-.257 2.87-.586-.347-.138-.126-.188.749-.167.682.015 1.161.109 1.067.208-.096.099.052.18.328.18s.589-.09.695-.2c.106-.11 1.055-.362 2.11-.56 1.443-.27 2.143-.305 2.836-.14.527.126.92.136.92.024 0-.107.112-.176.25-.153.512.087 1.76-.294 1.76-.539.004-.165.106-.151.295.04.235.238.516.245 1.488.04.659-.14 1.643-.209 2.186-.154.544.055 1.27-.027 1.615-.182.345-.154 1.222-.253 1.95-.22.727.033 2-.106 2.828-.31 1-.244 1.812-.313 2.424-.203.867.154 1.052.1.96-.28-.023-.09.11-.162.294-.162s.335.102.335.227.152.166.339.092c.193-.074.268-.209.18-.3-.088-.091.624-.174 1.583-.183 2.926-.03 3.74-.092 3.951-.305.38-.384 2.472-.526 6.737-.46 2.65.042 4.263-.013 4.263-.144 0-.117.377-.212.836-.212.46 0 .837.097.837.215 0 .117.159.214.353.214.195 0 .252-.106.127-.236-.16-.166.328-.2 1.652-.113 1.034.067 1.88.053 1.88-.032 0-.085 1.92-.161 4.265-.166 2.344-.007 7.196-.094 10.783-.195 3.586-.1 7.234-.178 8.106-.173.872.006 1.524-.052 1.45-.129-.073-.078 1.095-.114 2.596-.084 1.667.034 2.55-.017 2.27-.133-.315-.13 0-.218 1.003-.283.804-.052 1.547-.015 1.65.083.102.097 1.277.198 2.609.223 1.817.036 2.508-.032 2.764-.268.26-.24.382-.25.512-.046.093.148.284.224.423.17.139-.056 4.124-.158 8.855-.227 4.732-.07 8.98-.218 9.438-.33a7.743 7.743 0 011.612-.197zm-27.572.878c-.152 0-.303.015-.418.044-.23.06-.042.108.418.108.46 0 .648-.048.418-.108a1.764 1.764 0 00-.418-.044zm-16.413.213a.573.573 0 01.272.058c.11.071-.087.122-.44.113-.39-.01-.469-.062-.202-.13.12-.031.254-.044.37-.041zm-29.9 1.258c-.277 0-.502.093-.502.207 0 .114.225.152.501.084.276-.067.502-.16.502-.207 0-.046-.226-.084-.502-.084zm1.476.026a1.39 1.39 0 00-.369.042c-.267.068-.187.118.202.13.353.009.55-.042.439-.113a.576.576 0 00-.272-.059zm-38.79 4.284a1.392 1.392 0 00-.369.041c-.266.069-.187.118.202.13.353.009.55-.042.44-.113a.575.575 0 00-.272-.058zm-11.675 1.072c.152 0 .303.015.418.045.23.059.042.108-.418.108-.46 0-.648-.049-.418-.108.115-.03.267-.045.418-.045zm-28.758 6.639c.152 0 .303.015.418.044.23.06.042.108-.418.108-.46 0-.648-.048-.418-.108.115-.03.267-.044.418-.044zm-11.83 3.688c-.108-.014-.332.084-.536.241-.263.204-.288.326-.067.326.404 0 .876-.406.644-.554a.095.095 0 00-.04-.013zM66.375 28.75c.08 0 .147.096.147.214 0 .117-.16.213-.354.213-.195 0-.261-.096-.147-.213.113-.118.273-.214.354-.214zm187.345 3.03c-2.309 0-2.456.034-2.977.697-.762.967-.718 2.332.101 3.15 1.204 1.205 4.253.721 6.013-.953 1.235-1.175 1.268-1.687.15-2.369-.691-.421-1.333-.524-3.287-.525zm-75.81 1.976c-.16.012-.313.052-.45.126-.303.162-1.51.369-2.683.459-1.744.135-2.201.264-2.515.712-.566.808-.489 2.443.145 3.076.687.687 1.793.67 3.367-.049 3.537-1.618 4.07-1.902 4.285-2.284.483-.863-1.03-2.13-2.15-2.04zm-121.91.433c-.101.015-.23.122-.324.28-.182.305-.143.33.187.12.229-.145.332-.318.229-.384-.026-.016-.057-.022-.091-.016zm274.722 2.623c-2.885.01-3.957.679-6.288 3.926-.51.712-1.044 1.129-1.587 1.242-2.153.447-2.36 1.094-1.451 4.508.306 1.15.709 2.926.895 3.945.396 2.173.904 3.576 1.458 4.026.614.498 1.794.397 2.638-.226.736-.545.804-.55 1.847-.132.595.238 1.266.433 1.49.433.225 0 1.06.297 1.855.661.795.364 1.591.663 1.769.665.178.003.799.176 1.38.386 1.677.603 3.112.514 3.931-.245 1.32-1.223.82-2.5-1.284-3.285-.728-.271-2.186-.896-3.241-1.388-1.534-.717-1.919-1.013-1.919-1.481 0-.323.235-.712.521-.866.287-.153.923-.805 1.416-1.45 1.085-1.422 1.801-4.7 1.277-5.85-.167-.367-.303-.878-.303-1.136 0-.786-.88-2.308-1.758-3.043-.723-.605-1.07-.695-2.646-.69zm64.424.346c-.766 0-1.391.25-2.348.748-3.23 1.682-4.922 4.336-4.695 7.367.09 1.2.269 1.634 1.017 2.473.499.56 1.443 1.284 2.098 1.608 1.23.608 5.25 1.85 6.879 2.124.51.086 1.209.374 1.554.64.605.465.612.508.183 1.162-.245.374-.885.852-1.422 1.063-2.912 1.144-5.662 1.22-7.31.2-1.1-.68-1.868-.682-2.723-.01-.416.328-1.073.53-1.721.53-.577 0-1.424.168-1.883.373-1.283.575-3.279.677-4.743.242-1.576-.468-4.425-3.146-4.425-4.16 0-.565.146-.63 1.786-.798 3.191-.325 4.074-.627 6.483-2.218 1.319-.87 1.347-1.987.065-2.615-.804-.395-5.736-.05-8.638.603-.566.128-.738.044-.888-.429-.39-1.23.288-1.777 3.418-2.755 1.613-.504 3.432-1.044 4.042-1.2 1.628-.417 1.807-1.872.327-2.664-.847-.453-3.968-.615-5.505-.286-1.05.225-1.816.225-3.058-.005-.912-.167-1.977-.225-2.367-.127-1.666.418-2.438 3.701-2.025 8.615.281 3.346.148 3.938-1.1 4.86-.674.5-.747.504-1.39.084-1.91-1.252-2.864-4.728-2.658-9.691.15-3.638-.077-4.564-1.159-4.719-2.145-.307-2.759.82-2.789 5.116-.04 5.663.524 8.287 2.414 11.24.552.864 1.372 1.77 1.822 2.015 1.18.643 3.11.4 4.572-.577 2.644-1.766 2.156-1.818 4.463.48 1.129 1.126 2.126 2.11 2.214 2.19.088.078.803.369 1.587.646 1.744.614 2.352.613 5.45-.01 2.673-.537 3.997-1.014 4.999-1.802.655-.515.66-.515 2.043.118 2.566 1.174 5.505 1.265 9.617.298 3.897-.917 6.438-3.277 6.438-5.981 0-1.017-1.257-2.474-2.598-3.01-1.68-.673-1.783-.988-.856-2.63.914-1.62 1.007-2.694.392-4.502-.58-1.699-2.223-3.15-4.367-3.855-1.521-.5-2.428-.75-3.195-.751zm-86.736 1.28c-1.666.008-3.189.827-3.612 2.185-.094.302-.524 1.044-.956 1.65-1.085 1.519-1.53 3.763-1.672 8.424-.098 3.2-.04 4.187.3 5.093.587 1.57 1.26 1.509 2.942-.27.725-.767 1.367-1.539 1.428-1.715.06-.176 1.06-.5 2.224-.721 1.164-.22 2.744-.545 3.51-.72 1.168-.267 1.454-.256 1.77.066.519.528 3.32 6.835 3.32 7.475 0 .82 1.009 2.239 1.795 2.526 1.007.369 1.185.358 1.85-.107.966-.677.806-2.432-.444-4.86-.567-1.102-1.237-2.66-1.488-3.46-1.841-5.864-4.393-11.272-6.217-13.173-.658-.686-1.773-1.53-2.478-1.876a5.117 5.117 0 00-2.272-.517zm-155.19.335c-.917.003-1.594.18-2.967.613-1.003.317-1.765.823-2.764 1.835-1.458 1.476-1.957 2.644-2.244 5.255-.13 1.178-.063 1.434.563 2.178.62.737.74 1.188.947 3.56.513 5.87.864 7.028 2.261 7.452 1.3.395 2.923-2.248 2.267-3.69-.3-.657-.439-3.295-.174-3.295.073 0 1.153.834 2.399 1.853 1.246 1.018 2.409 1.852 2.584 1.852.175 0 1.15.607 2.165 1.35 1.016.744 2.128 1.46 2.472 1.593.344.133 1.713.772 3.043 1.42 1.33.65 2.61 1.182 2.845 1.186.726.011 1.821-1.038 1.821-1.745 0-.491-.218-.747-.865-1.018-.476-.199-1.09-.61-1.364-.913-.274-.303-.615-.55-.756-.55-.142 0-.748-.417-1.348-.926-1.707-1.449-1.793-1.52-3.831-3.146-1.06-.845-1.99-1.7-2.066-1.901-.077-.201.408-.99 1.081-1.76 1.282-1.464 1.666-2.382 1.916-4.575.127-1.113.02-1.616-.657-3.11-.444-.979-.925-1.78-1.068-1.78-.144 0-.611-.295-1.04-.655-.618-.52-1.255-.709-3.109-.92-.925-.105-1.562-.165-2.112-.163zm80.408.075c-3.487.04-4.644.928-4.82 3.701-.227 3.553.965 6.055 3.737 7.846 2.757 1.78 3.43 2.82 2.191 3.384-.98.446-2.358.054-3.908-1.116-1.04-.784-1.61-1.039-2.197-.983-.717.068-.803.176-.879 1.108-.046.569-.019 1.296.062 1.616.182.725 3.17 2.524 4.883 2.941.674.164 1.366.26 1.538.214.172-.046 1.056-.169 1.965-.272 1.542-.174 1.739-.276 2.96-1.536.72-.743 1.412-1.624 1.54-1.958.517-1.361-1.417-3.804-4.692-5.925-1.7-1.1-2.413-1.893-2.995-3.33-.31-.765-.296-.926.122-1.388.97-1.072 3.32-.479 3.673.926.224.896 1.347.884 2.38-.025.598-.524.797-.962.893-1.959.11-1.137.041-1.359-.594-1.948-.915-.848-3.082-1.327-5.86-1.296zm53.745.12c-.616-.03-.864.145-1.563.758-.93.818-2.014 2.525-2.014 3.176 0 .162.477.768 1.059 1.344.582.576 1.065 1.132 1.065 1.235.004.104.24 2.51.523 5.348.284 2.838.554 5.719.601 6.403.05.74.284 1.462.577 1.786.581.643 1.217.685 2.25.15.986-.509 1.026-.657.888-3.312-.064-1.236-.02-2.369.099-2.516.244-.304 1.964-1.407 3.087-1.98 1.189-.607 3.314-3.11 4.16-4.9 1.146-2.426 1.043-3.01-.915-5.162-1.283-1.412-3.432-2.162-5.986-2.092-.946.027-2.324-.04-3.063-.149a8.373 8.373 0 00-.769-.089zm-37.754.304c-1.423-.007-1.943.423-3.164 1.546-.789.724-1.121 1.385-1.846 3.661-.798 2.51-.88 3.061-.848 5.714.038 3.19.311 4.3 1.667 6.778.884 1.615 2.846 3.543 3.793 3.728 1.723.335 4.509.16 5.819-.367 2.766-1.113 3.107-1.31 3.408-1.97.44-.967-.156-1.482-1.661-1.436-3.549.108-4.229.036-5.465-.577-1.349-.67-2.451-2.036-2.451-3.04 0-.843.79-1.287 3.44-1.933 2.75-.672 3.907-1.237 4.339-2.12.825-1.69-.471-2.286-4.364-2.01-1.432.102-2.846.108-3.142.014-.694-.22-.71-1.305-.035-2.412.547-.896 1.342-1.162 3.471-1.162.694 0 2.03-.237 2.967-.527 1.313-.406 1.776-.685 2.02-1.22.56-1.231-.278-1.693-4.066-2.235-1.85-.266-3.028-.428-3.882-.432zm-29.608.204c-.486.014-.983.198-1.43.55-.694.545-.722.652-.565 2.183.09.885.281 2.86.425 4.387.5 5.344 1.524 8.676 3.318 10.808.918 1.09 1.384 1.052 1.893-.158.352-.837.367-1.18.093-2.183-.565-2.076-.848-4.304-1.539-12.14-.187-2.125-.306-2.554-.828-2.977a2.056 2.056 0 00-1.367-.47zm-13.234.316a3.258 3.258 0 00-.5.062c-.511.095-1.124.347-1.361.56-1.566 1.404-1.983 10.599-.683 15.046.379 1.293 1.846 3.782 2.502 4.241.264.185.774.396 1.134.47 1.53.31 5.005-.376 7.886-1.558 2.022-.83 2.69-1.449 2.69-2.492 0-.573-.154-.775-.69-.91-.922-.23-2.884.082-4.293.684-1.47.63-2.345.618-3.428-.042-2.18-1.329-3.031-7.206-1.888-13.02.343-1.748.338-1.792-.295-2.465-.407-.433-.649-.587-1.074-.576zm-15.19.454c-.777 0-4.356 1.874-4.659 2.439-.166.311-.462 1.586-.658 2.834a165.21 165.21 0 01-.813 4.649c-.803 4.177-.55 7.204.642 7.661.213.082.847.026 1.409-.126.85-.228 1.107-.47 1.535-1.438.567-1.28.467-1.246 4.549-1.59 1.58-.133 1.79-.09 2.32.475.322.342.694.968.828 1.392.741 2.343 1.034 2.856 1.894 3.314 1.254.668 1.45.625 2.206-.49.71-1.043.878-2.403.362-2.919-.448-.448-1.01-2.178-1.01-3.133-.002-.537-.324-1.226-.927-1.984-.508-.64-.926-1.437-.926-1.772-.003-.605-3.135-6.608-3.945-7.56-.573-.673-2.301-1.752-2.807-1.752zm-20.657.437c-1.242.022-2.51.262-2.873.64-1.04 1.082-2.16 7.956-1.743 10.697.483 3.177 2.182 6.362 3.766 7.058l1.749.77c1.262.554 4.515.386 6.796-.351 1.685-.545 1.879-.682 2.153-1.525.553-1.695-.417-2.53-1.97-1.694-2.601 1.398-7.305-.518-7.516-3.061-.072-.867-.025-.921.983-1.134.582-.123 1.713-.27 2.513-.33.8-.057 1.991-.264 2.646-.458 1.09-.324 1.198-.432 1.27-1.283.11-1.295-.526-1.777-2.748-2.087-1.006-.14-2.34-.404-2.964-.585-.903-.263-1.242-.263-1.66-.003-.674.421-.939-.124-.581-1.196.267-.804.388-.837 5.038-1.383 2.458-.29 4.988-.982 5.672-1.554 1.043-.872-1.065-2.209-2.577-1.634-.827.315-3.863-.029-5.948-.673-.525-.162-1.26-.228-2.006-.215zm158.855.435a1.8 1.8 0 01.443.042c1.068.21 1.483.685 1.716 1.961.236 1.289-.21 2.167-1.742 3.43-1.152.949-2.696 1.143-3.3.415-.598-.72.336-3.699 1.553-4.95.623-.642.933-.876 1.33-.898zm65.515.284c.59-.026 1.184.148 1.91.516 1.661.842 1.994 1.48 1.893 3.629-.076 1.614-.117 1.713-.741 1.75-.724.045-3.001-.6-4.567-1.294-1.765-.782-1.97-2.947-.37-3.923.703-.429 1.286-.653 1.875-.678zm-315.729.08c-2.749-.016-4.565 1.266-6.035 4.26-.974 1.983-1.035 4.737-.138 6.19.665 1.075 3.11 2.87 5.14 3.774 2.087.93 3.117 2.283 3.117 4.095 0 1.216-.838 1.724-3 1.82-1.567.07-2.05-.013-2.792-.478l-.896-.561.147-1.94c.135-1.787.097-1.988-.467-2.517l-.612-.575-1.073.71c-1.577 1.043-1.825 2.089-1.207 5.093.262 1.273 2.435 3.173 4.342 3.796 1.273.417 5.069.11 6.255-.504 1.34-.694 2.724-2.384 2.914-3.56.22-1.347-.36-3.908-1.185-5.237-.41-.66-.696-1.345-.636-1.524.06-.18.625-.681 1.256-1.115 2.109-1.451 2.779-4.062 1.7-6.624-1.385-3.288-3.791-5.085-6.83-5.103zm29.776.037c-1.18-.005-2.202.118-2.369.285-.161.162-.768.294-1.349.294-1.736 0-4.16.563-5.87 1.364-.886.414-1.73.753-1.878.753-.915 0-1.722 2.36-1.164 3.403.375.7.69.706 2 .038.997-.508 1.664-.66 2.527-.572.35.035.405.714.394 4.87-.013 4.497.028 4.915.59 6.085.673 1.404 1.391 1.634 2.441.784.876-.709 1.123-2.338 1.16-7.684.033-4.473.075-4.879.549-5.226.827-.605 1.926-.47 2.43.3.366.558.414 1.092.281 3.117-.18 2.757.333 6.7.997 7.648.225.321.408.836.408 1.145 0 .309.239.777.53 1.04.29.264.529.626.529.804 0 .371 1.88 1.967 3.009 2.554 1.109.577 3.164.316 5.06-.644.874-.441 2.202-1.101 2.953-1.466 1.27-.617 1.377-.743 1.54-1.831.312-2.076-.875-2.429-2.736-.814-1.605 1.392-3.065 1.62-4.776.748-1.35-.688-2.242-1.796-2.665-3.306-.468-1.671-.264-1.836 3.44-2.77 2.52-.634 3.118-.885 3.622-1.515.333-.415.605-.85.606-.967.002-.427-1.875-.979-3.364-.988-1.851-.011-4.576-.627-4.868-1.1-.33-.534.333-1.288 1.492-1.696 1.168-.41 1.12-.401 5.483-1.063 2.64-.4 3.133-.55 3.275-.997.195-.614-.632-1.405-1.72-1.644a29.895 29.895 0 01-1.935-.542c-.838-.263-2.429-.391-4.895-.394-2.01-.003-4.587-.008-5.727-.013zm44.43 1.27c2.136-.044 3.446.62 3.817 1.955.445 1.597.317 2.243-.641 3.229-.909.935-1.834 1.269-3.52 1.269-.688 0-1.092.198-1.614.794-.383.436-.776.793-.874.793-.349 0-.499-.869-.499-2.896 0-1.659-.102-2.19-.529-2.732-.29-.37-.529-.785-.529-.921 0-.581 1.049-1.09 2.778-1.346.58-.086 1.117-.134 1.61-.144zm-62.092.135c-1.28.064-1.66 1.058-1.857 3.937-.188 2.733.193 9.216.567 9.668.128.154.305.81.394 1.457.089.648.417 1.753.729 2.456.53 1.198.617 1.27 1.358 1.121.436-.087.882-.304.992-.483.368-.593.558-3.14.368-4.92-.103-.968-.177-2.027-.177-2.354.004-.327 0-.953-.01-1.39-.076-3.29-.026-4.862.205-6.395.316-2.106 0-2.727-1.53-3.004a4.662 4.662 0 00-1.04-.093zm199.147.28c.273-.016.655.062 1.326.223 1.824.438 2.751 1.125 2.751 2.039 0 .929-1.132 2.345-2.386 2.984-.568.29-1.332.527-1.699.527-.772 0-.864-.268-1.05-3.082-.11-1.634-.056-1.954.389-2.357.234-.211.397-.32.67-.335zm17.693.124c.749-.047 1.835.928 2.935 2.648.962 1.504 1.125 2.157.58 2.328-1.33.42-4.069.298-4.903-.218-.898-.555.122-4.443 1.242-4.736a.77.77 0 01.146-.022zm-117.026 1.97c.119.02.242.147.444.393.249.303.797 1.409 1.22 2.458.962 2.389.77 2.71-1.424 2.366-.79-.123-1.496-.283-1.568-.355-.265-.265.519-4.233.912-4.62.182-.178.297-.263.416-.243zm-111.932.031c.843-.002 1.565.38 2.258 1.16 1.25 1.403 1.312 2.085.38 4.16-.436.972-.887 1.76-1.002 1.75-.841-.068-3.273-1.292-3.98-2.002-.89-.895-1.03-1.56-.688-3.271.14-.699.394-.957 1.36-1.385.615-.272 1.165-.41 1.672-.412zm-53.82 10.405c.194 0 .26.096.146.214-.113.118-.273.214-.354.214-.08 0-.147-.096-.147-.214s.16-.214.354-.214zm-1.044 1.07c.195 0 .354.097.354.215 0 .117-.066.214-.147.214-.081 0-.24-.096-.354-.214-.114-.118-.047-.215.147-.215zm-2.3 2.785c-.196 0-.355.096-.355.214 0 .117.066.214.147.214.081 0 .24-.097.354-.214.114-.118.048-.214-.147-.214zm-1.732 2.2c-.076-.012-.255.046-.462.155-.276.147-.502.358-.502.47 0 .112.226.059.502-.118s.501-.388.501-.47c0-.02-.014-.032-.04-.037zM97.002 75.49c-.367-.014-.93.055-1.9.197a204.97 204.97 0 01-3.692.506c-1.773.219-2.236.55-2.463 1.76-.19 1.01.332 2.305 1.107 2.753.611.353 1.036.214 4.198-1.378 1.894-.954 2.853-1.607 3.284-2.236.556-.811.573-.924.189-1.308-.185-.185-.356-.28-.723-.294zm-37.686.533a34.55 34.55 0 00-1.774.078c-2.699.176-3.014.253-3.579.862-.865.933-.945 2.7-.162 3.568.59.652 2.067.582 3.356-.16.594-.341 1.944-.956 3-1.364 1.83-.709 1.918-.782 1.918-1.595 0-1.052-.582-1.417-2.759-1.39zm217.435.88a.914.914 0 00-.576.188c-.673.558-1.068 1.855-1.111 3.647-.09 3.69-.028 4.177.592 4.755.351.327.862.52 1.257.473.558-.065.717-.29.99-1.399.415-1.679.724-5.692.506-6.561-.158-.63-.993-1.114-1.658-1.103zm159.428.124c-1.555.01-2.586 1.087-3.721 3.438-.598 1.237-1.259 2.445-1.469 2.684-.21.24-.448 1.08-.53 1.867-.117 1.138-.032 1.656.414 2.53.308.605.56 1.279.56 1.498 0 1.062.93 2.203 2.863 3.51 1.118.757 2.33 1.493 2.694 1.638.928.368 3.395.336 4.498-.059.509-.182 1.556-.743 2.326-1.245 2.254-1.471 3.132-3.9 2.577-7.132-.505-2.936-3.024-5.803-6.709-7.636-1.447-.72-2.57-1.098-3.503-1.093zm27.613.17c-.406.015-.703.315-1.112.979l-.515.834.673 2.248c.775 2.591 1.115 6.403.624 6.995-.439.53-.99.275-2.527-1.162-.728-.68-1.86-1.578-2.514-1.995-.655-.416-1.786-1.314-2.514-1.994-3.084-2.884-5.282-3.858-6.749-2.99-1.066.629-1.198 1.573-.686 4.896.232 1.503.465 4.05.518 5.661.107 3.278.484 4.249 1.712 4.408.858.112 1.34-.092 2.034-.857.428-.474.55-1.077.658-3.265l.132-2.685.794-.067c.808-.067 1.028.068 5.191 3.18 5.344 3.996 5.556 4.055 7.478 2.088l1.292-1.322-.167-2.072c-.221-2.761-.587-5.168-1.079-7.099-.222-.873-.405-1.928-.408-2.345-.006-1.081-1.009-2.722-1.94-3.173-.37-.179-.652-.272-.895-.263zm-102.354.119c-.874-.014-1.346.133-2.319.578-1.94.888-3.635 2.616-4.416 4.5-.364.878-.79 1.51-1.018 1.51-.216 0-1.233-.613-2.26-1.362-3.14-2.291-8.023-3.229-11.477-2.203-1.707.507-2.69 1.326-3.514 2.933-.545 1.061-.644 1.618-.628 3.526.026 3.026.158 3.27 3.869 7.187.587.62 1.802 1.239 3.048 1.553 3.24.817 8.268-.771 11.492-3.63.862-.764 1.812-1.39 2.112-1.39.3 0 1.056.447 1.68.993 1.522 1.33 4.663 2.85 6.646 3.214 4.339.797 4.544.801 7.116.162 3.243-.807 3.395-.804 4.43.105 1.055.927 2.348 1.085 3.317.407.813-.57.738-1.477-.236-2.859-.788-1.119-.829-1.305-.936-4.307-.167-4.692-.431-5.877-1.54-6.908-1.188-1.104-2.003-1.106-2.928-.006l-.719.854.124 4.048c.119 3.905.102 4.07-.467 4.684-.773.834-2.264 1.213-4.192 1.064-2.856-.22-5.456-1.25-7.215-2.86-1.65-1.507-2.205-2.432-2.205-3.672 0-2.434 1.271-4.178 3.044-4.178 2.162 0 3.778.71 5.464 2.401 1.995 2.002 2.805 2.043 3.275.169.138-.55.02-.98-.47-1.718a54.483 54.483 0 01-1.207-1.91c-.303-.51-.803-1.081-1.111-1.27-1.045-.64-3.827-1.396-5.718-1.554-.414-.035-.75-.057-1.041-.061zm-47.939 1.31c-1.483.029-3.164.34-4.251.885-1.717.86-3.562 2.522-4.128 3.716-1.066 2.247-.09 4.875 2.648 7.134.987.814 1.878 1.48 1.98 1.48.478 0 .458.943-.039 1.746-.37.595-.491 1.093-.37 1.492.265.877 1.459 2.054 2.089 2.059.3.002.724.119.942.26.219.141 1.112.259 1.985.26 1.764.005 3.863-.904 5.218-2.26.635-.634.707-.866.564-1.811-.17-1.126-.737-2.01-1.29-2.01-.176 0-.604-.223-.952-.497-.347-.273-1.373-.705-2.28-.96-.906-.254-1.784-.626-1.95-.825-.165-.2-.507-.364-.758-.364-.669 0-2.612-1.379-3.2-2.271-.806-1.224-.667-2.048.48-2.839.546-.376 1.574-.813 2.284-.97 1.256-.28 1.322-.263 2.456.62 1.272.992 1.956 1.012 2.611.077.839-1.197.152-3.532-1.31-4.453-.542-.342-1.576-.49-2.729-.468zm16.15.403c-1.715.033-3.932.65-6.389 1.857-1.604.788-2.012 1.122-2.343 1.912-.592 1.417-.346 3.47.574 4.799.681.983.73 1.21.577 2.677-.12 1.15-.062 1.804.208 2.313.474.894 1.978 2.082 3.263 2.577 1.613.62 4.608.326 6.112-.601.993-.612 1.241-.918 1.308-1.612.07-.706-.092-1.017-.926-1.784-.555-.51-1.367-1.26-1.803-1.664a17.969 17.969 0 00-1.72-1.37c-2.26-1.545-3.175-2.478-3.175-3.235 0-.472.17-.806.463-.91.255-.09.642-.31.86-.487.744-.606 2.342-.714 3.578-.242 2.071.79 3.304-.095 2.928-2.102-.273-1.452-1.571-2.165-3.515-2.128zm85.588.104c-2.485-.008-4.73.023-5.665.103-1.756.152-4.319.728-4.492 1.01-.075.12-.345.219-.6.219-.614 0-1.622 1.39-1.622 2.238 0 .854.943 1.832 1.543 1.6.861-.334 4.4-.617 4.83-.386.315.168.521.911.746 2.69.172 1.351.419 2.814.55 3.25.13.437.372 1.475.535 2.306.225 1.148.49 1.674 1.094 2.183.983.827 1.485.84 2.636.067 1.158-.778 1.317-1.914.461-3.299-.448-.725-.683-1.699-.905-3.763-.285-2.651-.274-2.814.237-3.38.498-.553.758-.596 3.624-.596 2.607 0 3.153.072 3.502.463.32.358.44 1.306.533 4.167.136 4.255.432 5.451 1.65 6.669 2.061 2.061 4.279.187 2.88-2.435-.366-.685-.4-1.482-.245-5.777.177-4.92.172-4.995-.435-5.887-.337-.496-.97-1.016-1.407-1.155-.503-.16-5.309-.275-9.45-.287zm-23.985.144c-1.615-.003-1.718.037-2.532.978-.466.54-1.03 1.374-1.252 1.853-.222.478-.92 1.896-1.553 3.149-1.14 2.256-1.148 2.292-.844 3.704.169.784.377 2.07.463 2.858.157 1.446.824 2.636 1.67 2.98.916.374 1.692.197 2.445-.556.426-.425.774-.994.774-1.264 0-.962.76-1.666 1.8-1.67.538-.002 1.566-.18 2.284-.398 1.963-.596 2.564-.28 3.546 1.857.604 1.315 1.114 1.748 2.091 1.775 1.465.042 2.923-1.464 2.551-2.633-.529-1.66-1.916-4.05-3.112-5.36-.199-.218-.628-.924-.954-1.568-.711-1.41-2.865-3.742-4.502-4.876-1.026-.712-1.423-.826-2.875-.829zm-100.64.125c-.613.008-1.192.092-1.63.26-1.05.398-2.689 4.106-4.272 9.666-.761 2.672-.358 6.092.808 6.857.59.386.696.347 2.257-.844 2.265-1.73 3.018-2.087 5.149-2.44 1.018-.17 2.178-.372 2.576-.449 1.558-.301 1.978.041 3.266 2.671.721 1.472 1.447 2.591 1.787 2.756.914.442 1.883.356 2.504-.224 1.122-1.045.988-2.084-.494-3.829-.247-.29-.945-1.898-1.55-3.572-.606-1.673-1.543-3.685-2.082-4.47a785.925 785.925 0 00-1.548-2.25c-.854-1.233-2.739-2.948-3.926-3.573-.712-.375-1.826-.572-2.846-.559zm-70.796.04c-.57.017-1.094.09-1.525.228-1.289.416-3.24 1.967-3.572 2.84-.417 1.095-.479 3.71-.185 7.795.197 2.778.195 4.212-.01 5.02-.215.848-.207 1.298.033 1.8.828 1.734 4.18 1.105 4.371-.82.121-1.227.452-1.54 1.459-1.376 1.532.249 4.918-2.126 5.805-4.072.49-1.076.893-.652 1.372 1.448.258 1.128.745 2.536 1.083 3.13.76 1.336 2.681 2.942 4.217 3.525 1.328.504 3.728.68 3.968.29.09-.146.44-.264.78-.264 1.633 0 7.29-3.415 7.29-4.4 0-.507-1.085-1.157-1.929-1.157-.82 0-1.615.343-2.437 1.052-.666.575-2.776 1.154-4.202 1.152-1.315-.003-2.644-.646-3.255-1.58-.424-.65-.423-.707.01-1.024.252-.184 1.139-.411 1.97-.505 3.187-.357 3.547-.467 4.584-1.403 1.18-1.067 1.346-2 .44-2.485-.38-.204-1.722-.295-3.802-.259-3.561.063-4.077-.133-4.077-1.546 0-1.197.866-2.045 2.31-2.26.694-.103 1.38-.274 1.526-.38.459-.332 2.326-.783 3.837-.926 1.142-.109 1.585-.289 2.063-.838.545-.627.57-.756.232-1.264-.53-.8-2.6-1.206-6.529-1.278-2.92-.053-3.43.005-4.365.496-1.305.686-2.02 1.455-2.375 2.551-.402 1.245-1.215 1.242-2.032-.007-.362-.553-.733-1.208-.825-1.457-.42-1.132-3.759-2.1-6.23-2.026zm-186.28.361l-1.143 1.101c-.628.605-1.696 1.637-2.373 2.292-1.278 1.238-1.85 2.628-1.305 3.173.163.163.94.287 1.726.276l1.43-.02.164 2.277c.09 1.253.281 3.256.425 4.45.213 1.76.189 2.347-.127 3.103-.455 1.09-.31 2.471.413 3.914.623 1.243 2.28 2.056 4.193 2.056 2.988 0 9.098-1.77 10.054-2.912.35-.417 2.05-1.544 2.567-1.701.495-.15.783.098 1.915 1.655 1.314 1.806 2.586 2.982 3.774 3.49.704.3 3.566.113 5.106-.334 1.265-.367 3.572-1.656 4.035-2.253.182-.235.33-.702.33-1.038 0-.703-.775-.82-2.032-.308-.41.167-1.639.453-2.73.634-2.037.34-2.364.281-3.51-.627-2.266-1.793-2.6-2.73-1.186-3.327 2.802-1.184 3.785-1.623 3.902-1.744.073-.076.579-.47 1.125-.876 1.059-.79 1.263-1.564.637-2.42-.398-.545-1.513-.49-4.652.229-1.92.44-2.666.236-2.666-.729 0-.687 1.42-3.054 1.918-3.195.182-.051 1.105-.304 2.05-.561 2.257-.614 2.911-1.032 2.911-1.858 0-1.039-1.748-1.661-4.878-1.736-2.995-.072-3.07-.026-4.45 2.741-1.043 2.09-1.647 3.75-1.927 5.293-.165.908-.238.976-.878.823-.385-.092-.898-.269-1.141-.393s-1.315-.538-2.381-.918c-1.067-.38-2.034-.779-2.15-.887-.199-.185.27-1.576.628-1.864.56-.452.816-1.51.657-2.715-.403-3.033-3.33-4.869-8.002-5.015zm232.196.339c-.75.045-1.428.766-2.324 2.333-1.058 1.85-1.55 5.032-1.104 7.155.584 2.785 1.718 4.488 4.162 6.247 1.316.947 2.268.932 5.492-.09 1.85-.585 2.814-1.048 3.397-1.63 1.052-1.052 1.417-1.985.983-2.508-.478-.576-2.463-.29-3.273.47-.45.424-1.06.64-2.034.72-1.244.102-1.528.02-2.688-.781-1.076-.742-1.364-1.12-1.683-2.21-.52-1.776-.318-4.46.427-5.68.346-.563.568-1.367.568-2.054 0-.98-.107-1.194-.827-1.632-.399-.242-.755-.36-1.096-.34zm-108.487.318c-.757-.02-1.449.48-2.579 1.626-2.27 2.307-2.385 2.6-2.214 5.697.079 1.432.328 3.408.552 4.39.702 3.066-.256 4.96-2.506 4.96-1.49 0-2.271-.502-3.44-2.215-2.095-3.07-2.413-6.126-.894-8.594 1.206-1.962 1.293-2.537.494-3.278-.366-.338-.969-.778-1.34-.977-.608-.326-.771-.298-1.626.274-.523.35-1.13 1.052-1.348 1.561-.74 1.727-1.421 5.223-1.273 6.542.188 1.673.915 4.024 1.48 4.784.25.335.696 1.11.992 1.72.551 1.135 2.814 3.125 4.12 3.621.984.375 2.99.325 4.225-.105.575-.2 1.668-.913 2.429-1.584 1.555-1.371 1.916-1.461 2.636-.656 1.225 1.37 4.706 3.16 6.59 3.39 2.394.292 5.18.003 6.539-.68.686-.345 1.438-.628 1.67-.628.317 0 .402-.214.34-.854-.103-1.058-1.013-1.613-2.02-1.23-.434.165-.939.158-1.454-.022-.434-.151-1.695-.275-2.802-.275-1.906 0-2.1-.057-3.653-1.071-2.008-1.312-3.464-3.03-3.08-3.637.197-.313.645-.4 1.831-.356.864.033 2.165-.122 2.893-.345.728-.223 1.748-.407 2.266-.409.818-.003 1.003-.127 1.39-.938.699-1.467.59-2.138-.406-2.485-.631-.22-1.2-.218-2.209.007-1.035.232-1.728.229-2.919-.014a46.995 46.995 0 00-3.014-.497c-1.561-.19-1.802-.488-1.47-1.811.157-.626.244-.657 1.413-.505 1.963.255 2.208.24 3.89-.232.874-.245 1.945-.502 2.382-.573 1.837-.296 1.98-.368 1.98-.964-.003-.325-.094-.732-.204-.904-.304-.479-1.552-.876-2.785-.886-1.65-.014-4.253-.637-5.339-1.278-.607-.358-1.084-.557-1.537-.57zm280.667.534c.438 0 3.836 2.286 4.29 2.887.536.707 1.164 3.889.903 4.571-.308.805-1.015 1.393-2.12 1.765-.494.166-1.09.286-1.323.266-1.842-.157-2.573-.69-3.756-2.742-.923-1.6-.96-2.619-.173-4.651.57-1.47 1.22-2.096 2.179-2.096zm-257.62.027c-1.14.01-1.585.219-3.253 1.03-1.903.925-2.355 1.274-2.935 2.263-.634 1.082-.672 1.32-.5 3.155.181 1.93.221 2.018 1.449 3.21 1.212 1.175 1.788 1.576 4.563 3.17.691.398 1.257.882 1.257 1.077 0 .455-.242.447-1.723-.056-1.806-.613-3.214-.604-3.689.024-.216.286-.39.714-.4.95-.009.42 1.908 2.6 2.306 2.624.11.006.793.177 1.521.38 1.768.49 3.216.486 5.504-.015 2.871-.63 4.085-1.155 4.953-2.144 1.87-2.13.261-4.573-3.022-4.586-1.051-.004-3.726-.843-5.409-1.696-2.383-1.208-3.629-3.435-2.489-4.453.616-.549 2.525-1.041 3.364-.867l1.333.277c.563.117.661.285.661 1.132 0 .667-.174 1.144-.53 1.448-.824.706-.655 1.426.474 2.02.757.4 1.56.167 2.528-.732.912-.847 1.627-2.204 1.872-3.554.144-.793.057-1.21-.415-1.984-1.127-1.849-2.571-2.485-5.979-2.631a29.743 29.743 0 00-1.44-.042zm-92.251.735c-.669.01-1.275.09-1.676.251-.551.22-.808.606-1.124 1.687-.226.77-.736 2.248-1.135 3.283l-.726 1.883-.863-1.31c-.474-.722-.863-1.615-.863-1.986 0-.942-1.048-2.944-1.638-3.131-.932-.296-1.998.139-2.335.952-.384.927-.17 1.95.637 3.033 1.014 1.363 1.313 2.48 1.333 4.996l.018 2.412-1.33-.008c-1.225-.008-1.445-.113-2.75-1.323-.78-.723-1.61-1.546-1.844-1.828-.524-.633-1.418-1.52-3.029-3.004-.678-.625-1.233-1.366-1.233-1.647 0-.352-.387-.687-1.244-1.078-1.45-.66-1.724-.56-2.804 1.035-.649.957-.772 1.469-.983 4.077-.133 1.64-.32 3.764-.413 4.72-.194 1.972.163 2.63 1.428 2.627 1.659-.003 2.502-1.009 3.42-4.083.336-1.124.696-1.108 1.888.085.584.583 1.395 1.247 1.803 1.475.408.228 1.322.832 2.032 1.34.71.51 1.603.993 1.985 1.075.381.081 1.132.332 1.669.558 1.8.757 4.247-.269 4.815-2.017.312-.958.956-1.422.956-.689 0 .542 1.806 3.208 2.817 4.158.415.39 1.41.94 2.21 1.221.8.282 1.644.528 1.876.547.821.069 4.443-1 5.706-1.682 4.655-2.52 5.647-3.267 5.647-4.254 0-.323-.196-.662-.437-.754-.582-.224-2.224.323-2.811.936-.259.27-.765.565-1.125.655-.36.09-.654.254-.654.365 0 .32-3.445 1.066-4.921 1.066-1.063 0-1.57-.161-2.392-.756-1.331-.964-2.036-2.033-1.844-2.797.163-.649 1.247-.954 5.32-1.496 2.258-.3 2.91-.72 2.617-1.685-.484-1.592-2.19-2.133-5.374-1.705-1.18.16-2.323.221-2.539.138-.475-.182-.487-1.077-.03-2.15l.339-.795 4.081-.005c4.287-.005 4.885-.116 5.152-.958.25-.788-.3-1.227-1.95-1.556-1.85-.369-3.017-.724-4.483-1.362-.798-.348-2.085-.532-3.2-.516zm28.179.897c-.117 0-.241.02-.382.054-.393.097-.823.282-.956.412s-.251 2.235-.264 4.678c-.021 4.09-.074 4.553-.656 5.842-1.108 2.452-2.086 2.725-3.868 1.082-1.086-1-2.776-3.633-2.776-4.323 0-.754-1.617-4.073-2.358-4.84-1.037-1.073-2.02-1.144-2.46-.18-.242.53-.234.865.037 1.521.19.463.86 2.168 1.487 3.79 1.666 4.309 2.252 5.327 4.261 7.412 1.571 1.63 1.921 1.87 2.637 1.808 2.64-.23 4.857-2.622 6.362-6.86.23-.649.443-2.666.54-5.082l.158-4.007-.715-.715c-.422-.422-.698-.592-1.047-.592zm104.759.543c.284-.003.565.019.82.07 1.37.274 2.2 1.269 2.2 2.636 0 1.36-.79 3.216-1.857 4.359-.405.433-.902.787-1.105.787-.623 0-2.357-1.995-2.576-2.963-.241-1.072.074-3.786.5-4.299.288-.347 1.165-.581 2.018-.59zm-95.492.75c-1.683.01-2.445.386-3.92 1.616-1.025.854-1.328 1.33-1.82 2.863-1.456 4.526.158 8.58 4.311 10.831 2.42 1.312 8.897-.886 12.441-4.22.994-.935 1.92-1.91 2.056-2.164.354-.662-.454-3.62-1.258-4.602-.63-.771-1.34-1.337-3.256-2.594-1.533-1.006-3.47-1.458-7.222-1.685a20.41 20.41 0 00-1.332-.045zm219.741.037c.15.003.298.015.446.041 3.197.556 5.855 2.503 5.855 4.29 0 1.096-.506 1.666-2.265 2.549-1.812.91-3.674 1.223-5.144.866-1.52-.37-2.667-1.897-2.832-3.771-.101-1.151-.027-1.369.765-2.232 1.076-1.174 2.133-1.754 3.175-1.743zM38.25 84.18c.398.02.79.102 1.073.254.32.171.56.694.676 1.473.164 1.092.11 1.284-.578 2.005-.419.44-1.162.967-1.653 1.173-1.137.479-1.058.499-1.386-.352-.358-.927-.18-3.595.276-4.145.244-.295.928-.44 1.592-.408zm-33.803.327c.03.003.067.036.107.1.096.155.085.34-.026.41-.111.072-.19-.054-.176-.28.01-.156.045-.235.096-.23zm387.828.191c.619 0 1.445 1.155 1.229 1.718-.197.512-1.33.516-1.754.005-.47-.567-.118-1.723.525-1.723zm-99.5.273c.619.013 2.423 2.26 2.48 3.088.043.603-.08.75-.743.898-1.175.261-2.86.263-3.269.004-.716-.454.649-4.007 1.532-3.989zm185.916.875c-.358.003-.73.084-1.104.262-1.916.914-2.242 3.579-.57 4.65 1.452.93 3.417.674 4.037-.524 1.076-2.08-.43-4.398-2.363-4.388zM128.46 87.61c1.834.003 2.53.123 3.597.625 1.536.724 3.307 2.358 3.307 3.053 0 .594-1.38 2.363-2.333 2.992-.39.258-1.424.696-2.297.975-2.081.664-2.955.778-4.217.547-1.071-.195-2.002-1.033-2.002-1.808 0-.238-.194-.79-.428-1.227-.538-1.001-.538-2.87 0-3.69.705-1.076 1.88-1.47 4.374-1.467zm-87.502 5.835c.824.018 1.638.135 2.3.369 2.221.784 3.003 1.925 1.95 2.848-.618.54-2.797 1.5-4.432 1.951-.728.2-1.826.366-2.44.368-.977.003-1.17-.097-1.53-.792-.45-.871-.41-2.688.082-3.606.394-.737 2.256-1.177 4.07-1.138zm-36.9 14.78c-.077-.01-.055.074.05.264.119.216.234.505.255.643.021.137.11.071.198-.148.088-.218-.027-.508-.255-.642a.866.866 0 00-.248-.117zm382.211 4.048c-.586-.022-1.086.252-1.509.82-.508.684-.555 1.095-.555 4.895 0 2.385.145 4.822.34 5.735 1.027 4.78 1.524 6.662 1.87 7.078.463.556.42.553 1.31.093 1.88-.972 2.037-1.834 1.41-7.7-.6-5.612-.627-6.284-.291-7.302.454-1.377.157-2.239-1.049-3.036-.562-.373-1.07-.567-1.526-.583zm-381.573 3.11c.137.031.217.372.188.85-.032.531-.171.966-.31.966-.362 0-.309-1.665.059-1.81a.104.104 0 01.062-.007zm315.813 1.066c-2.142-.003-3.662.776-5.859 3.001-1.088 1.103-2.255 2.062-2.592 2.132-.337.07-1.065.199-1.618.288-1.357.219-1.571.88-1.415 4.358.108 2.4.057 2.898-.37 3.593-.899 1.464-3.32 3.03-4.685 3.03-.718 0-4.035-4.201-4.035-5.112 0-.209-.168-.52-.375-.69-.206-.172-.92-1.116-1.585-2.1-1.453-2.145-2.701-2.939-4.945-3.142l-1.58-.144-1.116 1.165c-1.03 1.075-1.152 1.358-1.582 3.676-.517 2.79-.632 8.705-.185 9.54.514.96 1.925.589 3.949-1.036.625-.502.65-.646.661-3.758.01-2.835.07-3.271.492-3.529.4-.244.59-.16 1.132.5.358.437 1.007 1.508 1.442 2.381.882 1.774 3.447 4.618 4.79 5.312.558.289 1.506.458 2.602.464 1.433.007 2.036-.143 3.57-.89 1.014-.493 2.474-1.467 3.244-2.164.769-.697 1.537-1.267 1.708-1.267.17 0 1.061.49 1.981 1.09 2.254 1.468 3.288 1.795 5.718 1.809 2.28.013 3.22-.337 5.523-2.057.932-.695 1.394-1.28 1.705-2.155.235-.66.58-1.617.765-2.126.502-1.376 1.162-1.22 1.687.397 1.21 3.729 3.112 5.748 5.722 6.074 1.61.2 2.634-.047 4.5-1.09 1.429-.799 2.013-.67 3.302.73.51.553 1.464 1.365 2.119 1.805 1.465.983 2.231 1.025 2.801.156.557-.85.331-1.75-.677-2.703a6.734 6.734 0 01-2.12-4.92c.003-.902.176-2.116.385-2.698 1.106-3.07-.27-7.012-2.447-7.012-1.75 0-2.97 2.936-2.97 7.151v2.584l-.92.81c-.508.445-1.388.948-1.957 1.119-.901.27-1.121.246-1.706-.187-.845-.625-1.168-1.32-1.629-3.513-.352-1.675-.34-1.821.294-3.598.901-2.522 1.015-3.245.625-3.973-.727-1.358-3.245-1.526-4.068-.27-.23.35-.54 1.151-.688 1.779a35.646 35.646 0 01-.75 2.568l-.48 1.428-1.618-3.311c-2.492-4.287-3.448-5.491-6.745-5.495zm40.77 1.254c-.68-.004-1.39.061-2.122.2-1.065.2-3.546 2.067-4.765 3.586-2.24 2.79-.877 6.298 3.26 8.39.925.467 2.029 1.129 2.453 1.47l.771.622-.573.572c-.903.904-2.823.799-4.063-.224-1.818-1.498-3.494-1.179-3.494.665 0 1.756 2.048 3.412 4.736 3.83.728.112 1.432.22 1.566.237.715.098 3.838-.624 4.543-1.05 1.497-.905 3.548-3.305 3.548-4.151 0-1.009-.952-2.085-2.603-2.94-.731-.38-2.258-1.165-3.394-1.747-2.988-1.532-3.483-2.274-2.558-3.84.48-.813 1.148-1.198 2.513-1.45 1.21-.224 2.592.796 3.139 2.316.36.998.505 1.13 1.331 1.2 1.816.154 2.845-1.994 1.964-4.1-.945-2.262-3.308-3.57-6.253-3.586zm-146.03.24a2.29 2.29 0 00-.973.194c-.961.4-.814 2.046.352 3.935 1.41 2.285 1.922 6.422 1.012 8.182-.39.756-.484.795-1.518.631-.607-.095-1.52-.438-2.029-.762a24.445 24.445 0 00-1.635-.95c-.39-.198-1.342-1.1-2.116-2.005-.775-.905-1.606-1.753-1.848-1.884-.242-.13-1.53-.982-2.862-1.892-1.331-.91-2.61-1.653-2.843-1.653-.232 0-1.044.47-1.805 1.044-1.188.897-1.429 1.234-1.706 2.389-.177.739-.247 1.74-.156 2.226.208 1.108-.062 1.336-2.063 1.746-1.614.331-6.37.154-7.042-.262-.251-.155-.298-.596-.171-1.627.158-1.288.084-1.59-.816-3.353-.84-1.644-1.23-2.098-2.578-2.999-1.515-1.011-1.658-1.053-3.03-.881-.79.098-1.744.372-2.118.608-1.591 1.002-2.855 2.212-3.422 3.277-.334.626-.828 1.556-1.097 2.065-.803 1.52-1.58 4.37-1.755 6.428-.24 2.843.32 4.538 2.108 6.369 1.29 1.321 1.555 1.466 3.441 1.886 2.6.578 3.503.435 7.914-1.256 1.127-.432 2.216-.721 2.42-.643.204.079.572.746.816 1.483.245.737.644 1.457.888 1.6.243.142.62.188.839.103.218-.086.77-.246 1.226-.355.455-.11.961-.282 1.124-.382.496-.307.33-1.549-.358-2.665-.523-.848-.65-1.418-.66-2.862-.005-.992.108-2.022.25-2.289.282-.526 2.82-1.44 3.582-1.291.522.102.708.407 1.186 1.944.647 2.079 1.465 2.42 3.307 1.377 1.447-.82 1.894-1.801 1.496-3.287-.511-1.913-.31-3.779.406-3.779.212 0 1.359.957 2.55 2.127 3.732 3.669 8.245 5.739 9.923 4.554.36-.255 1.08-.701 1.597-.992.518-.291 1.304-1.116 1.746-1.832.737-1.196.802-1.49.784-3.572-.028-3.305-1.217-7.984-2.405-9.462-.646-.804-1.277-1.207-1.961-1.234zM96.902 119.17a10.2 10.2 0 00-1.043.052c-2.417.23-3.615.69-5.417 2.079-2.604 2.01-3.256 3.193-2.729 4.954.329 1.096 1.713 2.89 2.236 2.896.815.011 1.102.565 1.262 2.434.09 1.06.31 2.702.487 3.647.177.946.314 2.174.314 2.729-.008 1.226.7 2.034 1.782 2.034.557 0 1.026-.292 1.739-1.08l.977-1.081 2.03.44c1.118.243 2.508.655 3.09.915 3.212 1.44 8.85 1.767 10.42.607l.755-.56.863.89c.474.49 1.294 1.006 1.821 1.146.527.14 1.355.268 1.84.283 1.578.049 7.21-2.152 8.577-3.352.615-.54.597-1.973-.032-2.543-.414-.374-.61-.395-1.19-.13-.383.174-.697.4-.697.504 0 .314-3.038 1.527-4.3 1.716-1.328.2-2.434-.224-3.727-1.424-1.392-1.292-1.926-3.055-1.127-3.718.352-.292 1.718-.475 3.929-.527 1.825-.043 2.637-1.613 1.475-2.85-.495-.528-.836-.614-2.447-.618-1.03-.003-2.468-.16-3.196-.347-1.25-.323-1.327-.393-1.403-1.285-.114-1.347.379-1.702 2.644-1.903 3.694-.328 6.787-1.011 7.366-1.627.577-.615.488-1.303-.204-1.568-.232-.089-1.741-.227-3.354-.308-2.025-.1-3.323-.305-4.196-.663-.696-.284-2.008-.587-2.917-.672-1.787-.167-2.095-.007-2.384 1.234-.085.364-.473 1.555-.862 2.646-.669 1.873-.7 2.163-.542 5.173.148 2.831.27 3.437 1.091 5.413.509 1.225.925 2.38.925 2.567 0 .898-6.03-.236-7.623-1.434-.482-.362-1.305-.777-1.83-.922-.525-.145-1.41-.551-1.968-.903-.807-.51-1.014-.802-1.014-1.431 0-.435.104-.79.232-.79.216 0 2.749-3.648 3.432-4.943.778-1.478-.108-4.908-1.606-6.212-1.205-1.05-2.099-1.456-3.479-1.468zm146.688.462c-1.05-.02-1.381.123-2.234.622-1.97 1.154-2.313 2.545-.964 3.895.77.77.797.775 1.752.376 1.385-.578 2.363-.504 3.703.282 1.158.679 1.171.701 1.171 2.132 0 1.945-.835 3.633-3.188 6.441-2.56 3.056-2.83 3.642-2.405 5.23.405 1.512.9 2.101 2.286 2.724 1.576.709 3.923.621 8.44-.313 4.45-.92 5.08-1.146 5.66-2.032.363-.554.359-.656-.045-1.06-.368-.369-.97-.446-3.415-.436-1.632.007-3.707.113-4.61.235-1.953.265-2.987-.193-2.987-1.324 0-.712.679-2.229 1-2.232.105 0 .317-.269.473-.595.155-.327.705-1.367 1.223-2.313.518-.946 1.088-2.346 1.266-3.11.179-.765.432-1.456.563-1.537.13-.08.237-.824.236-1.653 0-1.45-.047-1.55-1.257-2.706-2.274-2.175-2.723-2.39-5.334-2.558a31.33 31.33 0 00-1.334-.068zm77.495.68c.966.03 1.775.477 2.232 1.362.509.984 1.224 4.054 1.224 5.254 0 1.666-1.17 3.196-2.883 3.77-2.341.784-4.909-.28-6.323-2.62-1.306-2.16-.987-3.29 1.648-5.839 1.354-1.31 2.859-1.965 4.102-1.927zm-184.607.19c-.69.004-1.374.265-1.805.742-.412.456-.493.937-.466 2.75.031 2.057.408 4.007 1.685 8.725.864 3.188 1.178 5.839.83 6.998-.435 1.455-2.339 2.66-4.204 2.66-1.27 0-1.404-.069-2.374-1.203l-1.027-1.203-.713.56c-.936.737-.924 1.74.037 3.062.932 1.283 1.396 1.67 2.343 1.954.409.122 1.485.234 2.39.246 1.974.027 2.81-.383 5.543-2.72 1.423-1.217 2.002-1.916 2.315-2.794.707-1.984.613-2.635-1.855-12.852-.211-.873-.458-2.635-.55-3.916-.161-2.246-.196-2.344-.953-2.736a2.568 2.568 0 00-1.196-.274zm87.323.74c-1.123-.047-1.942 1.302-2.448 4.04-.672 3.632.045 7.772 1.804 10.412.767 1.152 2.716 2.625 4.141 3.13.442.157 1.16.25 1.596.21.437-.042 1.523-.137 2.413-.212.89-.074 1.962-.305 2.381-.513.42-.208 1.216-.57 1.77-.804 1.348-.57 2.014-1.995 1.382-2.96-.548-.836-1.601-.828-3.09.023-1.976 1.13-5.505.712-6.304-.746-.375-.684-.366-.764.126-1.13a3.957 3.957 0 011.19-.554c.364-.09 1.287-.512 2.05-.94 1.308-.733 1.39-.84 1.39-1.816 0-.923-.101-1.085-.917-1.474-.837-.4-1.092-.403-2.976-.035-2.179.425-2.613.329-2.344-.52.238-.746 3.837-1.646 6.59-1.646 2.105 0 3.006-.556 2.723-1.682-.39-1.554-.742-1.666-5.324-1.695-3.795-.024-4.258-.078-4.929-.574-.441-.326-.85-.497-1.224-.513zm-57.644.63c-.436-.017-.65.264-1.113.903-.712.983-.785 1.303-.953 4.181-.256 4.368.287 7.438 1.78 10.07.851 1.5 1.27 1.976 1.895 2.158 1.097.319 1.164.32 1.747.007.626-.335.667-1.405.097-2.499-1.38-2.647-1.92-8.714-1.036-11.63.492-1.62.329-2.175-.775-2.636-.83-.346-1.304-.54-1.643-.554zm-17.496.207c-.377 0-.775.051-1.309.14-1.863.308-2.56.9-4.224 3.587l-.962 1.554.16 3.19c.157 3.105.186 3.228 1.09 4.533 1.651 2.382 3.672 4.028 4.592 3.742.25-.077.632-.026.85.114 1.65 1.058 8.917-.984 9.898-2.78.158-.292.364-.59.457-.662.463-.363 1.022-2.343 1.022-3.617 0-1.815-.453-2.7-2.48-4.843-2.091-2.211-4.501-3.794-6.873-4.515-1.027-.312-1.593-.445-2.22-.443zm-51.887 1.29c.223.003.469.191.909.57.672.578.702.7.523 2.131-.143 1.146-.386 1.742-.99 2.43-.44.501-.97.912-1.176.912-1.083 0-1.114-4.343-.038-5.488.35-.372.55-.557.772-.555zm84.933.778c.832-.007 1.743.614 2.609 1.83.672.943.444 1.527-.926 2.374-.985.61-1.1 1.02-.65 2.315.215.614.599.937 1.623 1.363.739.306 1.598.558 1.91.558.836 0 1.743.737 1.743 1.416 0 .892-1.76 2.418-3.683 3.192-1.732.696-2.448.777-3.857.437-1.869-.45-2.813-1.568-3.319-3.927-.234-1.09-.21-1.672.125-2.978.229-.892.594-1.878.812-2.19.219-.311.397-.723.397-.915 0-.39.847-1.674 1.83-2.774.416-.465.887-.696 1.386-.7zm-31.092 2.09c1.26 0 3.121 1.403 4.876 3.672.987 1.278 1.304 1.912 1.304 2.605 0 1.138-.868 2.403-1.957 2.851-1.497.616-3.359.692-4.79.195-1.119-.39-1.414-.642-1.918-1.64-.843-1.673-.792-3.199.144-4.3.84-.99 1.378-2.11 1.378-2.867 0-.418.184-.516.963-.516zm115.263 1.618c-.312-.003-.475.067-.719.178-1.594.726-2.032 2.908-.796 3.971.603.52.985.605 2.595.583 1.689-.023 5.45-.39 6.95-.68.736-.142.96-1.065.484-1.987-.326-.631-.593-.76-1.904-.916-.838-.1-2.06-.295-2.715-.434-2.435-.516-3.374-.713-3.895-.715zm123.43 6.262c-2.459.07-3.19 4.014-.973 5.244.962.533 1.767.44 2.763-.32 1.24-.947 2.031-2.284 1.828-3.092-.197-.787-2.332-1.868-3.618-1.832zm-367.806 4.948c.045.01.128.056.252.135.229.145.332.318.229.384-.103.066-.29-.053-.416-.264-.113-.19-.141-.272-.065-.255zM162.837 189.8c.178 0 .324.145.324.322 0 .176-.06.32-.132.32-.072 0-.218-.144-.324-.32-.106-.177-.046-.322.132-.322zm-.558 5.428c.03.003.067.036.107.1.096.155.085.34-.027.41-.111.072-.19-.055-.175-.28.01-.156.045-.235.095-.23z" fill="#333"/></svg>