<svg xmlns="http://www.w3.org/2000/svg" width="6000" height="2100" viewBox="0 0 1587.5 555.625"><g fill="#f5f5f5"><path d="M383.684-68.246c12.54 9.354 19.352 26.334 25.622 42.738 6.304 16.437 12.1 32.333 10.371 47.415-1.728 15.082-11.015 29.35-22.538 40.433-11.523 11.049-25.317 18.878-40.196 23.42-14.879 4.507-30.842 5.693-45.653 1.897-14.844-3.83-28.537-12.642-40.196-24.233-11.625-11.625-21.182-26.063-25.25-42.365-4.1-16.336-2.677-34.536 5.695-48.228 8.405-13.659 23.758-22.742 38.738-30.978 15.014-8.235 29.656-15.59 46.127-18.403 16.472-2.78 34.74-1.05 47.28 8.304zM424.65 504.252c7.045 8.073 5.163 25.473 4.507 38.851-.657 13.379-.115 22.735-2.225 31.834-2.111 9.1-6.875 17.971-14.206 26.9-7.302 8.928-17.2 17.942-30.293 22.334-13.065 4.365-29.324 4.137-41.048-3.366-11.695-7.53-18.855-22.306-18.684-36.084.171-13.777 7.673-26.556 14.976-36.426 7.302-9.898 14.376-16.858 22.335-24.646 7.958-7.787 16.773-16.344 29.181-21.28 12.408-4.934 28.41-6.19 35.457 1.883zM1266.188 314.825c-1.741 15.773-12.491 30.737-27.451 40.846-14.96 10.055-34.185 15.308-57.4 12.32-23.242-2.961-50.474-14.109-54.401-30.906-3.9-16.77 15.505-39.243 31.7-62.645 16.17-23.43 29.128-47.843 44.41-49.39 15.28-1.602 32.912 19.636 45.306 38.517 12.421 18.908 19.633 35.487 17.836 51.258zM1272.86 613.53c22.24 18.764 39.051 51.1 34.622 81.817-4.429 30.764-30.097 59.91-59.147 68.91-29.05 9-61.577-2.143-87.626-18.001-26.002-15.906-45.575-36.527-47.48-57.529-1.905-21.002 13.858-42.432 30.43-59.862 16.526-17.43 33.908-30.907 56.481-35.05 22.621-4.143 50.433 1 72.72 19.716zM496.881 195.924c11.684 15.62 24.929 28.99 26.585 46.921 1.624 17.9-8.341 40.36-23.086 44.047-14.745 3.717-34.269-11.277-52.575-22.523-18.337-11.215-35.425-18.681-42.485-33.145-7.06-14.463-4.092-35.925 7.529-51.544 11.62-15.62 31.895-25.366 47.077-21.336 15.182 4.061 25.272 21.96 36.955 37.58zM1332.455 376.215c4.443-.058 8.869 8.92 20.055 18.433 11.186 9.511 29.16 19.527 33.874 38.291 4.687 18.794-3.916 46.31-22.872 56.908-18.985 10.57-48.323 4.222-65.94-10.89-17.618-15.111-23.516-38.986-18.017-54.503 5.5-15.517 22.453-22.68 33.184-30.866 10.735-8.13 15.247-17.284 19.716-17.373zM89.34 483.335c13.759 20.443 12.243 49.903 1.905 70.19-10.377 20.287-29.537 31.403-46.676 35.25-17.14 3.848-32.258.467-48.348-5.48-16.129-5.985-33.268-14.535-43.84-32.646-10.532-18.111-14.535-45.783-2.565-65.798 11.932-20.015 39.759-32.413 68.247-32.88 28.449-.466 57.52 10.921 71.278 31.364zM195.788 477.4c-14.894-3.088-26.952-30.343-48.442-47.799-21.455-17.437-52.34-25.162-59.974-42.38-7.67-17.238 7.912-43.968 27.332-47.921 19.42-3.953 42.644 14.853 62.072 24.883 19.392 10.012 34.972 11.195 45.905 22.107 10.934 10.913 17.221 31.554 11.475 52.38-5.712 20.843-23.458 41.87-38.368 38.73zM121.992 137.344c12.577-12.755 31.945-18.597 42.805-11.712 10.824 6.89 13.1 26.475 26.603 42.475 13.463 15.97 38.154 28.353 41.26 43.975 3.105 15.622-15.334 34.514-36.596 41.012-21.267 6.462-45.325.489-62.164-12.169-16.838-12.658-26.426-32.041-28.33-51.603-1.937-19.52 3.845-39.223 16.422-51.978zM394.49 330.76c8.215 7.558 5.59 26.499 1.083 44.47-4.507 17.999-10.896 35.085-22.648 40.562-11.753 5.506-28.868-.57-42.817-8.928-13.977-8.386-24.76-19.026-31.947-34.972-7.217-15.917-10.811-37.14-1.855-44.898 8.957-7.73 30.437-2.025 50.69-1.027 20.252.97 39.278-2.795 47.493 4.792zM692.476 320.203c-22.24-18.764-39.05-51.1-34.622-81.817 4.43-30.764 30.098-59.91 59.148-68.91 29.05-9 61.576 2.143 87.626 18.002 26.002 15.906 45.575 36.526 47.48 57.528 1.905 21.002-13.858 42.432-30.431 59.862-16.525 17.43-33.908 30.907-56.48 35.05-22.622 4.144-50.433-1-72.721-19.715zM1369.16 227.643c-10.986-14.15-14.223-34.119-5.966-43.976 8.257-9.82 27.971-9.493 45.612-20.77 17.605-11.239 33.137-34.081 49.032-35.1 15.895-1.018 32.19 19.751 35.828 41.684 3.601 21.934-5.492 44.995-20.26 60.017-14.768 15.022-35.246 21.97-54.888 21.279-19.605-.655-38.374-8.985-49.359-23.134zM1049.392 414.995c-7.046 8.073-5.163 25.473-4.507 38.851.656 13.379.114 22.735 2.225 31.834 2.11 9.1 6.874 17.971 14.205 26.9 7.302 8.928 17.2 17.942 30.294 22.335 13.064 4.364 29.323 4.136 41.047-3.366 11.695-7.531 18.855-22.307 18.684-36.085-.171-13.777-7.673-26.556-14.976-36.426-7.302-9.898-14.376-16.858-22.335-24.646-7.958-7.787-16.773-16.344-29.18-21.28-12.41-4.934-28.412-6.19-35.457 1.883zM821.213-36.617C811.085-24.402 807.799-6.272 810.93 11.51c3.17 17.744 12.757 35.217 31.041 49.829 18.285 14.65 45.229 26.48 60.034 17.627 14.767-8.852 17.434-38.425 23-66.335 5.606-27.91 14.15-54.196 4.64-66.257-9.471-12.1-36.995-10.012-59.184-5.798-22.227 4.213-39.159 10.553-49.248 22.807zM1213.478-82.739c-22.24 18.763-39.05 51.1-34.622 81.816 4.429 30.764 30.098 59.91 59.148 68.91 29.05 9.001 61.576-2.143 87.626-18.001 26.002-15.906 45.575-36.527 47.48-57.528 1.905-21.002-13.858-42.432-30.431-59.862-16.525-17.43-33.908-30.908-56.481-35.05-22.62-4.144-50.433 1-72.72 19.715zM799.127 507.354c-12.846 17.174-27.41 31.875-29.23 51.59-1.786 19.682 9.17 44.378 25.383 48.431 16.212 4.088 37.68-12.4 57.807-24.764 20.162-12.331 38.95-20.54 46.713-36.444 7.763-15.903 4.5-39.5-8.278-56.673-12.777-17.174-35.069-27.89-51.762-23.46-16.693 4.465-27.787 24.147-40.633 41.32zM1643.149-261.742c-4.169 14.628 14.392 37.947 19.897 65.08 5.505 27.093-1.966 58.04 9.752 72.787 11.718 14.785 42.626 13.37 55.131-2.006 12.505-15.375 6.606-44.67 6.724-66.534.118-21.825 6.292-36.177 1.691-50.924-4.6-14.746-19.976-29.885-41.092-34.447-21.117-4.6-47.974 1.377-52.103 16.044zM1001.917 113.694c-10.985 14.15-14.223 34.119-5.966 43.976 8.257 9.82 27.972 9.494 45.613 20.77 17.605 11.239 33.136 34.081 49.031 35.1 15.896 1.018 32.191-19.75 35.829-41.684 3.6-21.934-5.493-44.994-20.26-60.017-14.768-15.022-35.247-21.97-54.888-21.278-19.606.654-38.375 8.984-49.36 23.133zM903.501 317.039c-8.215 7.559-5.59 26.5-1.084 44.47 4.507 18 10.897 35.086 22.649 40.563 11.752 5.505 28.867-.57 42.816-8.929 13.977-8.386 24.76-19.026 31.948-34.971 7.217-15.917 10.81-37.14 1.854-44.899-8.957-7.73-30.436-2.025-50.689-1.027-20.253.97-39.279-2.795-47.494 4.793zM660.445 616.069c2.977 3.298-.845 12.55-.603 27.231.241 14.682 4.585 34.794-6.396 50.723-11.021 15.928-37.368 27.634-57.842 20.393-20.474-7.28-35.075-33.506-35.357-56.716-.282-23.209 13.757-43.401 29.042-49.515 15.285-6.114 31.857 1.89 45.091 4.545 13.193 2.695 23.048.04 26.065 3.339zM635.189 40.424c-17.174 12.846-31.875 27.41-51.59 29.23-19.682 1.786-44.378-9.17-48.431-25.383-4.088-16.212 12.4-37.68 24.764-57.807 12.331-20.163 20.54-38.95 36.443-46.713 15.904-7.763 39.5-4.5 56.674 8.277 17.174 12.778 27.89 35.07 23.46 51.763-4.465 16.693-24.147 27.787-41.32 40.633zM1601.297 91.238c-14.15 10.985-34.119 14.222-43.976 5.966-9.821-8.257-9.494-27.972-20.77-45.613-11.239-17.605-34.082-33.136-35.1-49.032-1.019-15.895 19.75-32.19 41.684-35.828 21.933-3.6 44.994 5.493 60.017 20.26 15.022 14.768 21.97 35.246 21.278 54.888-.655 19.606-8.984 38.374-23.133 49.36zM1553.42 430.811c-7.56 8.215-26.5 5.59-44.471 1.084-18-4.507-35.086-10.897-40.563-22.649-5.505-11.752.571-28.867 8.929-42.816 8.386-13.977 19.026-24.76 34.971-31.948 15.917-7.217 37.14-10.81 44.899-1.854 7.73 8.957 2.025 30.436 1.027 50.689-.97 20.253 2.795 39.279-4.793 47.494zM1461.91 545.246c1.388 11.977 17.3 23.582 28.935 33.163 11.635 9.581 19.014 17.115 28.188 22.246 9.174 5.13 20.166 7.88 33.149 8.536 12.961.679 27.959-.739 41.528-8.314 13.523-7.573 25.641-21.283 28.27-36.723 2.584-15.438-4.298-32.584-15.898-42.871-11.6-10.288-27.92-13.716-41.664-15.107-13.77-1.413-24.92-.792-37.427-.062-12.508.731-26.306 1.592-39.807 8.187-13.502 6.595-26.661 18.968-25.274 30.945zM-6.166 81.562C6.05 91.69 24.18 94.976 41.962 91.845c17.743-3.17 35.216-12.757 49.828-31.041C106.441 42.519 118.27 15.575 109.418.77c-8.853-14.767-38.425-17.434-66.335-23-27.91-5.606-54.197-14.15-66.258-4.64-12.1 9.471-10.012 36.995-5.798 59.184C-24.76 54.54-18.42 71.473-6.166 81.562zM562.675 469.355c17.174 12.846 31.875 27.41 51.59 29.23 19.682 1.786 44.378-9.171 48.43-25.383 4.088-16.212-12.399-37.68-24.764-57.808-12.33-20.162-20.54-38.95-36.443-46.713-15.903-7.762-39.5-4.5-56.674 8.278s-27.89 35.07-23.46 51.762c4.466 16.693 24.147 27.788 41.32 40.634zM153.097 784.848c14.783-3.582 25.928-31.223 46.825-49.383 20.863-18.141 51.474-26.89 58.531-44.353 7.092-17.482-9.37-43.68-28.911-46.984-19.54-3.305-42.126 16.263-61.21 26.934-19.048 10.652-34.58 12.352-45.144 23.622-10.565 11.27-16.162 32.109-9.726 52.731 6.402 20.642 24.838 41.067 39.635 37.433zM882.398 810.834c16.15 12.538 38.941 16.233 50.192 6.809 11.21-9.424 10.836-31.926 23.706-52.06 12.828-20.094 38.9-37.821 40.062-55.963 1.162-18.143-22.543-36.742-47.577-40.893-25.034-4.11-51.354 6.269-68.5 23.124-17.146 16.855-25.076 40.228-24.287 62.647.747 22.377 10.254 43.799 26.404 56.336zM1266.188-216.362c-1.741 15.772-12.491 30.736-27.451 40.846-14.96 10.054-34.185 15.308-57.4 12.32-23.242-2.962-50.474-14.11-54.401-30.907-3.9-16.769 15.505-39.242 31.7-62.644 16.17-23.43 29.128-47.844 44.41-49.39 15.28-1.603 32.912 19.635 45.306 38.516 12.421 18.909 19.633 35.488 17.836 51.259zM455.72-311.742c11.683 15.62 24.928 28.99 26.584 46.92 1.624 17.9-8.341 40.361-23.086 44.047-14.745 3.718-34.269-11.277-52.575-22.523-18.337-11.215-35.425-18.68-42.485-33.144-7.06-14.464-4.092-35.925 7.529-51.544 11.62-15.62 31.895-25.366 47.077-21.336 15.182 4.06 25.272 21.96 36.955 37.58zM139.633-270.357c12.577-12.755 31.945-18.597 42.805-11.712 10.824 6.89 13.1 26.475 26.603 42.475 13.463 15.969 38.154 28.353 41.26 43.975 3.105 15.622-15.334 34.514-36.596 41.012-21.267 6.462-45.325.489-62.164-12.17-16.838-12.657-26.426-32.04-28.33-51.602-1.937-19.52 3.845-39.223 16.422-51.978zM-179.77-101.22c-22.24-18.763-39.05-51.099-34.621-81.815 4.429-30.765 30.098-59.91 59.148-68.91 29.05-9.001 61.576 2.142 87.626 18 26.002 15.907 45.575 36.527 47.48 57.53 1.905 21-13.859 42.431-30.431 59.861-16.525 17.43-33.908 30.907-56.481 35.05-22.62 4.144-50.433-1-72.72-19.715zM1441.683-191.819c-10.985-14.15-14.222-34.118-5.965-43.976 8.256-9.82 27.97-9.493 45.612-20.769 17.605-11.24 33.137-34.082 49.032-35.1 15.895-1.019 32.19 19.75 35.828 41.684 3.6 21.933-5.493 44.994-20.26 60.016-14.768 15.023-35.246 21.97-54.888 21.279-19.605-.655-38.374-8.985-49.36-23.134zM903.501-300.393c-8.215 7.559-5.59 26.5-1.084 44.47 4.507 18 10.897 35.086 22.649 40.563 11.752 5.505 28.867-.571 42.816-8.929 13.977-8.386 24.76-19.026 31.948-34.971 7.217-15.917 10.81-37.14 1.854-44.899-8.957-7.73-30.436-2.025-50.689-1.027-20.253.97-39.279-2.795-47.494 4.793zM732.856-138.073c-14.894-3.087-26.953-30.342-48.442-47.798-21.455-17.437-52.34-25.162-59.974-42.38-7.67-17.238 7.912-43.968 27.332-47.921 19.42-3.953 42.644 14.853 62.072 24.884 19.392 10.012 34.972 11.194 45.905 22.106 10.934 10.913 17.221 31.554 11.475 52.38-5.712 20.843-23.458 41.87-38.368 38.73zM1753.877 88.08c4.443-.057 8.868 8.92 20.055 18.433 11.186 9.512 29.16 19.527 33.874 38.291 4.687 18.794-3.916 46.31-22.872 56.908-18.985 10.57-48.323 4.222-65.94-10.89-17.619-15.111-23.516-38.986-18.017-54.503 5.5-15.517 22.453-22.68 33.184-30.866 10.735-8.13 15.247-17.284 19.716-17.372zM1722.335 391.708c-12.846 17.174-27.41 31.875-29.23 51.59-1.786 19.682 9.17 44.378 25.383 48.431 16.212 4.088 37.68-12.4 57.807-24.764 20.162-12.331 38.95-20.54 46.713-36.444 7.763-15.903 4.5-39.5-8.278-56.673-12.777-17.174-35.069-27.89-51.762-23.46-16.693 4.465-27.787 24.147-40.633 41.32zM-189.393 126.86c-7.045 8.073-5.163 25.473-4.507 38.852.656 13.378.114 22.734 2.225 31.833 2.111 9.1 6.875 17.971 14.206 26.9 7.302 8.928 17.2 17.942 30.293 22.335 13.065 4.364 29.324 4.136 41.048-3.366 11.695-7.531 18.855-22.307 18.684-36.084-.172-13.778-7.674-26.557-14.976-36.427-7.302-9.898-14.377-16.858-22.335-24.646-7.959-7.787-16.773-16.344-29.181-21.28-12.408-4.934-28.411-6.19-35.457 1.883zM-129.961 732.766c-12.847 17.174-27.41 31.875-29.23 51.59-1.787 19.682 9.17 44.378 25.383 48.431 16.212 4.087 37.68-12.4 57.807-24.765 20.162-12.33 38.95-20.54 46.713-36.443 7.763-15.903 4.5-39.5-8.278-56.674-12.777-17.174-35.069-27.89-51.762-23.46-16.693 4.466-27.787 24.147-40.633 41.321zM-232.9 520.74c16.15 12.537 38.942 16.232 50.192 6.808 11.21-9.424 10.836-31.926 23.706-52.06 12.828-20.094 38.9-37.821 40.062-55.964 1.163-18.142-22.543-36.74-47.577-40.892-25.033-4.11-51.354 6.269-68.5 23.124-17.146 16.855-25.076 40.228-24.287 62.647.748 22.377 10.255 43.799 26.404 56.336zM497.829 830.332c-1.742 15.772-12.492 30.737-27.452 40.846-14.96 10.055-34.185 15.308-57.4 12.32-23.242-2.961-50.474-14.11-54.401-30.906-3.9-16.77 15.505-39.243 31.7-62.645 16.17-23.43 29.129-47.844 44.41-49.39 15.281-1.602 32.912 19.636 45.306 38.516 12.422 18.909 19.633 35.488 17.837 51.26zM1484.263 735.175c12.577-12.755 31.945-18.597 42.805-11.712 10.824 6.89 13.099 26.475 26.603 42.475 13.463 15.97 38.154 28.353 41.26 43.975 3.105 15.622-15.334 34.514-36.596 41.012-21.267 6.462-45.326.489-62.164-12.169-16.839-12.658-26.426-32.041-28.33-51.602-1.937-19.521 3.845-39.224 16.422-51.98zM1853.293 673.922c7.916 13.753 8.088 32.177 1.995 49.174-6.126 16.951-18.53 32.55-39.022 43.86-20.5 11.347-49.055 18.449-62.15 7.22-13.057-11.223-10.684-40.82-11.45-69.27-.804-28.455-4.778-55.808 6.634-66.087 11.381-10.323 38.155-3.61 59.311 4.295 21.195 7.912 36.81 17.024 44.682 30.808z"/></g></svg>