<svg xmlns="http://www.w3.org/2000/svg" width="1599.634" height="276.636" viewBox="0 0 423.237 73.193"><path d="M.776 73.187c-3.353-4.605 5.151-7.34 6.635-11.793 4.837-6.033 7.298-11.895 12.594-18.501C27.366 31.427 35.803 21.842 43.69 11.19c5.62-2.114 7.989-17.396 14.269-8.354 4.566 6.896 8.276 13.008 12.68 20.08.798 2.992 4.173 8.03 5.93 11.925 4.42 4.266 5.408 13.593 11.983 15.6 6.299-2.019 6.452-11.752 9.735-16.14 2.537-4.379 3.942-9.072 6.437-13.043 2.078-3.317 2.74-14.888 9.473-10.797 6.678 5.142 11.371 13.237 16.817 19.021 4.733 4.384 7.812 11.682 14.314 14.467 6.206-.717 6.057-5.662 10.408-10.516 4.484-6.276 10.88-13.11 16.055-19.792 2.738-5.077 9.678-11.06 14.465-2.42 4.64 4.445 8.56 9.252 11.808 13.481 2.105 3.045 5.735 6.25 6.795 9.256 4.022 2.877 6.367 6.524 10.262 10.167 6.993 3.812 7.802-7.803 11.467-11.37 2.565-3.525 3.944-7.23 6.27-10.442 3.571-4.144 8.323-15.428 14.287-7.293 2.585 3.6 4.863 5.689 6.776 8.752 7.569 9.144 15.077 20.444 25.42 27.42 7.469 1.015 9.383-7.884 13.438-12.297 3.503-5.268 8.634-12.156 11.845-16.985 4.094-5.84 8.56-11.682 11.15-17.622 10.104-4.334 16.433 11.91 25.355 15.597 9.101 8.442 17.568 18.079 30.229 21.544 9.093-3.775 15.4-13.128 22.89-19.637 7.568-7.278 17.495-11.697 25.1-18.971 12.337 2.245-8.172 11.372-13.198 14.737-11.5 8.586-20.492 20.092-31.952 28.755-8.848 1.242-16.665-7.05-23.777-11.358-6.078-5.033-8.974-8.708-15.179-13.727-5.277-3.363-10.167-11.503-17.326-10.972-1.926 3.33-5.705 6.72-7.519 11.007-3.971 5.086-8.494 10.216-11.21 16.061-2.79 2.28-7.308 9.794-10.512 13.97-2.562 6.898-10.595 6.497-14.725 1.719-6.922-6.05-13.815-14.839-18.82-20.783-3.148-2.941-6.015-8.982-10.55-12.025-3.408-3.02-7.199 3.733-8.8 5.112-4.457 8.81-9.992 17.153-14.287 26.134-5.41 5.194-9.449-5.844-12.996-8.5-3.668-2.523-9.147-9.228-10.812-12.04-4.839-5.425-10.166-13.003-16.393-17.022-4.984-.667-12.258 9.499-17.1 14.393-6.175 7.07-9.6 16.754-17.06 22.4-5.426-.109-7.804-6.832-11.44-9.684-7.374-7.377-12.76-16.367-20.87-22.805-5.49-2.346-7.46 7.262-8.444 8.346-5.301 9.454-8.787 19.88-14.199 29.297-6.811 8.01-11.332-9.468-15.59-12.745-5.715-9.086-9.091-17.994-15.124-26.592-3.243-12.327-13.433-7.696-18.252.795-5.815 8.917-14.655 18.734-20.105 26.616C17.45 53.17 12.192 62.835 4.81 70.893c-1.399.441-2.674 2.426-4.034 2.294zM101.37 37.512c.382-.704.118 1.141 0 0z" fill="#1e87f0"/></svg>