<svg xmlns="http://www.w3.org/2000/svg" width="1968.076" height="250.352" viewBox="0 0 520.72 66.239"><path d="M264.773 65.939c-7.053-13.84-16.37-26.32-23.921-39.936-4.49-5.91-9.315-22.144-18.553-14.106-16.188 12.645-30.33 28.381-48.122 38.843-8.355-4.79-13.313-15.233-20.004-22.529-6.09-5.057-10.65-24.069-19.95-17.636-12.3 11.78-24.323 23.917-34.14 37.847-5.743 13.115-14.086-1.002-16.127-8.38-5.607-10.397-9.27-21.613-15.454-32.156-11.599 6.498-21.348 17.817-34.123 23.426-10.231 5.967-20.613 12.029-29.86 19.256-11.717-1.409 2.568-8.597 6.77-10.757 11.069-7.08 22.602-13.784 33.484-21.365C54.106 14.439 59.977-1.5 70.715.114 79.213 14.267 83.89 30.82 92.42 44.42c6.766 3.268 11.964-12.728 18.257-16.71 8.41-9.45 17.975-17.54 26.696-26.694 8.93 1.595 12.107 13.1 18.128 18.943 6.367 7.447 10.671 17.235 18.797 22.878 10.31-.999 17.005-11.741 25.014-17.515 8.85-8.726 19.641-15.171 28.455-24.278 8.71 1.571 12.088 14.353 17.847 21.173a1585.428 1585.428 0 0020.263 33.197c6.06.679 7.218-8.273 10.89-11.471 7.544-11.938 13.159-25.057 23.69-35.041 3.59-6.607 11.803.426 15.76 3.462 9.294 6.651 14.71 16.531 20.862 25.888 6.545 1.415 10.809-5.627 16.298-8.445 11.07-9.096 22.288-17.913 33.731-26.302 10.896 1.816 16.374 14.298 22.938 22.425 4.204 4.49 5.276 17.73 13.995 13.303 16.407-9.615 33.186-21.315 49.778-29.19 4.38-3.5 12.063-9.633 14.153.022 9.615 10.997 19.952 22.175 32.748 29.352-.78 19.137-16.973-9.831-25.17-12.966-5.973-7.905-15.528-17.403-25.426-9.808-16.02 8.043-30.67 19.044-46.103 28.745C414.78 55.63 411.986 37 407.01 31.97c-5.902-8.795-16.305-27.683-27.762-16.368-13.093 8.385-24.586 20.512-37.532 28.157-7.102 10.528-12.127-7.882-16.64-12.767-4.783-7.104-15.59-24.49-25.293-13.803-7.887 7.654-11.991 18.28-18.384 26.971-2.447 4.716-4.6 6.987-6.945 11.262-2.584 3.302-4.404 12.596-9.681 10.517zm20.032-26.86c-.602.2.886.982 0 0zm-271.83-.491c.982-.886.2.602 0 0z" fill="#1e87f0"/></svg>