<svg xmlns="http://www.w3.org/2000/svg" width="2008.685" height="190.13" viewBox="0 0 531.465 50.305"><path d="M444.106 50.305c-12.189-9.081-23.567-21.072-33.421-33.178-4.438-3.113-6.253-12.799-13.465-8.32-11.975 4.669-21.01 14.527-32.992 18.925-9.032 4.695-16.668 12.213-26.19 15.581-6.535-7.755-12.928-13.237-19.848-20.483-4.143-4.628-11.035-12.703-16.927-6.673-11.716 7.658-23.355 14.476-34.434 21.707-6.506 2.919-16.45 16.383-22.907 7.337-4.992-11.203-14.52-20.38-23.013-28.457-8.877.427-14.111 10.287-21.81 14.402-7.558 6.287-14.876 13.95-23.047 18.906-15.045-11.265-30.948-22.223-45.451-34.366-7.214-1.181-11.486 6.041-17.419 11.157-5.944 6.074-11.138 10.265-17.11 16.907-5.548 11.139-14.657 1.142-20.776-4.147-12.933-6.167-21.202-25.663-35.14-26.494-8.687 6.358-16.37 15.217-25.13 22.632-2.279 9.67-23.518 15.696-11.219 4.124 5.676-3.11 8.737-10.422 14.095-13.443C25.1 19.26 32.979 11.677 40.058 4.572 54.538 8.488 64.136 26.2 77.692 34.38c6.242 7.741 14.544 10.21 19.634 1.355 5.347-6.864 13.762-13.277 19.092-19.542 4.277-1.368 6.635-11.357 13.158-8.616 13.743 10.51 26.842 23.065 42.215 31.641 8.078 6.043 15.748-4.88 22.068-9.735 8.58-7.267 17.887-13.683 24.316-21.466 9.24-2.519 11.355 12.385 18.192 16.667 5.714 6.325 11.989 21.91 21.787 13.572 5.41-4.282 12.564-8.661 17.853-11.732 9.168-7.18 20.178-11.824 28.495-20.39 6.134-5.326 9.18 6.044 13.364 8.119 7.315 7.062 13.406 15.975 23.08 20.2 8.646-1.33 14.62-9.043 22.686-12.013 8.972-5.684 16.675-11.335 25.526-16.28 5.786-1.15 13.533-11.05 17.932-3.09 8.065 13.832 19.908 24.694 31.38 35.416 12.116 6.044 14.796-14.148 22.728-19.762 6.618-5.144 15.916-21.941 25.02-15.125 11.654 8.248 22.284 17.886 33.987 25.845 6.748 1.135 17.38 19.86 6.76 14.625-11.758-11.86-25.507-21.773-38.468-32.175-9.065-8.202-16.963 4.844-23.342 10.466-7.816 8.269-13.206 18.715-19.568 27.914l-1.481.03zm-64.533-31.444c-.32-.967-.652.943 0 0zM304.696 14.1c-1.083-.89-.661 1.25 0 0zm.926-.53c-.676-.949-.676.95 0 0zm1.919-.44c-1.457-.429-.265.464 0 0zm90.156-4.851c-.32-.968-.652.942 0 0z" fill="#1e87f0"/></svg>