<?xml version="1.0" encoding="UTF-8" standalone="no"?>
<svg
   xmlns:dc="http://purl.org/dc/elements/1.1/"
   xmlns:cc="http://creativecommons.org/ns#"
   xmlns:rdf="http://www.w3.org/1999/02/22-rdf-syntax-ns#"
   xmlns:svg="http://www.w3.org/2000/svg"
   xmlns="http://www.w3.org/2000/svg"
   xmlns:sodipodi="http://sodipodi.sourceforge.net/DTD/sodipodi-0.dtd"
   xmlns:inkscape="http://www.inkscape.org/namespaces/inkscape"
   width="350"
   height="124.80054"
   viewBox="0 0 92.604108 33.020148"
   version="1.1"
   id="svg12"
   sodipodi:docname="logo-lefuret.svg"
   inkscape:version="0.92.3 (2405546, 2018-03-11)">
  <metadata
     id="metadata18">
    <rdf:RDF>
      <cc:Work
         rdf:about="">
        <dc:format>image/svg+xml</dc:format>
        <dc:type
           rdf:resource="http://purl.org/dc/dcmitype/StillImage" />
      </cc:Work>
    </rdf:RDF>
  </metadata>
  <defs
     id="defs16" />
  <sodipodi:namedview
     pagecolor="#ffffff"
     bordercolor="#666666"
     borderopacity="1"
     objecttolerance="10"
     gridtolerance="10"
     guidetolerance="10"
     inkscape:pageopacity="0"
     inkscape:pageshadow="2"
     inkscape:window-width="1920"
     inkscape:window-height="1027"
     id="namedview14"
     showgrid="false"
     inkscape:zoom="2.4664125"
     inkscape:cx="174.99967"
     inkscape:cy="62.399914"
     inkscape:window-x="-8"
     inkscape:window-y="-8"
     inkscape:window-maximized="1"
     inkscape:current-layer="svg12" />
  <path
     d="M 16.442018,1.3394823e-4 A 16.511332,16.511332 0 0 0 10.277613,1.2111399 l -0.3150017,0.1286256 0.0088,0.1820009 c 0.01575,0.2835014 -0.08225,0.8461292 -0.328127,1.8900094 -0.510127,2.1682607 -0.673753,3.3005163 -0.563502,3.8850192 0.0455,0.2406262 0.04375,0.2660014 -0.021,0.3368767 -0.1015,0.1120004 -0.303626,0.086625 -0.406002,-0.051625 -0.07263,-0.098 -0.07875,-0.1513758 -0.07525,-0.7665038 0.0035,-0.8863794 0.133001,-1.6616333 0.614253,-3.6715182 0.211751,-0.8846294 0.329002,-1.5163825 0.288752,-1.5557577 -0.0105,-0.011375 -0.223127,0.08225 -0.472503,0.207376 -1.555757,0.7796289 -3.12114,1.9372596 -4.361021,3.224391 -0.455878,0.4742523 -1.051756,1.1532557 -1.01063,1.1532557 0.01225,0 0.12075,-0.049875 0.242376,-0.1111256 0.476002,-0.2406262 1.200506,-0.3500017 1.97751,-0.2975014 0.469002,0.030625 0.677253,0.06825 1.04563,0.1890009 0.182876,0.0595 0.231876,0.091 0.217876,0.1391257 a 18.445091,18.445091 0 0 0 -0.119876,0.6973784 c -0.05513,0.3500018 -0.102375,0.6387532 -0.105,0.6422532 A 3.7625186,3.7625186 0 0 1 6.5745943,7.3475453 C 6.1764673,7.2320447 5.6969653,7.1961695 5.3548383,7.2556698 4.6032093,7.3860455 4.1429573,7.8751731 3.8909563,8.8096771 l -0.101501,0.374502 -0.01313,1.9705099 -0.01225,1.97051 0.927505,0.01137 c 0.857504,0.0105 0.938004,0.0175 1.058755,0.08838 a 0.79450393,0.79450393 0 0 1 0.215251,0.202126 c 0.077,0.113751 0.084,0.168876 0.084,0.605503 v 0.479503 l -1.131381,0.0105 -1.131381,0.0088 -0.0088,6.256281 -0.0096,6.254531 0.388502,0.439252 c 2.797389,3.167516 6.7979087,5.162525 11.0373047,5.503777 0.551253,0.0455 1.994135,0.04638 2.546262,0.0035 a 16.537582,16.537582 0 0 0 9.277671,-3.727518 c 0.579253,-0.476878 1.783259,-1.677384 2.226011,-2.219011 1.189131,-1.456007 2.097386,-3.020515 2.721264,-4.687398 0.107625,-0.285252 0.189001,-0.525003 0.182001,-0.531128 a 0.48825242,0.48825242 0 0 0 -0.161876,0.021 c -0.313252,0.07175 -0.887254,0.08225 -1.273131,0.02362 -1.549633,-0.237126 -2.569888,-1.288006 -2.910265,-2.997765 -0.107625,-0.541627 -0.13475,-1.10163 -0.13475,-2.738763 v -1.618758 h -2.008135 l 0.15925,-0.173251 c 0.271252,-0.294002 0.464628,-0.748129 0.464628,-1.086756 v -0.1225 h 1.384257 V 4.3182803 L 27.250947,3.9647785 C 25.321562,2.3232704 23.132301,1.1735147 20.745289,0.54613665 A 16.703833,16.703833 0 0 0 16.442018,1.3394823e-4 Z M 11.753745,4.3970307 c 0.418252,0 0.510127,0.0105 0.658878,0.079625 0.351752,0.1627508 0.623878,0.4926274 0.727129,0.8828793 0.05337,0.201251 0.07,0.5451277 0.0315,0.6868785 -0.02362,0.086625 -0.007,0.08575 -1.857634,0.1505007 l -0.700879,0.0245 v 0.09975 c 0,0.1470007 0.109376,0.4497522 0.218751,0.602878 0.196876,0.2800014 0.472503,0.408627 0.87063,0.408627 0.335126,0 0.672878,-0.1128755 1.015005,-0.3386267 0.14875,-0.098 0.276501,-0.1723758 0.283501,-0.1662508 0.007,0.00788 8.75e-4,0.1373757 -0.01313,0.2896265 l -0.02625,0.2773763 -0.192501,0.1137506 a 3.1395155,3.1395155 0 0 1 -0.416502,0.196876 c -0.280002,0.10325 -0.846129,0.135626 -1.122631,0.063 a 1.5697578,1.5697578 0 0 1 -1.036,-0.8382529 c -0.11375,-0.2301261 -0.124251,-0.2852514 -0.136501,-0.6711283 -0.01137,-0.3447517 0,-0.4655023 0.06388,-0.6755033 a 1.7500087,1.7500087 0 0 1 0.959,-1.0990055 c 0.164501,-0.076125 0.245877,-0.086625 0.673754,-0.0875 z m -0.03675,0.3937519 c -0.157501,-8.75e-4 -0.315002,0.032375 -0.455003,0.1041255 -0.287001,0.1461258 -0.612503,0.603753 -0.612503,0.8592543 0,0.04725 0.119876,0.05075 0.833004,0.02975 0.969505,-0.028 1.187381,-0.049 1.187381,-0.1120006 0,-0.1566258 -0.133875,-0.4585023 -0.267751,-0.603753 C 12.236747,4.8887831 11.978621,4.7916576 11.716995,4.7907826 Z m 17.815088,1.5522577 c -0.01837,-0.020125 -0.03237,1.4253818 -0.03237,3.3757668 v 3.4107669 h 1.589883 c 0.932754,0 1.589007,-0.014 1.589007,-0.03412 0,-0.120751 -0.336001,-1.335257 -0.519752,-1.87776 A 16.12633,16.12633 0 0 0 30.370337,7.5225462 C 30.127961,7.1506693 29.629208,6.4480408 29.532083,6.3430403 Z M 2.0656971,8.4964261 c -0.02625,-0.0245 -0.7008784,1.372882 -0.8750043,1.8095089 a 19.866973,19.866973 0 0 0 -0.84175417,2.721263 l -0.02275,0.102376 H 1.9291966 l 0.0175,-1.973135 c 0.014875,-1.5321329 0.0315,-2.0475099 0.076125,-2.3091359 0.0315,-0.183751 0.05075,-0.342127 0.042,-0.350002 z M 18.803655,11.958818 v 1.769259 h -0.263377 c -0.837379,0 -1.540007,0.364002 -1.823509,0.945004 -0.246751,0.503128 -0.245001,0.484753 -0.259876,2.654764 l -0.014,1.973134 H 14.76376 v -7.182035 h 1.683508 l 0.0017,0.664128 c 0.0018,0.528503 0.01138,0.649253 0.04725,0.593253 0.399002,-0.631753 0.572253,-0.833004 0.90913,-1.058755 0.280001,-0.187251 0.673753,-0.312377 1.065755,-0.337752 z M 5.9752163,12.119819 h 2.277636 l 0.01225,2.702013 0.01137,2.702014 0.08663,0.257251 c 0.323752,0.96513 1.579383,1.00888 2.5296377,0.0875 l 0.206501,-0.199501 V 15.36871 c 0,-2.546263 -0.0035,-2.590013 -0.227502,-2.778139 -0.12775,-0.10675 -0.392876,-0.192501 -0.717503,-0.230126 -0.2056257,-0.02363 -0.2143757,-0.02887 -0.2143757,-0.133001 v -0.107625 h 2.5051367 v 2.929514 c 0,2.581263 0.007,2.94964 0.0595,3.103641 0.08225,0.240626 0.213501,0.325501 0.580127,0.373627 0.283502,0.03763 0.295752,0.04375 0.295752,0.1365 0,0.09275 -0.02275,0.104126 -0.476877,0.232751 -0.262502,0.0735 -0.712254,0.222251 -1.00013,0.329877 -0.288752,0.106751 -0.561753,0.203001 -0.608128,0.213501 l -0.084,0.02012 v -1.365882 l -0.365752,0.370127 c -0.418252,0.424377 -0.788379,0.686879 -1.1996307,0.848754 -0.248501,0.098 -0.341251,0.113751 -0.715753,0.124251 -0.486503,0.01312 -0.650128,-0.02188 -1.01063,-0.214376 -0.322002,-0.171501 -0.598503,-0.433127 -0.742879,-0.703503 -0.218751,-0.411253 -0.229251,-0.548628 -0.229251,-3.084391 0,-1.910134 -0.0087,-2.324886 -0.056,-2.503387 -0.09888,-0.381502 -0.203001,-0.468127 -0.664129,-0.553003 -0.240626,-0.04375 -0.252001,-0.05162 -0.252001,-0.152251 z m 17.8019627,0.01487 c 0.695629,-0.007 1.257382,0.256376 1.470883,0.729754 0.119,0.262501 0.109375,0.667628 -0.02188,0.950254 -0.336877,0.729754 -1.570633,1.481383 -3.543768,2.160386 -0.256376,0.08837 -0.478627,0.177626 -0.491752,0.198626 -0.07875,0.11375 -0.194251,0.936255 -0.196876,1.387757 -0.0035,0.736753 0.1435,1.07013 0.565252,1.277506 0.195126,0.09538 0.254627,0.105876 0.573128,0.104126 0.413002,-0.0035 0.652753,-0.07963 1.050005,-0.334252 0.476878,-0.306252 1.069256,-0.962505 1.413132,-1.562758 0.06738,-0.11725 0.144376,-0.213501 0.170626,-0.213501 0.0735,0 0.283502,0.07875 0.282627,0.105876 0,0.014 -0.07,0.1505 -0.153126,0.305376 -0.460252,0.847004 -1.153256,1.550508 -1.891759,1.920635 -0.106751,0.05425 -0.342127,0.14 -0.523253,0.192501 -0.408627,0.119 -0.99488,0.15225 -1.378132,0.07875 -0.748129,-0.143501 -1.253881,-0.656253 -1.426257,-1.443757 -0.08138,-0.375377 -0.08138,-1.181256 0,-1.636258 0.346502,-1.93551 1.808634,-3.725769 3.367017,-4.121271 0.254626,-0.06562 0.501377,-0.098 0.734128,-0.09975 z m -0.254626,0.365752 c -0.0875,8.75e-4 -0.182001,0.01575 -0.282626,0.04637 -0.427002,0.128626 -0.787504,0.544253 -1.201381,1.386882 -0.208251,0.425252 -0.691254,1.631883 -0.691254,1.726383 0,0.0245 0.03763,0.01225 0.426127,-0.133875 0.520628,-0.195126 1.025506,-0.442752 1.370257,-0.671129 0.350877,-0.231876 0.777004,-0.675503 0.910005,-0.945879 0.371002,-0.759504 0.08225,-1.417507 -0.531128,-1.408757 z m -23.41074047,2.01251 -0.021875,0.1225 c -0.1172506,0.658879 -0.1207506,2.782514 -0.00525,3.730144 0.2327512,1.916259 0.7262536,3.629518 1.52425757,5.282401 0.1662508,0.344752 0.3080015,0.626503 0.3150015,0.626503 0.00613,0 0.01225,-2.196261 0.01225,-4.880774 V 14.513831 H 1.023567 Z m 29.38264547,0 0.01575,1.973134 c 0.01662,2.115761 0.01925,2.143761 0.224001,2.708139 0.233626,0.643128 0.656253,1.05613 1.212756,1.187381 0.235376,0.05512 0.889879,0.0455 1.200506,-0.0175 0.472502,-0.09713 0.462002,-0.0875 0.555628,-0.547753 0.10325,-0.510128 0.221376,-1.337007 0.276501,-1.93726 0.07787,-0.840004 0.042,-2.830639 -0.0595,-3.281266 l -0.01837,-0.084 h -1.703634 z"
     id="path2"
     inkscape:connector-curvature="0"
     style="fill:#00a0e4;stroke-width:0.87500435" />
  <path
     d="M 27.796949,21.735241 C 27.245697,21.53749 26.774944,21.041363 26.563193,20.434985 l -0.08925,-0.255501 -10.193801,-0.0087 -10.1929247,-0.0096 v 1.645008 l 10.9489287,-8.75e-4 c 10.613803,-0.0018 10.942804,-0.0035 10.760803,-0.07 z"
     id="path4"
     inkscape:connector-curvature="0"
     style="fill:#fdcd01;stroke-width:0.87500435" />
  <path
     d="m 33.472227,21.796492 c 0.035,-0.02625 0.168001,-0.105001 0.294002,-0.176751 0.450627,-0.255501 0.922254,-0.771754 1.14013,-1.248631 l 0.09625,-0.210001 h 57.591036 v 1.682633 l -29.593521,-8.75e-4 c -23.273366,-8.75e-4 -29.579522,-0.01138 -29.528772,-0.04725 z"
     id="path6"
     inkscape:connector-curvature="0"
     style="fill:#00a1e4;stroke-width:0.87500435" />
  <path
     d="m 70.116534,11.843317 c -0.539878,0 -1.079755,0.110251 -1.557508,0.331627 -1.09288,0.504878 -1.857634,1.478757 -2.113135,2.694138 -0.07875,0.371877 -0.06125,1.176881 0.035,1.561883 0.187251,0.757754 0.645753,1.505883 1.207506,1.97401 l 0.199501,0.166251 -0.07875,-0.131251 c -0.218751,-0.357002 -0.258126,-0.936255 -0.0875,-1.271381 0.141751,-0.278252 0.287876,-0.434002 0.686003,-0.733254 l 0.393752,-0.296626 c 0.0061,-0.0061 -0.06825,-0.108501 -0.16625,-0.228376 -0.280877,-0.345627 -0.371002,-0.573128 -0.367502,-0.929255 0.0026,-0.353502 0.0595,-0.507503 0.275626,-0.742004 0.227501,-0.246751 0.467252,-0.339501 0.881129,-0.341251 0.285252,0 0.367502,0.01487 0.545128,0.09625 0.241501,0.113751 0.437502,0.296627 0.541628,0.504003 0.09887,0.201251 0.09975,0.688628 0.0018,0.875004 -0.112001,0.211751 -0.315002,0.441002 -0.569628,0.645753 -0.131251,0.105001 -0.238876,0.204751 -0.238876,0.222251 0,0.04375 1.01413,1.264381 1.050005,1.264381 0.0175,0 0.152251,-0.1435 0.301002,-0.317626 0.14875,-0.175001 0.280001,-0.318502 0.290501,-0.318502 0.035,0 0.378002,0.350877 0.378002,0.385877 0,0.01837 -0.135626,0.190751 -0.301002,0.384127 l -0.301876,0.350002 0.364877,0.431377 c 0.201251,0.237126 0.373626,0.431377 0.385002,0.430502 0.01225,0 0.09537,-0.042 0.1855,-0.09363 0.449753,-0.257252 0.97738,-0.790129 1.268757,-1.282757 a 3.7397685,3.7397685 0 0 0 -1.649434,-5.299021 3.7423935,3.7423935 0 0 0 -1.559258,-0.332502 z m -0.667628,2.527888 c -0.306252,-0.0053 -0.603753,0.211751 -0.603753,0.538128 0,0.216126 0.04462,0.322001 0.266001,0.621253 0.104125,0.14 0.197751,0.253751 0.208251,0.253751 0.04637,0 0.387627,-0.273001 0.509252,-0.408627 0.251127,-0.277376 0.256377,-0.625628 0.01225,-0.849629 a 0.58800291,0.58800291 0 0 0 -0.392001,-0.154876 z m -0.273002,2.242636 c -0.08313,0.0079 -0.616003,0.397252 -0.751629,0.551253 -0.1435,0.163626 -0.251126,0.399877 -0.252001,0.551253 -0.0026,0.315001 0.248501,0.691253 0.568753,0.854004 0.166251,0.084 0.236251,0.09713 0.441002,0.0875 0.321127,-0.0175 0.581003,-0.146126 0.904755,-0.449752 l 0.251126,-0.235376 -0.557378,-0.672004 c -0.307126,-0.370126 -0.575753,-0.679003 -0.598503,-0.686003 h -0.0061 z m 1.536508,1.819134 -0.273002,0.259001 c -0.274751,0.261627 -0.669378,0.496128 -0.832129,0.496128 -0.1575,0 -0.13125,0.07 0.03063,0.08488 0.515378,0.04638 1.253007,-0.01137 1.539133,-0.119875 l 0.105001,-0.04025 -0.195126,-0.232751 c -0.107626,-0.128625 -0.236252,-0.281751 -0.284377,-0.341251 z"
     id="path8"
     inkscape:connector-curvature="0"
     style="fill:#fdcd01;stroke-width:0.87500435" />
  <path
     d="m 54.620207,12.576571 a 0.82250407,0.82250407 0 0 0 -0.443627,0.115501 0.808504,0.808504 0 0 0 -0.217001,0.269501 c -0.0875,0.175876 -0.0945,0.228376 -0.106751,0.906504 l -0.014,0.720129 h -0.08925 c -0.08488,0 -0.08925,0.01225 -0.08925,0.224876 0,0.214376 0.0035,0.224001 0.09363,0.224001 h 0.09275 v 0.92838 c 0,0.511002 0.01225,0.941505 0.02625,0.955505 0.01488,0.01487 0.120751,0.02187 0.234502,0.01575 l 0.207376,-0.01137 0.0096,-0.94413 0.0096,-0.94413 h 0.601128 l -0.01137,-0.215251 -0.0105,-0.215251 -0.292252,-0.0105 -0.292251,-0.01138 0.01138,-0.705253 c 0.0105,-0.640504 0.01837,-0.712254 0.08575,-0.786629 0.05862,-0.06475 0.105001,-0.07875 0.224001,-0.0665 0.08313,0.0088 0.181126,0.02888 0.218751,0.0455 0.06125,0.02713 0.06563,0.0088 0.05513,-0.207376 l -0.0105,-0.237127 -0.141751,-0.03325 a 0.70875351,0.70875351 0 0 0 -0.151376,-0.0175 z m 22.003734,0.0665 v 2.288137 L 76.45769,14.785082 c -0.379752,-0.334252 -0.924004,-0.320252 -1.311631,0.035 -0.250251,0.227501 -0.361377,0.475128 -0.385002,0.855754 -0.03762,0.641379 0.276501,1.144506 0.807629,1.293257 0.100625,0.02712 0.256376,0.04025 0.362252,0.028 0.210001,-0.02275 0.515377,-0.173251 0.618628,-0.306252 l 0.07,-0.0875 0.01138,0.161001 0.01138,0.161001 h 0.448877 l 0.0088,-2.141136 0.0105,-2.141136 h -0.243251 z m 1.502383,0.598503 c -0.135626,0 -0.291377,0.119001 -0.315002,0.239752 -0.02362,0.126875 0.06388,0.315876 0.166251,0.357001 0.1225,0.049 0.168876,0.04638 0.288751,-0.01575 0.119001,-0.06125 0.152251,-0.12425 0.152251,-0.286126 0,-0.145251 -0.148751,-0.294877 -0.292251,-0.294877 z m -36.027429,0.0026 a 0.28875143,0.28875143 0 0 0 -0.203001,0.08925 c -0.151376,0.152251 -0.1155,0.386752 0.077,0.500502 0.09625,0.05775 0.279127,0.0245 0.371877,-0.06825 0.112001,-0.112876 0.098,-0.325502 -0.03063,-0.434877 a 0.32812662,0.32812662 0 0 0 -0.215251,-0.0875 z m 46.130229,0.0053 a 0.29837648,0.29837648 0 0 0 -0.208251,0.0665 0.30187649,0.30187649 0 0 0 0.04725,0.513627 c 0.05163,0.02625 0.12425,0.04725 0.161876,0.04725 0.09188,8.75e-4 0.287001,-0.198626 0.287001,-0.294002 0,-0.189876 -0.135626,-0.322877 -0.288751,-0.333377 z m 3.549892,0.06738 c -0.02013,0 -0.134751,0.130375 -0.253751,0.289626 l -0.306252,0.408627 -0.08925,0.119001 0.105,0.05775 c 0.05863,0.0315 0.112001,0.05775 0.119876,0.05862 a 3.6750182,3.6750182 0 0 0 0.295752,-0.251126 c 0.154875,-0.139126 0.339501,-0.303626 0.411252,-0.365752 l 0.1295,-0.11375 -0.187251,-0.101501 a 1.0937554,1.0937554 0 0 0 -0.224876,-0.1015 z m -51.246379,0.411252 v 0.860129 h -0.224001 v 0.448877 h 0.224001 v 0.92838 c 0,0.511002 0.01225,0.941505 0.02625,0.955505 0.01488,0.01487 0.119876,0.02187 0.233627,0.01575 l 0.207376,-0.01137 0.0105,-0.94413 0.0096,-0.94413 h 0.410377 V 14.58824 h -0.411252 v -0.860129 h -0.244126 z m 2.692389,0 v 0.855754 l -0.120751,0.01138 c -0.120751,0.01138 -0.122501,0.014 -0.133001,0.227501 l -0.01138,0.214376 h 0.265127 v 1.90751 h 0.448877 v -1.90751 h 0.453252 l -0.01138,-0.215251 -0.01137,-0.215251 -0.215251,-0.0105 -0.215251,-0.01138 v -0.856629 h -0.224001 z m 46.077728,0 v 0.860129 h -0.224876 v 0.448877 h 0.224001 v 0.92838 c 0,0.511002 0.01225,0.941505 0.02625,0.955505 0.01488,0.01487 0.120751,0.02187 0.234501,0.01575 l 0.207376,-0.01137 0.0088,-0.94413 0.0105,-0.94413 h 0.410377 V 14.58824 H 89.788431 V 13.728111 H 89.54518 Z m -4.167646,0.819879 c -0.202126,0.0053 -0.415627,0.0945 -0.520627,0.236251 l -0.0805,0.111126 -0.01925,-0.144376 -0.01838,-0.144376 h -0.448877 l -0.0096,1.121756 c -0.0061,0.616878 -0.0018,1.14363 0.0087,1.170755 0.01313,0.035 0.08225,0.0455 0.234501,0.03763 l 0.215251,-0.01137 0.01838,-0.805004 c 0.02012,-0.873255 0.03413,-0.931005 0.246751,-1.070131 0.112001,-0.0735 0.398127,-0.08313 0.478628,-0.01663 0.04725,0.03937 0.07088,0.0175 0.151376,-0.14175 0.118125,-0.232752 0.118125,-0.244127 0,-0.297502 a 0.5853779,0.5853779 0 0 0 -0.256377,-0.04638 z m -32.904538,0 c -0.252001,0.0053 -0.504002,0.09625 -0.627378,0.253751 l -0.07525,0.09625 v -0.30978 h -0.448877 v 2.356387 h 0.442752 l 0.01225,-0.813754 c 0.01225,-0.763879 0.0175,-0.821629 0.09625,-0.946755 0.102376,-0.166251 0.220501,-0.222251 0.462878,-0.222251 0.203876,0 0.379751,0.07263 0.430502,0.176751 0.0175,0.03675 0.04113,0.454127 0.05163,0.927504 l 0.01925,0.859255 h 0.448002 v -1.757009 l -0.112,-0.224001 c -0.08925,-0.177626 -0.145251,-0.239751 -0.276502,-0.308002 a 0.89250442,0.89250442 0 0 0 -0.423502,-0.0875 z m 11.882559,0 c -0.280001,-0.0053 -0.568753,0.07 -0.756004,0.212626 -0.350876,0.267751 -0.518002,0.912629 -0.367501,1.420132 0.1225,0.411252 0.379751,0.672878 0.768253,0.780504 0.423502,0.118125 0.847005,0.0018 1.169006,-0.319377 0.118126,-0.118125 0.215251,-0.232751 0.215251,-0.254626 0,-0.02188 -0.0875,-0.084 -0.192501,-0.137376 -0.183751,-0.09363 -0.195126,-0.0945 -0.231001,-0.02888 a 0.89250442,0.89250442 0 0 1 -0.442752,0.350877 c -0.401627,0.1085 -0.778754,-0.147876 -0.872379,-0.590628 l -0.02625,-0.121626 h 1.775384 l -0.0175,-0.255501 c -0.035,-0.472502 -0.298376,-0.872379 -0.656253,-0.99488 a 1.2232561,1.2232561 0 0 0 -0.364877,-0.06125 z m -4.815149,0.0026 c -0.258126,0 -0.450627,0.0735 -0.616878,0.233626 l -0.1225,0.118126 V 14.58821 h -0.448003 v 2.356387 h 0.441003 l 0.01487,-0.776129 c 0.01663,-0.847004 0.04375,-0.973005 0.236251,-1.125256 0.150501,-0.118125 0.533752,-0.1155 0.673753,0.0044 0.139126,0.119001 0.163626,0.295752 0.166251,1.158506 l 8.75e-4,0.738504 h 0.448877 v -0.802379 c 0,-0.853129 -0.03063,-1.102506 -0.161876,-1.300257 -0.11725,-0.176751 -0.365751,-0.291376 -0.632628,-0.291376 z m 27.21526,0 a 0.65362824,0.65362824 0 0 0 -0.653628,0.494377 c -0.09275,0.343002 0.05513,0.568753 0.534627,0.816379 0.169751,0.0875 0.346502,0.192501 0.392877,0.234502 0.105001,0.09537 0.108501,0.246751 0.0087,0.373626 -0.147,0.186376 -0.420002,0.161876 -0.599378,-0.0525 l -0.09538,-0.114625 -0.175876,0.08575 c -0.09625,0.04637 -0.175876,0.107625 -0.175876,0.135626 0,0.107625 0.280877,0.351751 0.486503,0.422627 0.241501,0.08313 0.287876,0.08663 0.504002,0.0315 0.195126,-0.049 0.434002,-0.243251 0.518878,-0.420877 a 0.81812905,0.81812905 0 0 0 0,-0.608128 c -0.07263,-0.153126 -0.183751,-0.236251 -0.569628,-0.425252 -0.336002,-0.164501 -0.416502,-0.232751 -0.416502,-0.355252 0,-0.210001 0.288751,-0.282626 0.446252,-0.113751 l 0.0875,0.091 0.13475,-0.07175 c 0.249376,-0.13125 0.246751,-0.126 0.111126,-0.280001 a 0.65187823,0.65187823 0 0 0 -0.539003,-0.243251 z m 4.9884,0 c -0.691254,0 -1.114756,0.472502 -1.114756,1.239881 0,0.602003 0.315002,1.04563 0.838254,1.178631 0.418252,0.105875 0.83913,-0.01313 1.153256,-0.327252 0.118126,-0.118125 0.215251,-0.230126 0.215251,-0.249376 0,-0.01925 -0.08575,-0.08138 -0.190751,-0.138251 l -0.189876,-0.10325 -0.06125,0.0875 c -0.370127,0.539003 -1.071005,0.455877 -1.274006,-0.150501 -0.0805,-0.240626 -0.126001,-0.227501 0.841754,-0.227501 h 0.884629 l -0.02188,-0.259001 c -0.02887,-0.349127 -0.145251,-0.604628 -0.364002,-0.801504 -0.210001,-0.188126 -0.385002,-0.249376 -0.716628,-0.249376 z m -55.198774,0.0026 c -0.262501,0.0035 -0.518002,0.1015 -0.678128,0.292251 l -0.09975,0.118126 -0.01138,-0.178501 -0.01138,-0.177626 h -0.448877 l -0.0087,1.776259 c -0.0061,0.976505 -0.0018,1.798134 0.0087,1.825259 0.01225,0.03412 0.08225,0.04462 0.233626,0.03675 l 0.215251,-0.0105 0.0105,-0.818129 0.0096,-0.817254 0.1645,0.151376 c 0.323752,0.298376 0.784004,0.332501 1.179506,0.08925 0.369252,-0.227501 0.545128,-0.622128 0.516253,-1.161131 -0.02013,-0.388501 -0.117251,-0.621253 -0.355252,-0.854004 a 1.0237551,1.0237551 0 0 0 -0.724504,-0.272126 z m 19.867849,8.75e-4 c -0.035,0 -0.07,0.0018 -0.106751,0.0044 -0.554752,0.04113 -0.945004,0.490002 -0.976505,1.120005 -0.0315,0.646629 0.279127,1.141881 0.809379,1.290632 0.09975,0.028 0.255502,0.04025 0.362252,0.02887 0.218751,-0.0245 0.526753,-0.181126 0.612503,-0.313252 l 0.06125,-0.09363 0.01837,0.167126 0.01837,0.168001 H 57.41846 V 14.60745 h -0.448877 l -0.01137,0.160126 -0.01138,0.160126 -0.166251,-0.146126 a 0.88375438,0.88375438 0 0 0 -0.609867,-0.227495 z m 26.22213,0 c -0.466378,0 -0.750754,0.177626 -0.952005,0.586253 -0.115501,0.233626 -0.123376,0.276501 -0.122501,0.625628 0,0.305376 0.01575,0.407752 0.08225,0.553878 0.157501,0.343876 0.388502,0.548627 0.724503,0.642253 0.413877,0.1155 0.838254,0 1.163756,-0.315002 0.119001,-0.116375 0.216126,-0.230126 0.216126,-0.252876 0,-0.02275 -0.07788,-0.08488 -0.172376,-0.138251 l -0.172376,-0.09625 -0.17325,0.183751 c -0.266002,0.280001 -0.588878,0.332501 -0.894255,0.146125 -0.135626,-0.084 -0.287001,-0.323751 -0.321126,-0.507502 l -0.02275,-0.122501 h 1.756134 v -0.175001 c 0,-0.254626 -0.09888,-0.566127 -0.242376,-0.763878 -0.172376,-0.238001 -0.402502,-0.345627 -0.774379,-0.364002 a 1.9950099,1.9950099 0 0 0 -0.09538,-0.0018 z m -20.597602,0 a 0.91437953,0.91437953 0 0 0 -0.361377,0.07 c -0.805004,0.302752 -1.05788,1.335257 -0.479503,1.962635 0.196001,0.211751 0.341252,0.302751 0.600253,0.375377 0.233627,0.06563 0.529378,0.05075 0.791879,-0.0385 l 0.177626,-0.06125 v -0.598483 l -0.12775,0.112001 a 0.80150397,0.80150397 0 0 1 -0.96513,0.06125 c -0.525003,-0.370127 -0.394627,-1.236381 0.215251,-1.437632 0.239751,-0.07875 0.583628,0.007 0.792754,0.197751 l 0.08487,0.077 v -0.286126 c 0,-0.284376 -8.75e-4,-0.286126 -0.1225,-0.350002 -0.07613,-0.04025 -0.238002,-0.06912 -0.438378,-0.07875 a 3.0633902,3.0633902 0 0 0 -0.168,-0.0044 z m -22.907614,0.01575 c -0.411252,0 -0.564378,0.056 -0.791879,0.291376 -0.294001,0.302752 -0.403377,0.94063 -0.241501,1.407007 0.119001,0.342127 0.431377,0.621253 0.798879,0.712254 0.290501,0.07262 0.810254,-0.04638 1.01938,-0.233626 0.124251,-0.111126 0.299252,-0.323752 0.299252,-0.363127 0,-0.01662 -0.07613,-0.07525 -0.169751,-0.130376 l -0.170626,-0.09887 -0.175001,0.185501 c -0.126001,0.133 -0.224001,0.198626 -0.341252,0.230126 -0.404252,0.107625 -0.761253,-0.122501 -0.857504,-0.551253 l -0.035,-0.157501 0.883754,-0.0105 0.883755,-0.0096 -0.01138,-0.187251 c -0.02888,-0.469877 -0.224002,-0.822504 -0.548628,-0.988755 -0.161001,-0.08313 -0.233626,-0.09625 -0.542503,-0.09625 z m 6.525783,0 c -0.440128,0 -0.590628,0.06038 -0.831255,0.334252 -0.301876,0.342126 -0.385002,0.984379 -0.183751,1.423632 0.163626,0.356126 0.405128,0.564377 0.761254,0.652753 0.206501,0.05162 0.561753,0.0096 0.785754,-0.09188 0.197751,-0.08925 0.533753,-0.396377 0.533753,-0.486502 0,-0.02625 -0.07525,-0.09275 -0.167126,-0.147001 l -0.167126,-0.098 -0.178501,0.183751 c -0.291376,0.301001 -0.663253,0.343876 -0.932754,0.107625 -0.148751,-0.13125 -0.274752,-0.356126 -0.274752,-0.492627 v -0.0945 l 0.869755,-0.0105 0.868879,-0.0096 -0.0087,-0.214376 c -0.01925,-0.426127 -0.233626,-0.806754 -0.548628,-0.97563 -0.127751,-0.06825 -0.213501,-0.08138 -0.526752,-0.08138 z m 4.076645,0 c -0.442752,0 -0.590628,0.06038 -0.837379,0.341252 -0.191626,0.217001 -0.280002,0.492627 -0.280877,0.874129 -0.0026,0.608128 0.325502,1.06138 0.865379,1.195256 0.205626,0.05162 0.560878,0.0096 0.784879,-0.09188 0.196876,-0.08925 0.533753,-0.396377 0.533753,-0.486502 0,-0.02625 -0.07525,-0.09275 -0.167126,-0.147001 l -0.167126,-0.098 -0.179376,0.183751 c -0.290501,0.301001 -0.662378,0.343876 -0.931879,0.107625 -0.148751,-0.13125 -0.274752,-0.356126 -0.274752,-0.492627 v -0.0945 l 0.869755,-0.0105 0.868879,-0.0096 -0.0087,-0.214376 c -0.02013,-0.426127 -0.233626,-0.806754 -0.548628,-0.97563 -0.12775,-0.06825 -0.213501,-0.08138 -0.526752,-0.08138 z m -7.161911,0.01487 -0.215251,0.01138 -0.215251,0.0105 -0.0096,1.121756 c -0.0053,0.616878 -0.0018,1.142755 0.0087,1.169005 0.0105,0.02975 0.09188,0.04725 0.224001,0.04725 h 0.207376 V 15.76419 Z m 36.701182,0.0035 c -0.124251,-0.0026 -0.239751,0.0087 -0.230126,0.035 0.007,0.01925 0.265126,0.557378 0.573128,1.196131 0.308876,0.637878 0.570503,1.160256 0.582753,1.161131 0.02275,0.0017 1.158505,-2.318762 1.15763,-2.366012 -8.75e-4,-0.01575 -0.11375,-0.0245 -0.249376,-0.01837 l -0.248501,0.0105 -0.320252,0.699129 c -0.175876,0.385002 -0.329876,0.693003 -0.342126,0.685128 a 9.9207991,9.9207991 0 0 1 -0.316752,-0.661503 13.006064,13.006064 0 0 0 -0.329877,-0.693879 c -0.021,-0.028 -0.153125,-0.04375 -0.276501,-0.04725 z m -1.134006,0 v 2.356387 H 78.3442 V 14.58818 h -0.224877 z m 10.079175,0.01838 -0.0096,1.121756 c -0.0061,0.616878 -0.0018,1.14363 0.0087,1.170755 0.01313,0.035 0.08225,0.0455 0.234501,0.03763 l 0.215252,-0.01137 v -2.318762 h -0.224877 z m -49.043993,0.332502 a 0.58450289,0.58450289 0 0 1 0.516253,0.319376 c 0.042,0.08225 0.07612,0.167126 0.07612,0.188126 0,0.02625 -0.220501,0.03937 -0.636128,0.03937 -0.350002,0 -0.635253,-0.0087 -0.635253,-0.02012 0,-0.01138 0.03325,-0.08575 0.0735,-0.165375 a 0.65887826,0.65887826 0 0 1 0.605503,-0.362252 z m 43.494716,0 a 0.58887792,0.58887792 0 0 1 0.553878,0.335126 c 0.042,0.08838 0.077,0.171501 0.077,0.186376 0,0.014 -0.286126,0.02537 -0.635253,0.02537 -0.350002,0 -0.636128,-0.0087 -0.636128,-0.02012 0,-0.01138 0.03325,-0.08575 0.0735,-0.165375 a 0.65100322,0.65100322 0 0 1 0.567003,-0.361377 z m -36.989058,0 c 0.268626,0.0087 0.511877,0.185501 0.577502,0.446252 l 0.0245,0.100625 h -1.275757 l 0.04113,-0.116375 c 0.05862,-0.168001 0.267751,-0.360502 0.444502,-0.407752 a 0.64400319,0.64400319 0 0 1 0.188126,-0.02187 z m 18.646342,8.75e-4 a 0.59150293,0.59150293 0 0 1 0.533753,0.335126 c 0.042,0.0875 0.077,0.171501 0.077,0.185501 0,0.014 -0.286126,0.02537 -0.636128,0.02537 -0.350002,0 -0.636128,-0.0087 -0.636128,-0.02012 0,-0.07875 0.1225,-0.280876 0.221376,-0.364001 a 0.67025332,0.67025332 0 0 1 0.439252,-0.161876 z m 27.448011,0 c 0.239751,0.0044 0.455877,0.155751 0.558253,0.406002 l 0.05687,0.14 h -0.636123 c -0.420002,0 -0.637003,-0.014 -0.637003,-0.03937 0,-0.164501 0.261626,-0.423502 0.489127,-0.484752 a 0.60812801,0.60812801 0 0 1 0.168876,-0.02187 z m -42.025583,0.0061 c 0.259876,0.0026 0.512752,0.149626 0.585378,0.439252 l 0.0245,0.100625 h -1.275757 l 0.04025,-0.11375 a 0.64050317,0.64050317 0 0 1 0.625629,-0.426127 z m -13.296566,0.01225 c 0.208251,0.0053 0.427877,0.0875 0.539003,0.224001 0.304501,0.373627 0.236251,1.050005 -0.129501,1.290631 -0.155751,0.102376 -0.455877,0.151376 -0.614253,0.100626 -0.616878,-0.198626 -0.702629,-1.191756 -0.132126,-1.540008 a 0.62300309,0.62300309 0 0 1 0.336877,-0.07525 z m 39.681446,8.75e-4 a 0.81987906,0.81987906 0 0 1 0.418253,0.09625 c 0.455002,0.266002 0.472502,1.125256 0.02887,1.417507 -0.171501,0.112001 -0.466378,0.152251 -0.638753,0.0875 -0.261627,-0.09975 -0.447128,-0.354377 -0.483878,-0.663253 -0.042,-0.350002 0.112001,-0.702629 0.376252,-0.86363 a 0.61950307,0.61950307 0 0 1 0.299251,-0.07437 z m -19.637722,0.0035 c 0.252001,0 0.381502,0.05688 0.542503,0.239751 0.318501,0.363127 0.216126,1.093756 -0.182001,1.298507 -0.507503,0.262501 -1.018505,-0.04113 -1.07188,-0.636129 -0.04725,-0.518002 0.255501,-0.902129 0.711378,-0.902129 z m 13.172315,-1.063959 c -0.413877,8.75e-4 -0.653628,0.09362 -0.881129,0.341251 -0.216126,0.233626 -0.273001,0.387627 -0.276501,0.741129 -0.0026,0.356127 0.0875,0.583628 0.368377,0.929255 0.098,0.119875 0.172375,0.222251 0.16625,0.228376 -0.0079,0.0061 -0.183751,0.14 -0.393752,0.296626 -0.572252,0.428752 -0.759503,0.706129 -0.789254,1.169881 -0.02187,0.329877 0.0875,0.733254 0.244127,0.898629 0.206501,0.220502 0.805879,0.519753 1.297631,0.648379 0.146126,0.0385 0.322002,0.06125 0.394627,0.04987 0.249376,-0.03762 0.600253,-0.239751 0.886379,-0.511878 0.160126,-0.151375 0.288752,-0.247626 0.303627,-0.225751 0.110251,0.166251 0.513628,0.612503 0.553878,0.612503 0.0665,0 0.537252,-0.195126 0.537252,-0.222251 a 6.2387809,6.2387809 0 0 0 -0.357876,-0.443627 l -0.357002,-0.420877 0.301001,-0.350877 c 0.166251,-0.192501 0.301877,-0.364877 0.301877,-0.381502 0,-0.035 -0.341252,-0.388502 -0.375377,-0.388502 -0.01225,0 -0.144376,0.143501 -0.293126,0.318502 -0.148751,0.175001 -0.284377,0.317626 -0.301002,0.317626 -0.03588,0 -1.050005,-1.220631 -1.050005,-1.264381 0,-0.0175 0.107625,-0.11725 0.238876,-0.222251 0.254626,-0.204751 0.457627,-0.434002 0.568753,-0.644878 0.09888,-0.187251 0.098,-0.675503 -8.75e-4,-0.875004 a 1.1392556,1.1392556 0 0 0 -0.541628,-0.504003 c -0.176751,-0.08225 -0.259876,-0.09712 -0.545128,-0.09625 z m 0.02363,0.474252 c 0.364876,0.0026 0.655378,0.326377 0.552127,0.713129 -0.04375,0.1645 -0.227501,0.380626 -0.483002,0.568752 -0.098,0.07088 -0.186376,0.130376 -0.197751,0.130376 -0.035,0 -0.395502,-0.507503 -0.435752,-0.612503 -0.119001,-0.312377 0.0079,-0.625628 0.302751,-0.747254 a 0.6667533,0.6667533 0 0 1 0.261627,-0.0525 z m -0.272127,2.240886 h 0.0061 c 0.02275,0.0087 0.291377,0.316752 0.598503,0.686878 l 0.557378,0.672004 -0.251126,0.236251 c -0.138251,0.128626 -0.343877,0.280001 -0.456753,0.335127 -0.301876,0.14875 -0.628253,0.1575 -0.889004,0.02625 -0.320252,-0.161876 -0.571378,-0.539003 -0.568753,-0.854879 8.75e-4,-0.150501 0.108501,-0.386752 0.252001,-0.549503 0.135626,-0.154876 0.668504,-0.544253 0.751629,-0.551253 z"
     id="path10"
     inkscape:connector-curvature="0"
     style="fill:#00a0e4;stroke-width:0.87500435" />
</svg>
