<svg xmlns="http://www.w3.org/2000/svg" width="993.67" height="916.044" viewBox="0 0 262.909 242.37"><g fill="none" stroke="#333" stroke-linecap="round" stroke-linejoin="round"><path d="M244.068 153.606c-39.495-.035-78.99 5.502-118.485 5.502-39.496 0-78.991-5.537-118.486-5.502" stroke-width="13.994" style="animation:nvUlCBLR_draw 722ms ease 0ms forwards" stroke-dasharray="238 240" stroke-dashoffset="239"/><path d="M83.54 50.131l42.043 108.977" stroke-width="13.994" style="animation:nvUlCBLR_draw 356ms ease 722ms forwards" stroke-dasharray="117 119" stroke-dashoffset="118"/><path d="M125.583 159.108c-27.364-27.03-54.341-56.53-84.407-80.455" stroke-width="11.995" style="animation:nvUlCBLR_draw 356ms ease 1078ms forwards" stroke-dasharray="117 119" stroke-dashoffset="118"/><path d="M125.583 159.108c-36.037-14.471-71.303-32.966-109.27-42.778" stroke-width="11.995" style="animation:nvUlCBLR_draw 359ms ease 1435ms forwards" stroke-dasharray="118 120" stroke-dashoffset="119"/><path d="M83.54 50.131S61.27 70.52 41.175 78.653c-6.86 15.426-13.18 24.812-24.863 37.677-.487 17.137-9.216 37.924-9.216 37.924" stroke-width="11.995" style="animation:nvUlCBLR_draw 414ms ease 1795ms forwards" stroke-dasharray="136 138" stroke-dashoffset="137"/><path d="M240.262 170.818s-76.443 5.554-114.664 5.554c-38.221 0-114.664-5.554-114.664-5.554s1.827 16.034 6.872 31.972c3.574 11.29 8.763 17.243 16.061 22.705 8.801 6.585 50.266 9.878 91.731 9.878 41.465 0 82.93-3.293 91.731-9.878 7.299-5.462 12.487-11.414 16.061-22.705 5.045-15.938 6.872-31.972 6.872-31.972h0" stroke-width="13.994" style="animation:nvUlCBLR_draw 1628ms ease 2209ms forwards" stroke-dasharray="538 540" stroke-dashoffset="539"/><path d="M19.512 177.744l20.305 44.804-5.423-45.63 16.83 48.81-2.73-47.436 15.634 48.745-2.138-45.978 16.35 45.604-2.094-44.07 15.372 44.818-1.776-46.809 15.444 50.07-.767-48.638 15.025 48.826-.347-48.35 14.861 48.35-.55-52.82 14.811 53.306.15-50.313 14.34 48.005.411-46.924 14.518 47.017-1.527-50.615 14.133 45.261-1.436-42.012 14.015 42.477-1.858-44.129 15.577 40.48-2.72-46.106 12.166 32.772 3.355-28.283" stroke-width="13.994" style="animation:nvUlCBLR_draw 4285ms ease 3838ms forwards" stroke-dasharray="1417 1419" stroke-dashoffset="1418"/><path d="M172.49 9.62c2.616 2.064 4.392 5.475 6.823 6.449 2.567 1.028 4.56.044 9.114.129-1.636 3.387-4.314 5.127-4.685 8.276-.33 2.796 1.612 4.431 2.338 8.118-3.776-.108-6.437-1.914-9.569-1.38-2.49.424-5.153 3.464-7.858 5.004-.51-2.948-.108-7.522-1.275-9.228-1.268-1.852-4.568-3.289-6.996-4.917 2.89-1.427 7.469-2.89 8.477-3.896 2.165-2.16 2.282-5.704 3.631-8.556z" stroke-width="4" style="animation:nvUlCBLR_draw 284ms ease 8123ms forwards" stroke-dasharray="93 95" stroke-dashoffset="94"/><path d="M165.763 22.459l7.962-8.097-5.338 10.947 8.369-8.686-6.876 13.39 10.36-11.987-8.505 14.883 12.168-13.888-5.127 10.624 3.906-.355" stroke-width="4" style="animation:nvUlCBLR_draw 359ms ease 8407ms forwards" stroke-dasharray="118 120" stroke-dashoffset="119"/><path d="M247.126 2c1.715 1.946 2.67 7.915 5.06 9.732 1.372 1.043 6.976 1.827 8.723 2.531-1.996 2.112-7.337 4.502-8.272 7.333-.868 2.63.37 6.734.162 8.304-4.243-1.195-6.151-4.82-9.839-5.157-3.145-.287-7.383 2.679-9.115 2.624 1.249-6.067 2.937-7.024 2.207-10.133-.557-2.375-3.374-4.233-5.529-6.987 5.62-.909 7.953.492 11.237-1.365 2.532-1.432 2.63-3.911 5.366-6.882z" stroke-width="4" style="animation:nvUlCBLR_draw 308ms ease 8766ms forwards" stroke-dasharray="101 103" stroke-dashoffset="102"/><path d="M235.655 12.778l10.992-5.338-9.228 8.731 11.173-5.971-10.857 10.811 13.074-7.916-13.164 11.58 17.28-9.816-9.77 8.821 4.52-.683.546 2.945" stroke-width="4" style="animation:nvUlCBLR_draw 386ms ease 9075ms forwards" stroke-dasharray="127 129" stroke-dashoffset="128"/><path d="M228.744 49.306c1.514 2.197 3.612 5.698 4.574 6.302 1.069.671 5.246 1.247 8.03 1.76-1.877 1.865-4.313 3.977-4.959 5.917-.573 1.72.16 5.118.48 7.805-2.612-.95-6.285-2.633-7.869-2.56-1.685.079-4.966 1.898-7.709 2.976.16-2.745.862-6.693.288-7.773-.876-1.65-3.359-3.753-5.214-5.662 2.676-.608 7.183-1.43 7.9-2.143 1.196-1.188 3.061-4.34 4.48-6.622z" stroke-width="4" style="animation:nvUlCBLR_draw 247ms ease 9462ms forwards" stroke-dasharray="81 83" stroke-dashoffset="82"/><path d="M221.586 60.322l7.678-6.257-6.05 9.475 8.711-7.538-8.294 12.133 11.355-10.579-6.474 9.646 8.618-7.457-3.625 7.83" stroke-width="4" style="animation:nvUlCBLR_draw 290ms ease 9709ms forwards" stroke-dasharray="95 97" stroke-dashoffset="96"/></g><style data-made-with="vivus-instant">@keyframes nvUlCBLR_draw{to{stroke-dashoffset:0}}@keyframes nvUlCBLR_fade{0%,97.1830985915493%{stroke-opacity:1}to{stroke-opacity:0}}</style></svg>