<svg xmlns="http://www.w3.org/2000/svg" width="200.386" height="500" viewBox="0 0 53.019 132.292"><path d="M26.418 132.247c-2.318-.497-4.861-.004-7.046-.83-1.502.299-2.93-1.126-4.41-.69-1.099-.972-2.876-.523-4.245-1.575a112.372 112.372 0 01-2.854-1.35c-1.097.087-1.688-1.383-2.644-1.707-.954-.766-1.504-1.96-2.484-2.551-.845-1.935-1.54-3.31-2.234-5.376-1.254-5.685.101-11.69 3.414-16.44 2.562-3.978 6.048-7.26 7.917-11.642 1.318-2.828 1.197-7.012-1.318-9.343-.826-1.282-2.226-2.235-2.985-3.314-1.483-1.277-2.093-2.752-2.975-4.435-.459-2.481-.553-5.006.172-7.543 1.02-3.11 2.864-6.063 5.7-7.768 1.468-1.041 2.584-1.406 4.267-1.82 1.729-.806 4.259-.778 4.185-3.278.754-9.448 2.374-18.735 3.163-28.178.312-2.322-3.86-.69-4.42-1.995.782-3.857-1.864-.863-3.694-.663-1.982-1.043.683-1.908 1.381-2.315-.9.193-3.12-1.888-.635-1.985 1.133-.067 1.979.52 2.717.163.393-1.337.79-5.5-2.284-3.388-1.022 1.294-2.884-.589-1.3-1.32.538-.146 2.355-.4 1.082-1.142-1.244-1.735.655-1.98 1.482-1.192 2.037 1.802 1.875-3.968.082-2.735-1.153.945-3.13.085-1.61-1.304 2.136-.586-2.611-.691-.732-2.115.776-.43 1.941.018 2.64.217 2.533.494.33-3.756 3.1-3.457 1.353-.225 2.28-.21 3.65-.624 1.157.019 2.53-.205 3.83-.127.98.068 1.936-.382 2.865-.181 1.37.004 2.083.185 3.125-.124.882.475 1.95.155 3.134.694.93.342 2.138-.479 2.864.475-.175 2.35-.66 5.41 2.364 3.106 1.814-1.362 2.692 1.444.435 1.81 1.349 2.32-1.397 1.953-2.873 1.646-.99.12-1.616 6.83 1.082 4.034 1.633-.693 3.636.185 1.421 1.957-1.77.69 3.3.396.083 2.235-3.09-1.314-4.331.862-3.562 3.318 1.034-.451 2.285-.499 3.432-.642 2.151 1.29-2.18 1.905-.343 2.862.556 2.854-3.826-.506-3.241 1.331.84 4.142-3.561 1.23-3.603 3.798-1.14 7.813-.796 15.73-1.705 23.566.463 1.766-1.192 6.065 1.236 5.668 2.008.77 4.112 1.718 5.602 3.4 1.678 1.215 2.635 1.91 3.393 3.803 1.677 3.01 3.177 6.521 1.953 9.999-.238 3.718-3.878 5.572-5.377 8.616-.804 3.15 1.37 5.737 3.352 7.851 3.068 2.61 5.566 5.872 7.202 9.534 2.688 6.05 3.658 13.053 2.088 19.576-1.196 3.1-3.001 6.38-6.121 7.739-1.232 1.503-3.43 1.732-5.02 2.8-1.46.476-3.49.664-4.555 1.275-2.257.185-4.498.933-6.827 1.342-1.136.236-2.156.315-3.316.334zm1.258-1.512c3.92-.61 8.092-1.723 11.803-2.52 3.211-1.025 6.363-2.587 8.765-4.95 4.105-4.713 3.81-11.484 2.837-17.264-1.27-5.427-3.622-10.866-7.97-14.522-2.73-2.698-5.806-6.25-4.651-10.413 1.681-2.888 4.764-4.858 5.28-8.349a9.798 9.798 0 00-1.821-8.563c-.891-2.142-3.164-4.006-5.239-5.35-.87-.466-3.324-2.297-4.642-1.014.699 2.76-1.595 7.284.55 9.07 1.863 1.233 2.995 3.113 3.567 5.181.865 3.567.717 8.058-2.47 10.412-3.4 1.13-3.082 4.145-2.904 7.207-.033 5.49-.01 11.045.593 16.53 2.15-.495 3.59.577 3.095 3.035.27 2.288-3.434 1.873-4.655 2.342-1.72.331-3.394.244-5.21.545-1.857-1.017-4.178 2.185-4.495.123.062-.789-1.574-4.84.508-4.808 2.914.198 1.196-6.117 1.415-8.476.39-4.551.19-9.164.32-13.709-2.103-.473-3.505-2.217-4.734-3.786-.972-1.244-1.702-4.715-1.104-7.143 1.056-3.06 4.904-4.342 6.045-6.846-.058-6.264-.121-12.784.094-18.925.404-2.966-.01-6.223.275-9.18-.476-2.485.142-5.558-.498-7.853-.706 7.404-1.876 14.77-2.417 22.216-.393 1.788-1.257 3.092-3.17 2.942-1.72.673-3.611.862-5.048 1.945-1.285.837-2.541 1.41-3.536 3.179a12.171 12.171 0 00-2.195 10.297c.62 1.217 1.295 2.916 2.58 4.155 1.95 2.463 4.874 4.302 5.197 7.704 1.145 5.292-2.387 10.013-5.538 13.872-4.69 5.314-8.206 12.478-6.406 19.708.99 3.873 3.648 7.6 7.298 9.185 3.038 1.732 6.406 2.288 9.746 3.124 2.885.659 5.873.497 8.735.899zm-6.18-19.78c2.898-.215 5.626-.6 8.483-.92 1.21-.568 3.105-.25 2.801-1.934-.714-.778-1.811 1.357-2.678.205-1.063 2.373-3.16-2.59-4.213 1.245-1.11-1.397-2.368-1.569-3.211.635-1.252-2.948-2.456-.297-1.181.769zm2.824-3.977c1.715-2.356-.01-6.992.613-10.121-.152-3.745.26-7.462.045-11.156-2.976-.46-.332 5.407-1.084 7.28.024 4.689-.863 9.408-.095 14.077l.525-.08zm2.366-.189c4.729-.17.519-7.516 1.738-10.605-.042-3-.028-5.43.01-8.33 1.762-2.985-2.949-3.722-2.46-.819-.076 6.566-.166 13.183.156 19.72-.105.094.77.045.559.034zm3.428-.37c.2-2.17-.67-4.159 0 0zm-.23-2.63c.14-3.466-.57-1.376 0 0zm-.162-3.97c-.157-4.576.152-9.183.026-13.797-.31-3.493-.473 4.244-.373 5.742 0 2.454-.155 6.276.347 8.055zm-4.576-15.995c-.13-2.676.466-5.644-.086-8.204-.538-1.503 1.53-6.74-.703-6.282-1.21 2.253-.246 5.744-.651 8.43.472 1.877-1.17 5.672.701 6.455.278.027.692-.064.739-.399zm.932.23c3.085.587 2.275-2.876 2.418-4.94-.45-3.324 1.457-8.926-.53-10.844-3.206.35-1.147 5.102-1.846 7.426.21 2.697.079 5.959-.042 8.358zm-3.642-.463c.103-4.49.283-8.995-.098-13.468-2.182 1.706-5.531 3.92-4.433 7.175.123 2.778 2.178 5.171 4.481 6.38l.061-.087zm7.194-.362c.628-3.046.33-6.726.553-10.004.503-1.096.111-8.124-.496-3.605.098 2.894-.11 6.326-.227 9.455.192 1.15-.562 3.325.17 4.154zm1.801-.782c3.034-1.589 4.624-5.193 3.71-8.52-.526-1.916-1.097-3.905-2.694-5.145-2.342-1.273-.352 5.415-1.276 7.052.375 1.636-1.04 6.217.26 6.613zm-7.235-14.84c2.42-.836.73-4.607 1.187-6.68.454-6.834.393-13.76.832-20.58-.115-3.293.325-7.105.473-10.574.676-1.886-.197-9.27-1.159-3.962-.422 9.074-.869 18.136-1.315 27.211.01 4.82-.431 9.833-.26 14.687l.266-.102zm2.355-.736c2.364.067 2.84-1.406 2.376-3.664-.1-4.003.422-8.075.077-12.027.163-.524.455-6.2.602-8.593.151-6.003.498-12.316.544-18.172-3.801-1.62-1.84 4.833-2.557 7.181-.59 11.424-1.117 22.849-1.25 34.297.406-.14-.284 1.19.208.978zm4.02-.543c.402-3.046.19-5.412.487-8.527-.319-2.686.377-5.426-.111-8.08.16-3.312-.013-6.727.145-10.097-.03-1.762.175-8.341-.245-2.78-.242 6.587-.809 12.979-.778 19.578-.198 3.272-.358 6.646-.17 9.87l.668.036zm.42-32.14c.631-2.389.867-5.302.75-7.883-.319-4.3-.99 2.618-.653 3.98-.018 1.16-.275 3.087-.096 3.904zm-6.863-1.62c.43-2.967-.243-3.118 0 0zm.157-2.731c.427-2.024 0-9.285-.072-3.932-.097 1.084-.18 3.692.072 3.932zm12.193-5.87c-.01-3.771.943-7.592.452-11.306.062-3.01.261-5.807.884-8.475.67-2.918-3.377-2.074-5.122-2.597-4.34.013-8.968-.064-13.03 1.311.107 3.116.205 6.402-.377 9.61.092 3.016-1.183 6.161-.063 9.047 1.378-.19 4.286 1.163 3.131-1.923-.723-4.068-.785-8.358-1.515-12.396 2.613-2.305 1.778 4.929 2.137 6.593.297 2.68.306 5.764.777 8.245 2.339-1.207.738-7.21 1.35-10.275-.397-1.25.324-9.392 1.352-5.026-.49 5.158-.262 10.353-.729 15.516 2.531.735 1.09-3.767 1.7-5.313.446-4.188.482-8.53 1.244-12.605 1.96 1.727-.193 6.429.226 9.159.612 2.898-2.977 8.98 1.176 9.377.522-2.853.218-6.362.778-9.46.964-2.242-.906-6.376 1.271-7.222.916 1.835-.338 5.207-.291 7.612.15 2.965-1.548 7.457.152 9.544.867-2.604.759-5.634 1.343-8.37 1.019-2.737.596-6.297 2.053-8.661 1.535 1.427-.799 5.303-.807 7.634-.88 3.183-1.119 6.364-1.353 9.569.835.358 2.587.344 3.26.412z" fill="#333"/></svg>