<svg xmlns="http://www.w3.org/2000/svg" width="394.548" height="500.001" viewBox="0 0 104.391 132.292"><path d="M52.997 132.262c-4.123-.53-7.994-2.96-10.087-6.56-4.391-5.549-4.94-12.964-5.815-19.707-.516-8.165.458-16.447 1.902-24.5 1.26-5.888 2.774-11.71 3.762-17.655 1.526-5.403 1.848-11.338-.713-16.493-.876-2.29-2.31-4.471-4.765-5.224-4.75-2.896-7.632-7.968-9.437-13.065-1.436-4.179-1.684-8.895-.12-13.074.332-3.053 2.544-5.49 3.71-8.14 2.018-2.26 3.263-5.071 5.011-7.491 2.38.721.418 7.606 3.781 6.158 5.171-1.185 10.544-1.254 15.785-2 3.71 1.909 5.866-.961 7.691-3.906 2.881-1.504 1.347 4.83 3.58 6.048 3.873 2.925 5.69 7.944 6.232 12.64.61 6.755-3.171 12.923-7.28 17.954-2.1 2.44-5.146 3.44-6.964 6.05-2.767 5.62-.704 12.167-1.26 18.197.621 5.04 1.642 10.092 3.489 14.822 1.54 3.263 2.505 6.771 3.534 10.214 1.165 9.736 1.095 19.75-1.204 29.328-.76 4.546-2.05 8.88-4.193 12.912-1.627 2.244-3.608 4.129-6.639 3.492zm-.008-1.085c4.349.542 6.251-4.075 7.57-7.354 1.092-2.839 2.077-6.069 2.077-8.989 1.238-2.968 2.168-7.52-1.987-4.074-6.686 2.328-13.647 3.665-20.653 4.494-.47 2.419 1.334 5.335 2.335 7.713 2.031 2.172 2.988 5.467 6.135 6.51 1.279 1.033 2.948 1.522 4.523 1.7zm-12.174-17.213c7.513-.676 15.091-2.238 21.871-5.606 1.345-1.84-6.31 1.837-8.034 1.836-5.047 1.645-10.399 1.395-15.586 1.989-.297 1.073.542 2.275 1.749 1.78zm1.29-3.144c7.62-.023 15.127-1.99 22.058-5.052.573-7.33.28-14.879-1.413-22.06-.589-2.559-3.758.236-5.636.158-5.693 2.263-11.892 2.95-17.83 3.89-1.042 4.796-1.23 9.993-1.267 14.976.936 3.04-1.358 9.783 4.089 8.088zm-.782-24.546c5.776-.62 11.47-1.815 16.87-3.958 2.412-.031 5.276-3.189 1.403-1.345-6.526 1.508-13.185 3.518-20.023 3.299-1.075 1.595.042 2.566 1.75 2.004zm1.04-3.153c6.188-.284 12.241-1.73 17.943-4.076 1.12-1.583-1.336-3.867-1.37-5.865-1.384-5.086-2.731-10.174-2.323-15.517-.68-5.008-.474-10.36 1.351-15.11 1.549-2.853 4.996-3.635 7.241-5.778 4.773-5.504 8.865-13.014 6.757-20.525-1.309-3.35-2.727-7.234-6.166-8.834-.766-1.441-.677-7.222-2.783-4.067-1.565 3.3-4.119 3.66-7.345 2.296-5.74.598-11.678.699-17.134 2.7-1.622-1.406-1.176-4.111-2.034-6.02-1.504 2.206-3.29 4.5-4.522 6.83-1.382 2.813-3.342 5.73-3.79 9.074-1.169 5.381.406 10.908 3.106 15.595 1.88 3.283 4.514 6.577 7.975 8.122 2.703.617 3.393 4.658 4.618 6.953 1.986 5.58.843 11.46-.555 17.016-.757 5.724-2.645 11.201-3.593 16.894.855.065 1.682.538 2.623.312zm8.973-45.474c-2.558-.014-8.077-5.733-2.79-4.396 3.082-.175 6.493-2.234 7.585-4.898 1.786.821.486 3.478-.044 4.999-.617 2.022-2.468 4.327-4.751 4.295zm.697-1.403c3.017-.563 5.445-7.687 1.042-3.416-2.338 1.347-6.627 1.93-1.983 3.375l.565.128.376-.087zM43.45 23.639c-5.058-2.705 4.738-4.848.926-.121l-.926.12zm.102-1.396c.234-.97-.884.264 0 0zm-4.455 1.213c-2.16-1.776 1.645-6.86 3.067-4.36-2.741.47-1.333 3.775-3.067 4.36zm15.205-.86c-4.509-1.35 2.8-5.24 1.945-1.237-.163.832-1.178 1.265-1.945 1.236zm.36-1.59c.665-1.39-1.804.58 0 0zm3.7-.698c-.214-2.12-3.923-5.294.333-2.796.924.685 1.257 2.89-.333 2.796zM16.47 65.024c-4.675-.023-8.926-2.764-11.912-6.166-2.777-2.94-1.532-7.209-3.713-10.374-2.474-4.73 3.41.999 4.333-1.72 2.84-3.364 5.963-6.403 9.68-8.744 2.61-1.244-1.069-5.198 1.407-5.663 1.157 1.293 2.404 4.08 4.554 2.68 2.216.753 4.771 1.625 6.925 2.988 4.045 3.167 6.462 8.79 4.433 13.812-1.325 4.869-4.494 9.149-9.016 11.424-2.176.935-4.18 2.05-6.69 1.763zm1.446-1.343c6.161-.96 11.754-5.916 12.902-12.246 1.222-2.872.442-6.133-1.159-8.787-2.093-3.944-6.689-6.273-11.062-5.944-2.182-2.529-1.621 3.943-5.051 3.767-3.244 2.343-6.136 5.296-8.33 8.563-2.816-.6-4.388-1.628-1.64 2.193-.976 6.36 5.016 10.95 10.547 12.336 1.27-.148 2.54.48 3.793.118zm2.017-2.727c-2.549-.725-4.148-4.162-.988-2.792 1.02-2.045 4.855-3.556 3.668-5.951 1.636-2.043 5.331 4.299 1.059 2.5-1.088 1.651-3.333 2.838-3.852 4.747.77.326.853 1.04.113 1.496zM9.58 57.07c-1.22-1.24-2.017-7.805.756-5.167 4.004-.61 4.692 3.042.501 1.123-2.28-.564.96 4.68-1.257 4.044zm2.489-.97c-2.664-2.133 3.295-1.41 0 0zm6.678-7.75c-.65-.94-2.249-6.578.874-4.786 4.156.378 3.188 2.977-.081 1.246-.772.754 1.115 3.238-.793 3.54zm2.368-.512c-2.864-2.216 2.996-1.6 0 0zM88.5 58.686c-4.057-.098-8.187-1.151-11.07-4.2-4.346-3.254-8.107-8.475-6.619-14.115 1.557-5.274 6.15-9.452 11.215-11.262 2.845-.588 5.363-2.482 7.758-4.15 1.908.409.182 2.693.08 3.908-1.728 3.355 3.735 3.101 4.547 5.757 2.23 3.274 4.688 6.56 8.634 3.676 3.143-.087-1.463 3.458-.981 5.073 2.522 4.533-1.267 9.686-4.915 12.263-2.503 1.933-5.623 2.494-8.65 3.05zm.174-1.246c5.793-.427 11.429-4.177 13.149-9.844-.361-2.94-1.722-5.336.42-7.843-2.926 1.951-5.527 1.348-6.781-2.006-1.742-2.376-3.842-4.692-6.617-5.699-1.737-1.177 1.398-4.837-.035-5.093-1.533.964-3.156 1.961-4.624 2.952-5.42.48-9.914 5.074-11.97 9.952-.535 2.51-.647 5.03.52 7.315 2.07 3.852 5.57 6.957 9.365 9.096 2.017.943 4.36 1.206 6.573 1.17zm-.807-3.644c-2.25-2.253 2.193-3.847 3.949-3.422 1.063 1.98-2.515 3.395-3.95 3.422zm1.58-1.629c1.418-.866-1.077.066 0 0zm-6.23-1.85c.9-3.532-8.228-2.724-3.214-4.76 2.316-.227 6.147 4.166 3.214 4.76zm10.307-.123c.797-2.576-2.246-4.938-2.025-6.558 2.064.756 3.643 3.39 3.283 5.544.297.52-.98 1.421-1.258 1.014zm-2.861-2.157c-2.736-2.517 3.698-1.586 0 0zm-7.897-7.8c-2.767-2.495 3.726-1.55 0 0zm3.751-.491c-.076-3.048-8.638-1.924-4.46-3.839 1.314-.46 8.155 2.921 4.46 3.839z" fill="#333"/></svg>