<svg xmlns="http://www.w3.org/2000/svg" width="371.989" height="500.007" viewBox="0 0 98.422 132.293"><path d="M33.55 132.203c-2.187-1.159-2.912-4.337-.036-5.368 2.923 2.24 3.998-1.282 5.76-3.348 3.013-2.625.913-3.576-2.099-4.26-3.106-1.693-6.658-2.615-9.369-4.958-2.029 1.766-3.966 3.928-6.058 5.74-2.382 1.797-3.227 6.096-6.24 2.823-1.286-1.651-2.606-4.111-1.678-6.159 1.997-1.925 3.225 2.554 4.452 2.176 2.441-2.005 4.86-4.403 6.56-7.068-2.7-2.862-3.93-6.813-5.105-10.513-1.238-6.089-1.867-12.37-.933-18.542-.222-2.063 4.033-7.704-.453-5.914-4.016 1.358-8.366 3.433-10.334 7.402 2.737.909.954 4.915-1.368 5.055-1.13 1.975-3.36 4.573-5.86 3.704-1.76-2.418.327-5.187.825-7.58 3.787-6.099 10.115-10.03 17.003-11.66 1.914-.05 4.436-.926 4.542-3.795 1.144-2.707 2.59-5.343 4.348-7.619.267-1.3 2.375-2.054 2.669-3.387-4.81-2.953-8.763-7.523-11.124-12.718-1.322-3.012-1.019-6.279-.567-9.444-.525-.54-3.373-1.7-3.028-3.492 1.591-2.343 4.361 1.853 4.495-1.352 2.392-1.875-2.203-4.473.425-4.072 1.418.855 1.733-1.61 2.525-2.44.784-1.45-4.314-2.63-1.845-3.338 1.364.14 2.3 2.862 3.287 1.223.662-1.644 3.572-2.703 3.137-4.353-1-2.876 1.94 1.411 3.491-1.447 2.868.054.645-3.266 2.253-2.994.83 2.656 3.423-.228 5.12-.229-.656-2.371 1.595-4.226 1.479-.553 2.843.786 5.671-.807 3.935-3.921-1.043-2.995-3.182-3.77-2.158-.61-2.024-.113-2.535-4.478.398-3.573 2.015.737 3.036 6.006 2.415.953-1.119-2.293 1.768-8.897 4.124-5.27-.17 3.467-3.127 2.952-1.66.368-2.754.85-1.312 9.377-.815 7.085-.217-2.873 4.867-4.937 3.972-.98-1.848 3.14-.16-1.195-2.064-.416-1.207 1.324-2.596 5.66-.296 6.316.621 1.107 2.275.665 3.255 1.375 1.106-1.91 5.211-4.01 1.875-.54-1.416 1.172 1.097 2.798 2.061 2.401 1.485-1.643 5.125-2.517 1.814-.065-2.616 1.928 2.172 3.151 2.824 5 2.95-1.767 2.903-.535 1.357 1.296 1.38 2.284 2.221 3.935 4.725 1.867 2.784-.065-.189 1.247-1.228 1.947-1 .648.652 4.093 1.764 3.323 3.315-1.433-.584.857.043 1.95.29 2.81 2.358.327 3.688 1.123 2.204.993-1.826 6.093-1.218 3.08 1.987-2.652-2.078-2.083-.426.281 1.684 6.883.401 14.963-5.013 19.866-.615 1.707-4.859 2.343-2.161 3.957 2.193 1.937 3.511 4.606 5.646 6.62.852 2.722 3.66.37 5.529.829 5.207.07 10.314 1.426 15 3.571 2.289.958 4.859 1.931 6.483 3.445 2.097-.79 4.688.244 4.67 2.729.623 3.535-3.796 3.907-5.735 3.727-5.583 2.275-.066-3.802-3.85-4.932-5.435-3.107-11.848-4.147-18.004-4.456-2.722-.316.493 2.896.616 4.358 1.125 2.62 2.224 5.256 3.125 7.958 1.265.467.469 4.65 1.488 6.82.377 4.755.377 9.734-.783 14.397-1.23 2.543-2.297 6.017-4.536 8.317a17.893 17.893 0 01-9.097 5.779c-1.368.659-2.884 1.166-4.085 1.219-4.014.447-8.046 1.28-12.116.602-2.323.089-2.755 3.54-4.34 5.036-1.17 1.416-3.225 3.279-2.84 4.755-1.42.984-3.19.759-4.655.893zm2.433-1.141c2.734-1.098-2.9-1.23 0 0zm-1.939-.5c1.623-1.01.915-3.637-.88-2.41-1.113.788-.346 2.477.88 2.41zm3.484-1.401c2.052-2.404 4.416-5.017 5.489-7.955-2.102-.168-2.772 3.72-4.513 4.94-.261.65-3.164 3.328-.976 3.015zm-20.557-6.813c1.943-1.955-3.396-7.775-2.048-3.051.358.93 1.1 3.13 2.048 3.051zm2.062-.928c2.42-2.847 5.6-4.856 7.712-7.905-1.36-2.112-2.055.942-3.331 1.702-1.088 1.541-7.158 6.132-4.38 6.203zm31.306-.909c3.04-.612 6.14-.472 9.106-1.302 3.639-1.185 7.458-2.542 9.99-5.594 3.15-3.62 5.163-8.367 5.592-13.17-.01-4.42.433-8.897-.966-13.204-.705-.993-2.481 2.242-4.077 2.673-4.926 3.161-10.697 4.517-16.224 6.234-8.409 1.395-17.231 2.346-25.706.318-2.515-1.01-5.403-1.467-7.92-2.708.218 5.507 1.693 11.029 4.612 15.738 1.37 2.38 2.386-1.32 3.175-2.4.626-2.4 3.756-5.72 1.599-.964-.59 1.97-2.208 3.606-2.842 5.419 1.89 2.25 2.697-3.051 4.055-4.246 2.695-1.79-.64 3.121-1.268 4.295-1.594 1.248-.323 2.168.962 2.807 3.337 1.891 6.872 3.528 10.547 4.733 2.68.65 2.42-4.332 3.656-5.907.025-2.33 1.325-6.772 1.604-1.898-.453 2.955-2.211 5.969-3.022 8.51 1.725.158 2.025-2.98 2.758-4.318.66-1.378 2.233-7.132 2.527-3.467-.887 2.78-2.273 5.594-3.294 8.15 1.748-.025 3.388.353 5.136.301zM38.684 96.372c5.37-.08 10.715-.461 16.007-1.704 3.495-1.102 6.914-1.932 10.265-3.39 3.334-1.264 6.23-3.597 8.553-6.03-1.167-4.163-3.03-7.975-4.705-11.885a25.686 25.686 0 00-5.911-8.625c-.744-2.001-3.155-2.962-3.827-4.806-1.932 1.372-3.241 1.553-.58 2.945 2.208 1.676 2.99 4.459 4.077 6.895 1.385 2.298-.797 4.454.257 6.51.962 3.32-3.355 4.16-3.394 7.349-1.972 2.584-6.01 3.079-8.98 2.277-2.413 2.132-6.07 3.038-9.04 1.434-1.695-1.686-3.304.817-5.268.65-3.339.327-4.374-3.491-4.096-6.115.07-2.056-2.945-1.326-2.604-4.147-1.15-2.466 2.065-4.82 1.341-6.784-.86-3.682 1.01-7.3 3.586-9.795-1.731-1.292-3.668-1.606-4.706.497-3.748 4.1-5.582 9.388-7.463 14.547-1.27 3.58-2.062 5.788-2.323 8.921.074 2.282-.165 5.014.08 7.034 2.002.99 4.44 2.072 6.794 2.315 2.595 1.42 5.852 1.544 8.777 1.905.963-.263 2.06.174 3.16.002zM2.086 92.107c1.47-.466 3.34-1.784 3.445-3.262-1.863-3.605 2.531.287 2.796-2.698-1.336-.25-2.731-1.501-.81-3.116 2.533-3.923 7.059-6.018 11.29-7.347 5.434-.967-.81-1.46-2.92-.15-5.605 1.861-10.715 5.62-13.592 10.856.815-.507 1.873 2.326-.459 2.345-.718.876-1.43 3.269.25 3.372zm42.964-4.971c2.002.084 4.072-1.127 4.99-2.64 2.798 1.268 7.09.986 8.947-1.816-1.535-3.125 1.338-2.535 2.943-4.51 1.37-2.634-2.086-2.162-.962-3.904 2.349-1.63.752-5.01-.347-7.004-1.26-.606-1.473-3.923-3.767-4.448-1.361.44 1.507 4.003.993 5.827.663 3.66-.236 7.556-3.203 9.938-3.656 4.047-9.997 5.27-15.1 3.741-3.64-.377-5.53-4.04-5.398-7.39-.301-3.789.232-7.661.775-11.438 1.09-3.464-3.894 2.958-3.115 5.024 1.313 1.682 1.85 2.536-.25 4.723-1.074 1.504-1.935 5.598.46 5.772 2.995.833-.516 6.406 3.046 7.641 1.802.578 3.731-.462 4.93-1.613 1.416 1.064 3.177 2.231 5.058 2.097zm-.998-5.36c3.337-.09 6.778-1.124 9.145-3.382 2.762-2.178 4.798-6.096 3.534-9.769-.048-2.192-1.054-5.05-2.671-6.268-3.922.913-7.567 1.848-11.576 1.07-1.84-.157-4.006-1.147-5.766-1.112-1.404 3.791-1.137 7.98-1.407 11.85-.325 2.952 1.158 6.139 4.24 6.786 1.374.703 2.987.787 4.5.825zm47.577-1.375c1.012.043 1.238-3.512 2.596-1.748-1.313 2.688 3.266 1.722 2.982-.526-.12-3.916-3.64-.716-4.75-1.752.228-2.101-3.21-2.547-4.979-3.602-5.62-2.58-11.929-4.56-18.136-3.39-2.355.866 1.136 1.904 2.318 1.574 6.527.733 13.472 1.88 19.025 5.44 2.72.755.44 2.112.632 4.082l.311-.078zM45.733 62.417c4.26-.42 9.354-1 13.068-3.759 4.808-3.27 8.895-8.523 8.97-14.644.677-4.86-1.188-9.557-3.728-13.59-1.89-4.9-5.88-8.643-9.83-11.966-2.237-1.488-4.431-2.984-7.14-3.376-1.963-1.075-4.766-.387-6.99-.085-4.228.981-8.414 2.95-11.79 5.742-2.713 2.32-4.834 5.532-6.116 8.753-1.19 2.273-1.689 5.53-2.444 8.226-1.676 7.05 3.104 13.552 8.178 17.85 4.146 3.448 9.478 5.798 14.684 6.471 1.275.423 1.98-.378 3.138.378zm-5.227-12.409c-2.3.902-4.23-3.935-1.278-1.848 2.17 1.286 4.583.031 6.66-.841 1.201-.923 2.491-1.572 2.998-3.247 2.292 1.137-.846 3.15-2.022 3.97-1.852 1.194-4.247 1.764-6.358 1.966zm.337-9.857c-1.905-2.137 3.17-4.578 3.816-2.534-3.133-.294-1.938 1.154-3.816 2.534zm3.42-9.216c-1.66-.653-.624-4.963.926-2.95.195.74-.222 2.545-.926 2.95zm-5.167-.443c-2.388-2.857 2.059-5.234.828-.834-.138.396-.167 1.085-.828.834zM18.71 35.136c-1.291-2.755-3.68-.888 0 0z" fill="#333"/></svg>