<svg xmlns="http://www.w3.org/2000/svg" width="392.989" height="499.999" viewBox="0 0 103.978 132.292"><path d="M48.004 132.255c-2.105-.247-3.755-1.588-4.671-3.617-.576-4.157 6.564-.85 4.08-5.983-.11-2.657.812-7.873-2.983-5.315-1.578.892-3.365 2.715-3.492-.345-1.48-.512-2.925-.276-4.627-.09-4.16 1.033-8.561 1.795-12.4 3.985-2.751 2.29-1.786-1.32-.295-2.939.728-1.703 2.792-4.234 2.351-5.595-1.809.249-3.707 1.068-5.303.403-.5-2.879 2.1-5.223 2.842-7.903 2.637-5.881 6.242-11.48 8.537-17.42-2.336.132.058-3.054-.616-4.1-3.541-3.41-6.213-7.563-9.673-11.03-1.019-1.444 1.786-2.395 3.203-1.898 3.23 1.817 6.359 4.47 9.984 5.836 2.496 2.326 2.891-1.922 3.964-3.526 2.95-6.677 5.432-13.564 8.547-20.144.85-1.87-2.43-1.072-3.338-1.984-3.724-1.404-6.674-4.23-9.624-6.793-3.037-3.515-5.71-7.445-6.936-11.939.13-3.382-1.149-4.62-1.578-.635-1.328 1.855.722 4.055-.046 5.448-2.877-.996.381-9.226-2.24-4.142-1.27 1.08-.37 5.427-2.247 4.49.185-2.252.856-4.594 2.12-6.516-3.033 2.28-6.04 5.013-9.828 5.97-4.295.857-7.611-2.361-11.425-3.6-2.722.91-2.658-2.053-.562-2.695C3.78 29.158 4.5 26.74 5.69 25.184c1.336-1.188 1.779-3.35 3.642-3.982.881-.746 1.722-.547 2.56-.648 2.434-.353 4.742.017 6.948 1.392 1.998.953 3.63 2.624 5.6 3.553-1.1-1.677-4.198-3.614-3.284-6.093 2.28-.588 3.543 3.803 2.66-1.192 1.263-3.844 3.733 4.493 3.89.493.698-4.952 3.162-9.474 6.424-13.033 1.676-2.19 4.506-3.586 7.15-4.352 1.515-.435 3.673-.68 5.048-1.22 1.235.549 1.929-.318 2.572.288.911-.193 2.266.311 3.097-.046 1.528.117 2.411.545 3.474.515 1.23.455 2.294.771 3.527.827 2.41.424 4.358 1.344 6.408 2.75 1.998.615 3.745 3.156 5.693 4.518 2.202 2.48 3.835 5.437 4.52 8.738.56 1.575 3.195-4.431 2.935.312-1.435 5.345 1.902-1.666 4.008-.606.183 3.058-3.779 5.966.715 2.803 2.3-2.295 5.378-3.786 8.532-2.725 1.616.388 2.625 2.01 3.645 3.307.932 3.157 4.954 4.758 7.746 2.834 2.402 2.516-2.995 2.85-4.474 4.005-3.664 2.18-7.497 5.381-12.052 4.688-2.323.06-5.988-3.486-6.62-3.215.7 2.383 1.622 4.869 2.933 6.88-1.336 1.151-2.487-2.365-2.993-3.557-1.314-4.502-1.338-2.744-1.215.789-.13 2.555-1.427 5.293-.46 7.757-2.76 1.125-1.218-4.73-.928-6.472.825-1.324-.378-9.42-.544-4.963-.333 3.203-.696 6.765-2.544 9.708-1.996 4.54-5.567 8.498-10.16 10.426-1.196 1.01-4.202.853-2.513 3.044 2.932 5.285 7.257 9.655 9.885 15.146 1.02 2.124 2.042 4.608 4.074 1.737 2.396-1.787 4.775-3.733 7.345-5.336 2.884.341.781 4.742-.125 6.598-1.268 3.349-3.374 6.47-4.294 9.848 4.537 7.843 8.757 15.817 13.458 23.566 1.97 2.515 2.965 5.87 5.431 7.924 2.387.703.034 1.732-1.1 2.1-1.163 1.56-2.456.323-3.968-.124-2.014-.252-4.073-.415-6.345.18-2.341.63-4.881 1.672-6.26 3.667-1.492.736-2.936-2.305-5.24-1.676-3.799-.608-8.716-.586-11.292 2.616-1.02 2.74-3.134-3.383-4.159-1.752.64 3.067-.786 7.693 3.258 6.814 2.534 1.389 2.033 5.628-.695 6.257-2.497 1.595-3.532-2.247-4.241-3.89-.55-3.29-.354-7.57-1.537-10.206-1.697-.417-1.864.05-3.44-.238-2.856-.852-1.223 3.787-1.518 5.54-.684 3.117 1.664 8.572-1.125 10.32-.375.37-1.083.367-1.738.457zm.477-1.537c.769-.518-.645-3.938-2.282-3.556-3.459-.14-.36 3.986 1.794 3.575l.488-.018zm12.49-1.77c2.225-.407 1.474-4.145-.238-3.403-1.778-.114.22 2.77.239 3.404zm-11.161-.93c-.84-3.313 1.712-10.869-1.485-11.838.737 3.6-1.11 9.37 1.485 11.839zm8.797-3.002c.041-1.59-.808-11.735-1.151-6.966.705 2.17.127 5.2 1.151 6.966zm-34.015-5.811c5.209-1.828 10.683-3.656 16.277-3.466 1.387 1.54 4.747.966 2.918-1.492 1.814-2.812 1.111 4.81 3.234.27.398-3.426-3.965-1.693-6.09-2.022-1.45-.092-3.415.23-5.012-.089-1.428.158-3.057-.236-4.33-.055-1.34-.154-2.636.316-3.775-.036-.865 2.262-3.103 4.887-3.221 6.889zm4.243-2.425c-.712-1.616 1.553-2.773 2.33-4.008 2.92-.234-1.89 3.553-2.33 4.008zm8.399-1.51c-1.422-3.222 3.297-1.217 0 0zm25.42 2.335c4.352-3.543 10.622-2.913 15.7-1.532 1.661.986 3.012-1.722 4.783-1.804 3.521-1.455 7.577-2.012 11.228-.73 3.317-.27-.226-2.783-.775-4.392-3.497-5.37-6.645-10.889-9.691-16.521-2.14-3.464-3.928-7.216-6.084-10.623-2.35 1.926-.478 3.876-.234 6.091-.595 2.287 1.923 4.638 2.443 6.987 2.344 4.499 3.684 9.405 5.981 13.952-.719 1.283-2.774.33-3.562.877-2.1-.234-4.222.39-6.419.457-5.628.6-11.32 1.26-16.974 1.48-1.15 2.802.196 4.255 2.526 5.09.374.086.537 1.034 1.077.668zm16.538-2.896c-2.929-2.913.973-3.886.421-.183.335.018-.416.448-.421.183zm-15.608-.062c-2.625-3.101 2.504-2.448 0 0zm8-.893c-2.49-3.003 3.129-1.663 0 0zm14.823-1.885c-3.554-2.573 2.415-2.056 0 0zm7.37-.206c-1.586-.14-4.938-3.367-1.633-2.255.947.701 2.37 1.181 1.634 2.255zm-4.973-7.048c-1.887-1.151-5.37-3.423-4.453-5.549.978 2.185 4.545 3.75 4.717 5.565l-.261-.016zm-31.203 10.7c1.358-2.664-1.072-5.296-.864-1.383.087.488.043 1.654.864 1.384zm-8.994-.233c3.212-.907-1.787-5.114-.417-.411l.056.469.361-.058zm3.007-.06c2.308-.248 5.59.803 3.66-2.923-1.59.502-3.253-.18-4.442.283-.21.752-.586 2.949.782 2.64zm-28.238-3.437c3.26-.956 6.589-.255 9.9-.645 6.74.625 13.486.246 20.269.01 6.082-.467 12.38-.628 18.504-1.402 4.002-.158 7.907-1.314 11.914-1.314-2.348-6.458-5.053-12.81-8.172-18.95-1.115-3.444-1.867.573-3.804.29-1.751-1.97-.023-4.793.887-6.473-2.08-4.033-4.567-7.736-6.135-12.025-2.055-4.943-4.012-9.967-6.856-14.519-1.564-2.248-2.286-6.346-5.797-3.962-1.941.628-4.829-1.641-5.742 1.105-2.68 6.012-5.146 12.062-7.637 18.147-1.923 4.117-3.652 8.376-5.654 12.485 1.129 1.293 2.944 6.115-.433 4.59-1.68-2.679-2.138 1.643-3.121 2.792-2.967 6.249-6.406 12.313-9.172 18.69-.82 1.194.04 1.441 1.05 1.18zm49.345-23.49c1.857-.43 1.393-4.76.015-2.138-.038.415-.751 2.205-.015 2.138zm-37.53-.527c-.581-4.069-1.483-.37 0 0zm40.016-3.334c1.382-1.12 2.294-6.675.408-3.154-.551.88-1.404 2.56-.408 3.154zm-40.924-1.263c2.4-2.33-.51-3.809-2.343-4.845-1.821-.993-3.385-2.35-5.156-3.408 2.133 2.447 3.71 5.644 6.814 6.88-.644.5.404 1.558.685 1.373zm39.846-1.398c1.115-1.703 2.218-3.673.363-5.329-.38-2.425-5.013 1.277-2.407 2.453.835.466 1.03 3.31 2.044 2.876zm-38.062-2.699c-.45-1.348-2.672-1.815-3.895-2.605-2.116-.95-3.785-2.868-5.95-3.584 2.964 2.465 6.278 4.73 9.749 6.355l.095-.166zm41.593.062c1.69-2.812 2.834-5.876 4.2-8.847-1.68 2.564-3.101 5.374-4.683 8.04-.155-.49.396 1.345.483.807zm-1.012-2.024c1.51-2.316 2.778-4.827 4.071-7.26-1.827 1.644-5.606 2.773-5.526 5.326.46.41.881 2.397 1.455 1.934zm-6.24-1.416c1.474.32 3.979-3.11 1.678-1.78-.266.286-2.288 1.6-1.678 1.78zm-.733-1.393c.928-.972 3.506-1.616 2.115-3.222-2.993-5.872-7.09-11.05-10.776-16.46-1.038-3.185-3.005-3.686-.925-.385 1.668 3.48 4.183 6.545 5.166 10.344 1.811 3.055 2.679 6.778 4.42 9.723zm4.875-1.15c2.434-2.435 6.224-3.631 7.826-6.797-2.281.609-4.14 2.989-6.285 4.22-.59.74-3.344 1.916-1.54 2.576zm-22.92-21.75c4.904-.125 9.662-1.506 13.99-3.757 4.483-2.65 7.133-7.31 9.05-11.96.554-2.027 1.806-6.217-1.224-4.895-2.17.29-4.954.474-7.405 1.006-2.696.377-5.366 1.291-8.072 1.79-2.661.43-5.491 1.116-8.325.68-1.679.317-3.446.065-4.881.116-3.996-.309-8.022-2.182-11.89-1.767-2.473-.882-4.752-.07-2.473 3.026 2.172 4.071 5.038 7.829 8.825 10.544 2.791 2.518 6.473 3.832 9.989 4.606.762.42 1.695.168 2.416.61zm-.653-3.614c-1.452-.67-3.047-1.027-3.28-2.559 1.017-1.9 4.921-.316 6.757-2.32 2.155-1.41 4.567-3.536 4.815-6.1 2.5-.029-.632 4.052-1.194 5.461-1.245 3.032-3.646 5.481-7.098 5.518zm.545-1.475c1.472-.192 3.809-1.308 3.808-2.452-1.413 1.336-3.382 1.543-5.121 2.065.4.25.833.42 1.313.387zM11.744 35.067c3.762.03 6.666-2.528 9.604-4.602 1.308-1.383 5.936-3.138 1.677-3.938-2.621-2.665-6.407-4.964-10.318-4.77-3.303.23-5.03 3.223-6.5 5.765-.343 1.551-4.73 3.701-2.007 4.408 2.394 1.26 4.798 2.887 7.544 3.137zm-.034-2.086c-1.698 1.273-5.674-3.03-2.646-2.548 1.282 2.046 4.797 1.38 5.582-.64 2.003 1.247-1.453 3.323-2.936 3.188zm.504-4.871c-1.703-1.506 1.78-2.95 2.745-3.381 1.325-.624 3.974 1.36 2.048 2.176-1.587-2.404-3.387.707-4.793 1.205zm36.324 4.72c2.475-.246 4.935.058 7.29-.622 4.064-.304 7.77-2.202 11.829-2.433 2.312-.325 4.778-.568 6.708-1.091 3.066-.152.581-2.844-1.458-2.385-3.156-1.314-6.771-.938-10.053-2.044-2.89-.04-6.066-.168-8.695.047-2.736-.339-6.37.107-9.472.667-4.868.472-9.587 1.845-14.308 2.54-2.155-.514-2.116 3.046-1.104 2.958 1.26.318 2.795-.37 4.177.245 4.67.154 9.195 2.315 13.865 1.938.224-.294.843.474 1.221.18zm-5.098-2.584c-2.413.497-2.735-3.714-.289-2.925 1.57-.637 5.577-1.08 4.255 1.779-1.156.764-2.57 1.209-3.966 1.146zm.475-1.398c2.824-.712-2.07-.231 0 0zm14.644 1.102c-2.65.682-4.599-3.747-.764-3.214 1.534-.337 5.298-1.039 3.93 1.553-.892.96-2.071 1.108-3.166 1.66zm-.44-1.685c4.837-.578-1.525-.45 0 0zm30.497 2.784c1.608-.545 3.619-.94 5.27-1.992 1.246-1.177 5.873-2.606 4.497-3.367-3.93-.894-4.005-6.65-8.165-7.068-4.352-.538-7.056 3.716-10.578 5.499-2.02.54.18 2.071.857 3.028 2.152 2.215 5.002 3.926 8.119 3.9zm-1.709-2.657c-1.296.061-4.342-1.21-2.536-2.337 1.611 1.607 5.272 1.492 5.2-1.364 1.81 1.6-.76 4.132-2.664 3.701zm-.939-4.436c-.932-1.78 1.961-2.825 3.363-3.003 2.887.62 1.102 2.274-.856 1.381-.927.306-1.532 2.095-2.507 1.622zm-56.043 2.112c3.436-.852 7.247-.901 10.511-1.938a352.83 352.83 0 019.929-1.35c5.295.157 10.845-.493 16.106.744 2.342.064 4.819.968 6.959.828-1.8-1.97-4.527-2.844-6.009-5.226-2.361-2.59-4.842-5.179-6.6-8.228-1.54-1.841-1.274-9.677-3.64-4.286-5.385 7.15-12.613 12.94-20.881 16.44-2.094 1.159-4.59 1.95-6.57 2.963l.195.053zm45.506-.931c.213-.633-2.421-.874-.876-.137.27.138.574.216.876.137zm-46.405-.55c3.181-.723 6.208-2.5 9.376-3.785 4.989-2.365 9.352-5.804 13.175-9.723 2.56-2.327 4.77-5.085 6.388-8.137-1.982-.25-4.042-1.03-6.142-.925-1.667-.29-3.875-.254-4.53-.005-5.359-.438-10.967 2.017-13.76 6.732-3 3.34-4.048 8.073-4.93 12.393.461.635-1.149 3.837.423 3.45zm8.768-5.984c-.569-2.105 3.55-1.816 4.817-3.296 3.2-1.762 5.832-4.701 6.92-8.188 2.527-2.371.364 3.296-.785 4.305-2.517 3.659-6.706 5.728-10.727 7.333l-.226-.154zm1.092-6.84c-1.88-1.554 1.794-1.147 2.433-2.452 1.676-.88 2.866-2.608 3.753-4.102 1.721.797-.621 3.363-1.595 4.188-1.393.908-2.853 2.225-4.59 2.366zM24.868 23.975c-.547-1.477-4.006-4.83-1.673-1.603.445.516 1.337 1.472 1.673 1.603zm1.68-.305c1.014-3.13-3.053-7.158-.923-1.87.086.21.754 2.505.923 1.87zm48.705-.623c.46-3.061-1.128-6.225-2.299-9.018-.93-2.513-2.755-4.637-4.975-6.117-1.636-2.295-4.672-2.69-6.768-4.296-2.301-.206.49 5.08.895 6.715 2.167 3.593 5 6.285 7.798 9.33 1.76 1.297 3.495 2.273 5.152 3.59l.202-.203zm-6.997-7.756c-1.618-.798-4.399-3.66-2.773-5.263 1.447.985 1.669 3.911 3.814 4.197 1.398-.777 1.958 1.615-1.04 1.066zm9.84 7.161c2.054-1.006 4.205-5.109.937-1.39.01.297-1.742 1.818-.936 1.39zm-.83-3.415c.557-2.5-.733 1.688 0 0z" fill="#333"/></svg>